<svg width="314" height="454" viewBox="0 0 314 454" fill="none" xmlns="http://www.w3.org/2000/svg">
<g opacity="0.2" filter="url(#filter0_f)">
<rect x="28.3364" y="355.755" width="107.893" height="60.3626" rx="19" transform="rotate(-22.5116 28.3364 355.755)" fill="#C4C4C4"/>
<path fill-rule="evenodd" clip-rule="evenodd" d="M53.4722 337.306C41.3838 343.339 32.5016 348.4 26.9155 352.437C22.918 355.325 22.0898 356.08 21.2231 357.624C19.8051 360.149 19.3625 358.932 32.3427 388.207C44.0748 414.667 44.1597 414.846 45.5 415.981C46.3121 416.668 47.5424 417.24 48.5898 417.418L50.3305 417.712L59.4479 413.792C66.2231 410.879 68.6098 409.974 68.7387 410.269C68.8342 410.486 69.1952 412.506 69.5413 414.756C69.8874 417.006 70.3695 419.071 70.6124 419.346C70.9916 419.774 71.4922 419.651 74.1225 418.485C76.0617 417.625 77.3259 416.882 77.5579 416.465C77.7757 416.074 77.6046 413.888 77.1377 411.09L76.3506 406.375L98.468 396.567L120.585 386.76L123.46 390.352C125.04 392.328 126.682 394.102 127.108 394.296C128.18 394.782 134.126 392.221 134.079 391.294C134.054 390.811 131.596 387.445 128.781 384.04L128.252 383.4L139.472 378.306L150.692 373.212L151.69 371.651C152.317 370.67 152.693 369.471 152.702 368.421C152.716 366.827 152.19 365.564 140.872 340.019C127.393 309.597 128.593 311.733 124.766 311.362C120.482 310.946 111.63 313.1 99.1556 317.592C94.1552 319.393 58.759 334.668 53.4722 337.306ZM77.3725 335.212C90.5971 330.157 97.1338 328.875 100.363 330.704C101.458 331.323 101.607 331.628 110.658 351.763C120.702 374.105 121.007 374.937 120.032 377.312L119.454 378.72L88.646 392.488C54.6528 407.679 56.2118 407.094 53.9305 405.513C52.8009 404.73 52.5422 404.191 43.1596 383.033C32.5674 359.148 32.8638 360.008 34.548 358.054C39.2764 352.568 57.7568 342.711 77.3725 335.212ZM120.793 321.378C123.236 321.506 125.361 324.125 125.143 326.739C124.791 330.956 118.973 333.796 115.366 331.512C113.148 330.107 112.371 327.19 113.625 324.973C114.738 323.005 118.248 321.245 120.793 321.378ZM120.572 335.726C122.678 336.072 124.101 338.737 123.339 340.911C122.126 344.375 116.747 345.464 114.802 342.639C113.757 341.121 113.933 338.8 115.183 337.611C116.379 336.472 119.171 335.496 120.572 335.726ZM130.277 330.976C132.636 330.925 134.324 332.685 134.299 335.169C134.276 337.428 131.388 339.717 128.759 339.56C124.966 339.333 123.342 334.78 126.242 332.501C127.371 331.613 128.983 331.004 130.277 330.976ZM124.61 346.343C126.39 346.427 127.508 347.303 128.041 349.031C128.556 350.702 128.004 352.368 126.541 353.552C123.276 356.193 118.902 354.67 118.82 350.863C118.767 348.405 121.592 346.199 124.61 346.343ZM136.637 341.88C140.342 343.554 139.278 348.963 135.047 349.962C132.112 350.656 129.783 349.129 129.496 346.324C129.293 344.34 130.502 342.924 133.205 341.98C134.965 341.366 135.466 341.351 136.637 341.88ZM140.967 353.81C141.934 355.358 141.621 355.584 133.473 359.196C127.032 362.052 125.789 362.51 125.148 362.263C124.257 361.919 124.232 361.878 124.31 360.843C124.366 360.076 124.728 359.887 132.444 356.567L140.52 353.092L140.967 353.81ZM142.538 358.134C142.874 358.301 143.253 358.804 143.38 359.251L143.611 360.064L135.683 363.686C128.522 366.958 127.69 367.271 127.088 366.925C126.224 366.428 126.143 366.208 126.494 365.298C126.91 364.221 141.592 357.665 142.538 358.134ZM144.244 362.777C144.695 362.811 145.193 363.185 145.396 363.643C145.599 364.1 145.542 364.721 145.264 365.078C144.97 365.455 141.915 366.974 137.615 368.88C130.855 371.878 130.4 372.034 129.479 371.679C128.55 371.321 128.431 371.005 128.742 369.736C128.918 369.022 143.031 362.687 144.244 362.777Z" fill="black"/>
<ellipse cx="52.8391" cy="375.799" rx="11.0574" ry="11.2064" transform="rotate(53.5063 52.8391 375.799)" fill="#F5F8FA"/>
<ellipse cx="68.2117" cy="363.788" rx="6.07768" ry="5.72165" transform="rotate(-42.394 68.2117 363.788)" fill="url(#paint0_radial)"/>
<ellipse cx="73.5624" cy="374.243" rx="6.44023" ry="5.85998" transform="rotate(-42.394 73.5624 374.243)" fill="url(#paint1_radial)"/>
<path fill-rule="evenodd" clip-rule="evenodd" d="M77.4802 364.099C77.0408 363.466 76.18 362.573 75.5668 362.115C74.9538 361.656 74.3621 361.029 74.2521 360.722C74.142 360.415 73.6491 359.784 73.1564 359.32C69.944 356.297 64.4939 357.259 62.1384 361.265L61.6167 362.153L59.0106 362.352C57.5772 362.462 55.1746 362.565 53.6715 362.58C50.4127 362.614 47.7654 363.26 45.6036 364.551C41.0929 367.243 38.7404 372.179 39.253 377.875C39.6997 382.841 43.4832 387.376 48.4993 388.959C51.3262 389.851 53.6242 389.86 56.6025 388.992C59.3264 388.197 60.2546 387.643 63.8619 384.655C65.224 383.527 67.1424 382.078 68.1248 381.435C69.8678 380.295 69.934 380.273 70.8602 380.534C74.7017 381.613 78.6712 379.798 79.9794 376.364C80.5758 374.799 80.5339 372.68 79.8857 371.602C79.6471 371.204 79.391 370.159 79.317 369.279C79.1547 367.344 78.5506 365.641 77.4802 364.099ZM79.3668 374.687C79.2117 376.245 78.1049 377.929 76.6165 378.871C73.1006 381.095 68.1481 379.099 67.8428 375.335C67.6338 372.754 69.1974 370.509 71.883 369.535C75.8205 368.106 79.752 370.813 79.3668 374.687ZM73.7564 364.981C73.3938 366.47 71.6333 368.386 70.1268 368.93C66.3652 370.289 62.2917 367.793 62.3548 364.168C62.392 362.02 64.1501 359.772 66.4319 358.954C70.7573 357.405 74.7916 360.725 73.7564 364.981ZM72.9594 371.484C71.1672 370.743 69.9975 372.947 71.4735 374.282C71.9892 374.749 73.0597 374.495 73.7377 373.746C74.2832 373.143 73.837 371.846 72.9594 371.484ZM69.4897 364.137C68.6033 363.719 67.37 364.287 67.1459 365.218C66.94 366.074 67.3595 366.779 68.2501 367.073C69.0483 367.336 69.7016 367.024 70.0946 366.193C70.5125 365.308 70.2776 364.51 69.4897 364.137ZM63.0903 377.475C62.7568 380.768 60.4672 383.403 56.7959 384.718L54.9467 385.38L50.8693 373.996C50.8693 373.996 48.9141 376.297 49.0936 377.771C49.1385 378.139 49.2231 378.496 49.3156 378.88C49.7635 380.347 50.2493 381.32 51.0745 382.408L52.2144 383.91L50.7342 385.023C49.8669 385.676 49.1878 386.094 49.1878 386.094C49.1878 386.094 48.2868 385.673 47.8776 385.39C47.4112 385.068 46.9031 384.7 46.4024 384.223C44.5516 382.458 43.1162 378.991 43.1549 376.377C43.1915 373.904 44.4084 371.131 46.223 369.387C47.4305 368.226 48.6018 367.623 49.9306 367.147C51.2594 366.671 52.5781 366.384 54.1889 366.51C59.6925 366.94 63.6618 371.829 63.0903 377.475ZM57.3262 373.614C56.6524 372.905 54.8493 372.403 54.6317 372.864C54.5716 372.991 54.9084 374.172 55.3801 375.489C56.213 377.815 56.2558 377.877 56.8681 377.658C57.6165 377.39 58.2369 376.097 58.1085 375.073C58.0582 374.67 57.7061 374.014 57.3262 373.614Z" fill="black"/>
</g>
<g opacity="0.2" filter="url(#filter1_f)">
<rect x="146.445" y="66.3975" width="117.594" height="72.2988" rx="33" transform="rotate(21.4832 146.445 66.3975)" fill="#C4C4C4"/>
<path fill-rule="evenodd" clip-rule="evenodd" d="M192.029 75.0437C177.062 69.4801 171.934 67.9422 164.104 66.6704C148.464 64.1295 138.631 67.3865 131.542 77.4557C127.232 83.5788 120.87 99.3848 119.525 107.315C117.469 119.437 120.466 129.431 128.838 138.359C134.584 144.488 141.487 149.042 153.446 154.595L161.206 158.196L159.575 162.327L157.945 166.458L146.061 161.768L134.176 157.078L132.865 157.647C131.034 158.442 130.204 161.106 131.296 162.682C131.467 162.928 146.852 169.146 165.486 176.499C184.12 183.852 199.605 189.817 199.898 189.754C201.772 189.349 202.986 186.835 202.19 185.004L201.622 183.694L189.737 179.004L177.852 174.314L179.493 170.156L181.133 165.999L190.309 169.376C205.777 175.069 214.724 176.32 223.806 174.06C229.801 172.568 235.592 168.496 240.168 162.555C244.277 157.22 245.425 154.998 249.729 144.055C254.31 132.406 255.289 128.649 255.657 121.306C255.931 115.857 255.347 112.554 253.361 108.306C250.756 102.732 246.254 98.474 238.07 93.8399C233.222 91.0951 213.019 82.8475 192.029 75.0437ZM202.536 90.462C216.9 98.4519 222.332 106.51 220.864 117.65C220.556 119.989 219.78 122.35 216.947 129.57C213.747 137.727 213.204 138.864 211.178 141.673C204.217 151.324 194.902 154.95 181.533 153.213C174.643 152.319 169.132 150.676 160.044 146.809C151.679 143.25 147.783 141.06 143.172 137.326C133.367 129.386 129.793 120.456 131.745 108.778C132.569 103.849 137.544 91.2593 140.353 86.9954C143.26 82.5831 145.895 80.2399 149.813 78.5849C156.544 75.7415 165.267 76.2801 178.611 80.3628C184.402 82.135 197.521 87.6725 202.536 90.462ZM244.886 121.254C246.571 122.907 246.634 124.701 245.142 128.487C243.239 133.315 241.418 134.764 237.667 134.436C236.494 134.334 234.574 133.87 233.402 133.406C227.585 131.104 225.973 127.477 228.233 121.771C229.819 117.764 231.475 116.556 234.907 116.902C237.496 117.164 243.294 119.692 244.886 121.254ZM238.051 144.058L238.729 145.619L235.911 152.76L233.093 159.901L231.532 160.578L229.971 161.256L223.632 158.754L217.292 156.252L216.482 154.642L215.673 153.031L218.492 145.886L221.312 138.741L223.003 138.118L224.694 137.494L231.034 139.996L237.374 142.498L238.051 144.058Z" fill="black"/>
</g>
<g opacity="0.2" filter="url(#filter2_f)">
<ellipse cx="212.916" cy="254.068" rx="17.3863" ry="17.6207" transform="rotate(-41.2243 212.916 254.068)" fill="#F5F8FA"/>
<ellipse cx="192.102" cy="231.536" rx="9.55637" ry="8.99655" transform="rotate(-137.125 192.102 231.536)" fill="url(#paint2_radial)"/>
<ellipse cx="207.791" cy="221.796" rx="10.1264" ry="9.21407" transform="rotate(-137.125 207.791 221.796)" fill="url(#paint3_radial)"/>
<path fill-rule="evenodd" clip-rule="evenodd" d="M191.387 216.971C190.453 217.742 189.165 219.207 188.526 220.227C187.887 221.247 186.982 222.256 186.515 222.468C186.047 222.68 185.123 223.534 184.46 224.367C180.139 229.793 182.353 238.208 188.937 241.38L190.395 242.082L191.045 246.14C191.403 248.372 191.876 252.124 192.095 254.477C192.57 259.579 193.926 263.644 196.229 266.864C201.033 273.583 209.072 276.63 217.931 275.088C225.655 273.744 232.272 267.227 234.101 259.161C235.132 254.616 234.849 251.014 233.102 246.459C231.504 242.294 230.515 240.911 225.365 235.646C223.421 233.658 220.901 230.84 219.767 229.383C217.755 226.8 217.712 226.699 217.999 225.214C219.192 219.054 215.833 213.069 210.284 211.465C207.754 210.733 204.438 211.073 202.832 212.229C202.241 212.655 200.636 213.191 199.266 213.421C196.255 213.927 193.665 215.094 191.387 216.971ZM207.735 212.642C210.197 212.683 212.979 214.199 214.647 216.409C218.589 221.63 216.103 229.65 210.244 230.616C206.227 231.279 202.506 229.119 200.631 225.037C197.882 219.053 201.614 212.541 207.735 212.642ZM193.252 222.692C195.634 223.067 198.864 225.578 199.912 227.868C202.529 233.586 199.146 240.293 193.456 240.664C190.086 240.885 186.335 238.421 184.759 234.951C181.77 228.374 186.449 221.622 193.252 222.692ZM203.546 223.098C202.618 226.002 206.222 227.55 208.124 225.064C208.788 224.195 208.252 222.55 206.99 221.585C205.975 220.808 204 221.676 203.546 223.098ZM192.484 229.488C191.942 230.931 192.993 232.79 194.481 233.02C195.849 233.232 196.9 232.483 197.244 231.05C197.553 229.765 196.98 228.781 195.626 228.273C194.186 227.733 192.965 228.205 192.484 229.488ZM214.214 237.786C219.418 237.882 223.844 241.128 226.38 246.71L227.658 249.522L210.347 257.388C210.347 257.388 214.206 260.153 216.493 259.681C217.064 259.563 217.612 259.384 218.202 259.189C220.442 258.297 221.905 257.41 223.502 255.975L225.708 253.994L227.645 256.169C228.779 257.444 229.522 258.454 229.522 258.454C229.522 258.454 228.98 259.92 228.59 260.598C228.146 261.371 227.635 262.215 226.952 263.061C224.426 266.19 219.179 268.889 215.079 269.168C211.198 269.431 206.696 267.883 203.727 265.266C201.751 263.525 200.655 261.767 199.737 259.747C198.818 257.726 198.197 255.697 198.185 253.157C198.145 244.477 205.292 237.623 214.214 237.786ZM208.912 247.319C207.888 248.467 207.336 251.358 208.086 251.639C208.292 251.717 210.1 251.036 212.102 250.126C215.638 248.519 215.731 248.444 215.308 247.513C214.79 246.375 212.685 245.57 211.096 245.904C210.472 246.035 209.489 246.672 208.912 247.319Z" fill="black"/>
</g>
<g opacity="0.1" filter="url(#filter3_f)">
<ellipse cx="182.966" cy="131.973" rx="66.4146" ry="67.5002" transform="rotate(-4.00409 182.966 131.973)" fill="#C4C4C4"/>
</g>
<defs>
<filter id="filter0_f" x="8.91626" y="297.281" width="158.094" height="139.766" filterUnits="userSpaceOnUse" color-interpolation-filters="sRGB">
<feFlood flood-opacity="0" result="BackgroundImageFix"/>
<feBlend mode="normal" in="SourceGraphic" in2="BackgroundImageFix" result="shape"/>
<feGaussianBlur stdDeviation="4" result="effect1_foregroundBlur"/>
</filter>
<filter id="filter1_f" x="110.9" y="57.8457" width="152.82" height="139.909" filterUnits="userSpaceOnUse" color-interpolation-filters="sRGB">
<feFlood flood-opacity="0" result="BackgroundImageFix"/>
<feBlend mode="normal" in="SourceGraphic" in2="BackgroundImageFix" result="shape"/>
<feGaussianBlur stdDeviation="4" result="effect1_foregroundBlur"/>
</filter>
<filter id="filter2_f" x="167.046" y="196.757" width="83.5511" height="94.7714" filterUnits="userSpaceOnUse" color-interpolation-filters="sRGB">
<feFlood flood-opacity="0" result="BackgroundImageFix"/>
<feBlend mode="normal" in="SourceGraphic" in2="BackgroundImageFix" result="shape"/>
<feGaussianBlur stdDeviation="4.5" result="effect1_foregroundBlur"/>
</filter>
<filter id="filter3_f" x="52" y="0" width="261.932" height="263.946" filterUnits="userSpaceOnUse" color-interpolation-filters="sRGB">
<feFlood flood-opacity="0" result="BackgroundImageFix"/>
<feBlend mode="normal" in="SourceGraphic" in2="BackgroundImageFix" result="shape"/>
<feGaussianBlur stdDeviation="30" result="effect1_foregroundBlur"/>
</filter>
<radialGradient id="paint0_radial" cx="0" cy="0" r="1" gradientUnits="userSpaceOnUse" gradientTransform="translate(67.642 364.583) rotate(-55.4895) scale(6.32451 6.71805)">
<stop offset="0.143626" stop-color="#FEDA36"/>
<stop offset="0.466677" stop-color="#F9C72A"/>
<stop offset="0.734055" stop-color="#EFB035"/>
<stop offset="0.855128" stop-color="#ED9944"/>
<stop offset="1" stop-color="#ED9944"/>
</radialGradient>
<radialGradient id="paint1_radial" cx="0" cy="0" r="1" gradientUnits="userSpaceOnUse" gradientTransform="translate(73.6302 374.071) rotate(90.6441) scale(6.03198 6.62926)">
<stop offset="0.274731" stop-color="#FEDA36"/>
<stop offset="0.553663" stop-color="#F9C72A"/>
<stop offset="0.767909" stop-color="#EFB035"/>
<stop offset="0.880208" stop-color="#ED9944"/>
</radialGradient>
<radialGradient id="paint2_radial" cx="0" cy="0" r="1" gradientUnits="userSpaceOnUse" gradientTransform="translate(191.206 232.786) rotate(-55.4895) scale(9.94447 10.5633)">
<stop offset="0.143626" stop-color="#FEDA36"/>
<stop offset="0.466677" stop-color="#F9C72A"/>
<stop offset="0.734055" stop-color="#EFB035"/>
<stop offset="0.855128" stop-color="#ED9944"/>
<stop offset="1" stop-color="#ED9944"/>
</radialGradient>
<radialGradient id="paint3_radial" cx="0" cy="0" r="1" gradientUnits="userSpaceOnUse" gradientTransform="translate(207.898 221.526) rotate(90.6441) scale(9.48451 10.4237)">
<stop offset="0.274731" stop-color="#FEDA36"/>
<stop offset="0.553663" stop-color="#F9C72A"/>
<stop offset="0.767909" stop-color="#EFB035"/>
<stop offset="0.880208" stop-color="#ED9944"/>
</radialGradient>
</defs>
</svg>
