<svg width="575" height="366" viewBox="0 0 575 366" fill="none" xmlns="http://www.w3.org/2000/svg">
<g opacity="0.37" filter="url(#filter0_f)">
<ellipse cx="344.323" cy="101.66" rx="48.8642" ry="41.544" transform="rotate(4.41562 344.323 101.66)" fill="white"/>
</g>
<path fill-rule="evenodd" clip-rule="evenodd" d="M191.374 78.7685C183.877 79.8862 177.602 83.6834 173.771 89.4212C170.811 93.8544 170.186 95.9272 169.774 102.687C169.258 111.15 171.253 117.349 176.234 122.752C182.328 129.363 192.726 132.14 202.197 129.686C207.122 128.41 209.956 126.858 213.522 123.486C217.183 120.023 219.4 115.712 220.684 109.559C222.246 102.067 220.431 94.2111 215.631 87.6992C210.988 81.3995 200.25 77.4456 191.374 78.7685ZM75.4799 79.575C67.3292 81.5522 60.7542 87.1433 57.9499 94.4822C56.6582 97.862 56.4112 99.4608 56.4189 104.394C56.4307 112.733 58.2953 117.671 63.301 122.623C68.6627 127.928 76.1821 130.513 84.2957 129.84C89.994 129.368 92.134 128.674 96.4116 125.909C98.8722 124.319 100.663 122.574 102.004 120.46C103.729 117.741 105.93 112.469 105.93 111.057C105.93 110.79 103.012 110.572 99.4452 110.572C94.0794 110.572 92.9605 110.724 92.9605 111.455C92.9605 111.94 91.999 113.401 90.8241 114.702C85.3444 120.767 76.0936 119.558 71.2731 112.146C69.8341 109.934 69.6743 109.157 69.6767 104.382C69.6784 100.484 69.9473 98.5847 70.6912 97.2229C73.584 91.9261 79.2989 89.2308 84.8256 90.5566C87.9607 91.3088 92.0096 94.3567 92.6805 96.4695C93.0053 97.4929 93.6414 97.6026 99.256 97.6026H105.472L105.063 95.4243C104.049 90.0172 99.3951 84.2334 93.8448 81.4803C88.5827 78.8705 81.4394 78.1295 75.4799 79.575ZM520.005 83.3067C518.835 85.8192 514.886 94.375 511.229 102.319C507.572 110.263 503.49 119.099 502.156 121.955C498.582 129.611 498.495 129.437 505.905 129.437H512.079L513.335 126.516L514.592 123.595L524.317 123.421C529.666 123.325 534.317 123.417 534.653 123.626C534.988 123.834 535.844 125.16 536.554 126.574L537.847 129.142L544.139 129.31C549.23 129.445 550.431 129.319 550.431 128.648C550.431 128.192 548.475 123.607 546.085 118.459C543.695 113.31 541.007 107.507 540.11 105.561C537.502 99.9017 534.848 94.1845 532.036 88.1702C530.596 85.09 529.04 81.7079 528.579 80.6538C527.802 78.8782 527.535 78.7378 524.936 78.7378H522.131L520.005 83.3067ZM113.004 104.349V129.437H119.489H125.974V118.531C125.974 112.532 126.098 107.624 126.249 107.624C126.4 107.624 128.825 110.012 131.639 112.93C134.452 115.848 137.042 118.236 137.395 118.236C137.748 118.236 140.496 115.787 143.501 112.795L148.965 107.353V118.395V129.437H155.45H161.935V104.382V79.3274H159.693C157.556 79.3274 157.058 79.7548 149.005 88.4833C144.359 93.5196 140.032 98.3083 139.389 99.1253C138.746 99.9424 137.85 100.531 137.398 100.433C136.946 100.336 132.388 95.613 127.269 89.9388C118.272 79.9658 117.879 79.6162 115.483 79.4411L113.004 79.2596V104.349ZM225.014 84.9072V90.487L231.056 90.6551L237.099 90.8231L237.255 110.13L237.41 129.437H243.584H249.758L249.913 110.13L250.068 90.8231L256.111 90.6551L262.154 90.487V84.9072V79.3274H243.584H225.014V84.9072ZM269.817 104.334V129.437H276.302H282.787V123.247V117.057L287.651 117.036C298.401 116.99 304.164 114.077 308.025 106.74C309.385 104.157 309.576 103.1 309.577 98.1921C309.577 93.2773 309.378 92.1813 307.948 89.242C306.185 85.6135 303.63 83.0402 299.719 80.9545C297.379 79.7059 296.409 79.6145 283.524 79.4294L269.817 79.2325V104.334ZM378.29 104.387V129.447L410.138 129.295L441.985 129.142V104.382L441.985 79.6221H435.634H429.284L429.16 98.4869L429.037 117.352H422.97H416.904L416.748 98.3395L416.592 79.3274H410.116H403.639V98.4869V117.646H397.449H391.259V98.4869V79.3274H384.775H378.29V104.387ZM451.66 80.0649C451.504 80.4705 451.447 91.6791 451.532 104.972L451.685 129.142H458.067H464.449L464.552 120.027L464.655 110.912L466.951 110.369C469.521 109.76 470.157 110.282 472.585 114.994C473.254 116.29 475.345 120.004 477.232 123.247L480.663 129.142L487.839 129.308C494.09 129.452 495.015 129.351 495.015 128.531C495.015 127.643 490.43 119.842 484.138 110.028L481.333 105.651L483.76 103.635C488.527 99.676 490.628 94.2783 490.976 85.1012L491.184 79.6221L484.551 79.4553L477.919 79.2885V83.9504C477.919 93.4512 474.295 98.1921 467.032 98.1921H464.36V88.7597V79.3274H458.152C453.726 79.3274 451.862 79.539 451.66 80.0649ZM201.532 92.3476C206.304 94.7823 209.084 101.76 207.676 107.77C206.746 111.742 206.071 112.948 203.535 115.175C198.61 119.499 191.169 119.208 186.476 114.507C179.185 107.205 182.516 93.4824 192.163 91.0789C194.746 90.4352 198.881 90.9952 201.532 92.3476ZM295.169 92.2085C298.265 95.3046 298.062 101.473 294.779 104.056C293.489 105.07 292.392 105.266 288.013 105.266H282.787V97.8974V90.5283H288.138C293.235 90.5283 293.569 90.6079 295.169 92.2085ZM527.957 105.709C529.293 108.709 530.387 111.428 530.387 111.752C530.387 112.103 528.101 112.341 524.723 112.341C520.427 112.341 519.132 112.163 519.357 111.604C521.922 105.248 524.756 99.4095 525.095 99.7815C525.332 100.042 526.62 102.71 527.957 105.709Z" fill="#F5F8FA"/>
<ellipse cx="328.715" cy="75.3996" rx="12.444" ry="11.715" transform="rotate(-112.689 328.715 75.3996)" fill="url(#paint0_radial)"/>
<ellipse cx="352.562" cy="72.3032" rx="13.1863" ry="11.9983" transform="rotate(-112.689 352.562 72.3032)" fill="url(#paint1_radial)"/>
<path fill-rule="evenodd" clip-rule="evenodd" d="M335.712 57.7475C334.189 58.1578 331.873 59.2007 330.566 60.0661C329.259 60.931 327.642 61.639 326.975 61.639C326.306 61.639 324.75 62.1537 323.516 62.7833C315.47 66.8881 313.562 78.0578 319.659 85.3643L321.009 86.9826L319.594 92.1439C318.816 94.9824 317.355 99.6845 316.347 102.593C314.162 108.898 313.581 114.447 314.576 119.505C316.653 130.059 324.542 138.001 335.875 140.945C345.756 143.512 357.11 139.35 363.624 130.774C367.295 125.94 368.899 121.517 369.282 115.177C369.631 109.377 369.203 107.206 365.934 98.1895C364.7 94.785 363.231 90.087 362.671 87.7495C361.677 83.6028 361.68 83.4602 362.821 81.8543C367.553 75.1945 366.795 66.2897 361.08 61.3979C358.475 59.1677 354.361 57.7853 351.835 58.2905C350.904 58.4762 348.713 58.2481 346.965 57.7829C343.123 56.7601 339.423 56.7489 335.712 57.7475ZM357.425 61.4209C360.321 62.7956 362.803 66.0917 363.59 69.6105C365.45 77.9234 358.184 86.0918 350.717 84.0815C345.598 82.7026 342.349 78.1386 342.326 72.2893C342.291 63.7135 350.223 58.004 357.425 61.4209ZM334.841 65.5346C337.462 67.2619 339.94 71.978 339.949 75.2576C339.971 83.4466 332.347 89.5753 325.402 86.9508C321.287 85.3962 318.168 80.4554 318.168 75.4928C318.168 66.0858 327.352 60.6009 334.841 65.5346ZM346.826 71.5601C344.161 74.5036 347.601 78.2794 351.194 76.3564C352.45 75.6844 352.7 73.446 351.724 71.622C350.939 70.1541 348.13 70.1187 346.826 71.5601ZM330.269 73.1766C328.85 74.5961 329.094 77.3657 330.734 78.4404C332.242 79.4284 333.891 79.1066 335.072 77.5927C336.13 76.2356 335.981 74.7612 334.649 73.4295C333.233 72.0134 331.532 71.915 330.269 73.1766ZM351.562 94.7201C357.679 97.6365 361.177 103.869 361.177 111.853V115.875H336.417C336.417 115.875 335.946 115.914 337.154 117.923C337.942 119.232 338.978 120.422 340.334 121.127C341.853 121.918 343.197 122.074 344.76 122.242C347.896 122.391 350.109 122.127 352.774 121.287L356.457 120.127L357.581 123.749C358.24 125.871 358.577 127.468 358.577 127.468C358.577 127.468 357.144 128.915 356.316 129.508C355.373 130.185 354.313 130.91 353.047 131.546C348.368 133.895 340.693 134.268 335.682 132.389C330.94 130.611 326.436 126.352 324.326 121.65C322.922 118.52 322.568 115.847 322.568 112.957C322.568 110.067 322.925 107.326 324.279 104.308C328.908 93.9962 341.072 89.7204 351.562 94.7201ZM340.14 103.166C338.309 103.975 336.096 107.104 336.834 107.842C337.037 108.045 339.547 108.211 342.411 108.211C347.469 108.211 347.618 108.172 347.618 106.84C347.618 105.212 345.555 103.124 343.492 102.665C342.681 102.484 341.173 102.709 340.14 103.166Z" fill="black"/>
<path d="M63.3413 169H61.3574V158.566H57.7881V156.864H66.9106V158.566H63.3413V169ZM75.6431 169H68.7783V156.864H75.6431V158.541H70.7622V161.845H75.3359V163.505H70.7622V167.315H75.6431V169ZM87.3804 169H85.3965V158.566H81.9434C81.5062 162.108 81.1548 164.518 80.8892 165.796C80.6291 167.074 80.2611 167.965 79.7852 168.469C79.3092 168.967 78.6784 169.208 77.8926 169.191C77.4886 169.191 77.104 169.122 76.7388 168.983V167.332C77.0542 167.47 77.3613 167.539 77.6602 167.539C78.0586 167.539 78.3685 167.301 78.5898 166.825C78.8167 166.344 79.063 165.284 79.3286 163.646C79.5998 162.008 79.9207 159.747 80.2915 156.864H87.3804V169ZM97.4575 169H90.5928V156.864H97.4575V158.541H92.5767V161.845H97.1504V163.505H92.5767V167.315H97.4575V169ZM100.089 156.864H103.691C105.363 156.864 106.569 157.108 107.311 157.595C108.058 158.082 108.431 158.851 108.431 159.902C108.431 160.611 108.249 161.2 107.883 161.67C107.518 162.141 106.992 162.437 106.306 162.559V162.642C107.158 162.802 107.784 163.12 108.182 163.596C108.586 164.067 108.788 164.706 108.788 165.514C108.788 166.604 108.406 167.459 107.643 168.079C106.884 168.693 105.827 169 104.472 169H100.089V156.864ZM102.073 161.878H103.982C104.812 161.878 105.418 161.748 105.8 161.488C106.182 161.222 106.373 160.774 106.373 160.143C106.373 159.573 106.165 159.161 105.75 158.906C105.34 158.652 104.688 158.524 103.791 158.524H102.073V161.878ZM102.073 163.488V167.332H104.181C105.011 167.332 105.637 167.174 106.057 166.858C106.483 166.537 106.696 166.034 106.696 165.348C106.696 164.717 106.48 164.249 106.049 163.945C105.617 163.64 104.961 163.488 104.082 163.488H102.073ZM111.312 156.864H113.129V163.173C113.129 163.831 113.113 164.498 113.08 165.173C113.046 165.843 113.021 166.297 113.005 166.535H113.08L119.28 156.864H121.596V169H119.77V162.741C119.77 161.784 119.823 160.622 119.928 159.255H119.861L113.636 169H111.312V156.864ZM123.273 167.298H124.211C125.013 165.832 125.686 164.186 126.228 162.359C126.77 160.533 127.119 158.701 127.274 156.864H133.541V167.298H135.11V172.345H133.201V169H125.182V172.345H123.273V167.298ZM128.934 158.583C128.812 159.839 128.502 161.297 128.004 162.957C127.506 164.612 126.939 166.059 126.303 167.298H131.557V158.583H128.934ZM143.942 169H137.077V156.864H143.942V158.541H139.061V161.845H143.635V163.505H139.061V167.315H143.942V169ZM156.144 169H154.152V163.53H148.557V169H146.573V156.864H148.557V161.828H154.152V156.864H156.144V169ZM159.34 156.864H161.158V163.173C161.158 163.831 161.141 164.498 161.108 165.173C161.075 165.843 161.05 166.297 161.033 166.535H161.108L167.309 156.864H169.625V169H167.798V162.741C167.798 161.784 167.851 160.622 167.956 159.255H167.89L161.664 169H159.34V156.864ZM179.668 169H172.804V156.864H179.668V158.541H174.788V161.845H179.361V163.505H174.788V167.315H179.668V169ZM184.118 167.215C183.852 168.245 183.365 169.57 182.657 171.191H181.221C181.603 169.697 181.888 168.308 182.076 167.024H183.993L184.118 167.215ZM200.578 169H198.246L193.249 162.849V169H191.265V156.864H193.249V162.741L198.163 156.864H200.337L195.44 162.725L200.578 169ZM212.963 162.916C212.963 164.891 212.468 166.427 211.477 167.522C210.492 168.618 209.095 169.166 207.285 169.166C205.453 169.166 204.045 168.624 203.06 167.539C202.081 166.449 201.591 164.902 201.591 162.899C201.591 160.896 202.083 159.357 203.068 158.284C204.059 157.21 205.47 156.673 207.302 156.673C209.106 156.673 210.5 157.218 211.485 158.309C212.47 159.399 212.963 160.934 212.963 162.916ZM203.699 162.916C203.699 164.41 204.001 165.544 204.604 166.319C205.207 167.088 206.101 167.473 207.285 167.473C208.464 167.473 209.352 167.091 209.95 166.327C210.553 165.563 210.854 164.426 210.854 162.916C210.854 161.427 210.556 160.298 209.958 159.529C209.366 158.76 208.48 158.375 207.302 158.375C206.112 158.375 205.213 158.76 204.604 159.529C204.001 160.298 203.699 161.427 203.699 162.916ZM219.761 169H217.777V158.566H214.208V156.864H223.331V158.566H219.761V169ZM235.973 162.916C235.973 164.891 235.477 166.427 234.487 167.522C233.502 168.618 232.104 169.166 230.295 169.166C228.463 169.166 227.055 168.624 226.07 167.539C225.09 166.449 224.601 164.902 224.601 162.899C224.601 160.896 225.093 159.357 226.078 158.284C227.069 157.21 228.48 156.673 230.312 156.673C232.116 156.673 233.51 157.218 234.495 158.309C235.48 159.399 235.973 160.934 235.973 162.916ZM226.709 162.916C226.709 164.41 227.011 165.544 227.614 166.319C228.217 167.088 229.111 167.473 230.295 167.473C231.474 167.473 232.362 167.091 232.959 166.327C233.563 165.563 233.864 164.426 233.864 162.916C233.864 161.427 233.565 160.298 232.968 159.529C232.376 158.76 231.49 158.375 230.312 158.375C229.122 158.375 228.222 158.76 227.614 159.529C227.011 160.298 226.709 161.427 226.709 162.916ZM246.614 160.533C246.614 161.8 246.199 162.772 245.369 163.447C244.539 164.122 243.358 164.459 241.825 164.459H240.563V169H238.579V156.864H242.074C243.59 156.864 244.724 157.174 245.477 157.794C246.235 158.414 246.614 159.327 246.614 160.533ZM240.563 162.791H241.617C242.635 162.791 243.382 162.614 243.858 162.26C244.334 161.906 244.572 161.352 244.572 160.6C244.572 159.902 244.359 159.382 243.933 159.039C243.507 158.696 242.843 158.524 241.941 158.524H240.563V162.791ZM259.812 162.916C259.812 164.891 259.317 166.427 258.327 167.522C257.342 168.618 255.944 169.166 254.135 169.166C252.303 169.166 250.895 168.624 249.91 167.539C248.93 166.449 248.44 164.902 248.44 162.899C248.44 160.896 248.933 159.357 249.918 158.284C250.909 157.21 252.32 156.673 254.151 156.673C255.955 156.673 257.35 157.218 258.335 158.309C259.32 159.399 259.812 160.934 259.812 162.916ZM250.549 162.916C250.549 164.41 250.85 165.544 251.454 166.319C252.057 167.088 252.951 167.473 254.135 167.473C255.313 167.473 256.202 167.091 256.799 166.327C257.403 165.563 257.704 164.426 257.704 162.916C257.704 161.427 257.405 160.298 256.808 159.529C256.215 158.76 255.33 158.375 254.151 158.375C252.962 158.375 252.062 158.76 251.454 159.529C250.85 160.298 250.549 161.427 250.549 162.916ZM269.284 169H262.419V156.864H269.284V158.541H264.403V161.845H268.977V163.505H264.403V167.315H269.284V169ZM276.331 156.864H279.934C281.605 156.864 282.811 157.108 283.553 157.595C284.3 158.082 284.673 158.851 284.673 159.902C284.673 160.611 284.491 161.2 284.125 161.67C283.76 162.141 283.235 162.437 282.548 162.559V162.642C283.401 162.802 284.026 163.12 284.424 163.596C284.828 164.067 285.03 164.706 285.03 165.514C285.03 166.604 284.648 167.459 283.885 168.079C283.127 168.693 282.07 169 280.714 169H276.331V156.864ZM278.315 161.878H280.224C281.054 161.878 281.66 161.748 282.042 161.488C282.424 161.222 282.615 160.774 282.615 160.143C282.615 159.573 282.407 159.161 281.992 158.906C281.583 158.652 280.93 158.524 280.033 158.524H278.315V161.878ZM278.315 163.488V167.332H280.423C281.253 167.332 281.879 167.174 282.299 166.858C282.725 166.537 282.938 166.034 282.938 165.348C282.938 164.717 282.723 164.249 282.291 163.945C281.859 163.64 281.204 163.488 280.324 163.488H278.315ZM292.717 158.392C291.577 158.392 290.68 158.796 290.027 159.604C289.374 160.411 289.048 161.527 289.048 162.949C289.048 164.437 289.361 165.563 289.986 166.327C290.617 167.091 291.527 167.473 292.717 167.473C293.231 167.473 293.729 167.423 294.211 167.323C294.692 167.218 295.193 167.085 295.713 166.925V168.626C294.762 168.986 293.682 169.166 292.476 169.166C290.7 169.166 289.336 168.629 288.384 167.556C287.432 166.477 286.956 164.935 286.956 162.932C286.956 161.67 287.186 160.566 287.645 159.62C288.11 158.674 288.779 157.949 289.654 157.445C290.528 156.942 291.555 156.69 292.733 156.69C293.973 156.69 295.118 156.95 296.17 157.47L295.456 159.122C295.047 158.928 294.612 158.76 294.153 158.616C293.699 158.466 293.22 158.392 292.717 158.392ZM305.193 169H298.328V156.864H305.193V158.541H300.312V161.845H304.886V163.505H300.312V167.315H305.193V169ZM315.029 156.864V158.566H309.808V169H307.824V156.864H315.029ZM315.502 167.298H316.44C317.243 165.832 317.915 164.186 318.458 162.359C319 160.533 319.348 158.701 319.503 156.864H325.771V167.298H327.339V172.345H325.43V169H317.412V172.345H315.502V167.298ZM321.164 158.583C321.042 159.839 320.732 161.297 320.234 162.957C319.736 164.612 319.169 166.059 318.532 167.298H323.787V158.583H321.164ZM336.835 169L335.624 165.63H330.983L329.796 169H327.705L332.245 156.814H334.403L338.944 169H336.835ZM335.101 163.92L333.963 160.616C333.88 160.395 333.764 160.046 333.615 159.57C333.471 159.094 333.371 158.746 333.316 158.524C333.167 159.205 332.948 159.949 332.66 160.757L331.564 163.92H335.101ZM350.125 158.392C348.985 158.392 348.089 158.796 347.436 159.604C346.783 160.411 346.456 161.527 346.456 162.949C346.456 164.437 346.769 165.563 347.394 166.327C348.025 167.091 348.935 167.473 350.125 167.473C350.64 167.473 351.138 167.423 351.619 167.323C352.101 167.218 352.601 167.085 353.122 166.925V168.626C352.17 168.986 351.091 169.166 349.884 169.166C348.108 169.166 346.744 168.629 345.792 167.556C344.84 166.477 344.364 164.935 344.364 162.932C344.364 161.67 344.594 160.566 345.053 159.62C345.518 158.674 346.188 157.949 347.062 157.445C347.936 156.942 348.963 156.69 350.142 156.69C351.381 156.69 352.527 156.95 353.578 157.47L352.864 159.122C352.455 158.928 352.02 158.76 351.561 158.616C351.107 158.466 350.629 158.392 350.125 158.392ZM364.344 169H362.36V158.566H358.791V156.864H367.914V158.566H364.344V169ZM380.556 162.916C380.556 164.891 380.06 166.427 379.07 167.522C378.085 168.618 376.688 169.166 374.878 169.166C373.046 169.166 371.638 168.624 370.653 167.539C369.673 166.449 369.184 164.902 369.184 162.899C369.184 160.896 369.676 159.357 370.661 158.284C371.652 157.21 373.063 156.673 374.895 156.673C376.699 156.673 378.093 157.218 379.078 158.309C380.063 159.399 380.556 160.934 380.556 162.916ZM371.292 162.916C371.292 164.41 371.594 165.544 372.197 166.319C372.8 167.088 373.694 167.473 374.878 167.473C376.057 167.473 376.945 167.091 377.542 166.327C378.146 165.563 378.447 164.426 378.447 162.916C378.447 161.427 378.148 160.298 377.551 159.529C376.959 158.76 376.073 158.375 374.895 158.375C373.705 158.375 372.806 158.76 372.197 159.529C371.594 160.298 371.292 161.427 371.292 162.916ZM391.372 165.348C391.372 167.783 389.811 169 386.69 169H383.162V156.864H390.566V158.566H385.146V161.795H386.59C389.778 161.795 391.372 162.979 391.372 165.348ZM385.146 167.332H386.574C387.526 167.332 388.223 167.177 388.666 166.867C389.108 166.551 389.33 166.045 389.33 165.348C389.33 164.678 389.105 164.197 388.657 163.903C388.215 163.604 387.44 163.455 386.333 163.455H385.146V167.332ZM404.562 162.916C404.562 164.891 404.066 166.427 403.076 167.522C402.091 168.618 400.693 169.166 398.884 169.166C397.052 169.166 395.644 168.624 394.659 167.539C393.679 166.449 393.189 164.902 393.189 162.899C393.189 160.896 393.682 159.357 394.667 158.284C395.658 157.21 397.069 156.673 398.9 156.673C400.704 156.673 402.099 157.218 403.084 158.309C404.069 159.399 404.562 160.934 404.562 162.916ZM395.298 162.916C395.298 164.41 395.599 165.544 396.203 166.319C396.806 167.088 397.7 167.473 398.884 167.473C400.062 167.473 400.951 167.091 401.548 166.327C402.152 165.563 402.453 164.426 402.453 162.916C402.453 161.427 402.154 160.298 401.557 159.529C400.965 158.76 400.079 158.375 398.9 158.375C397.711 158.375 396.811 158.76 396.203 159.529C395.599 160.298 395.298 161.427 395.298 162.916ZM407.168 156.864H408.986V163.173C408.986 163.831 408.969 164.498 408.936 165.173C408.903 165.843 408.878 166.297 408.861 166.535H408.936L415.137 156.864H417.453V169H415.626V162.741C415.626 161.784 415.679 160.622 415.784 159.255H415.718L409.492 169H407.168V156.864ZM412.373 155.893C411.199 155.893 410.339 155.683 409.791 155.262C409.249 154.836 408.947 154.128 408.886 153.137H410.654C410.688 153.536 410.762 153.846 410.878 154.067C411 154.288 411.172 154.449 411.393 154.548C411.62 154.642 411.963 154.689 412.422 154.689C412.965 154.689 413.377 154.57 413.659 154.333C413.941 154.089 414.113 153.691 414.174 153.137H415.975C415.892 154.089 415.557 154.786 414.971 155.229C414.384 155.672 413.518 155.893 412.373 155.893Z" fill="#F5F8FA"/>
<path d="M56.4187 231.863C56.4187 224.022 56.4187 220.102 57.9446 217.107C59.2868 214.473 61.4286 212.331 64.0628 210.989C67.0576 209.463 70.978 209.463 78.8187 209.463H251.019C258.859 209.463 262.78 209.463 265.775 210.989C268.409 212.331 270.551 214.473 271.893 217.107C273.419 220.102 273.419 224.022 273.419 231.863V235.063C273.419 242.903 273.419 246.824 271.893 249.819C270.551 252.453 268.409 254.595 265.775 255.937C262.78 257.463 258.859 257.463 251.019 257.463H78.8187C70.978 257.463 67.0576 257.463 64.0628 255.937C61.4286 254.595 59.2868 252.453 57.9446 249.819C56.4187 246.824 56.4187 242.903 56.4187 235.063V231.863Z" fill="#FDB719"/>
<path d="M124.24 239.463H121.977V230.644H118.037V239.463H115.766V228.755H124.24V239.463ZM128.547 235.354C128.547 236.164 128.679 236.777 128.943 237.192C129.211 237.607 129.646 237.815 130.246 237.815C130.842 237.815 131.269 237.61 131.528 237.199C131.792 236.784 131.924 236.169 131.924 235.354C131.924 234.543 131.792 233.935 131.528 233.53C131.264 233.125 130.832 232.922 130.232 232.922C129.636 232.922 129.206 233.125 128.943 233.53C128.679 233.93 128.547 234.538 128.547 235.354ZM134.209 235.354C134.209 236.687 133.857 237.729 133.154 238.481C132.451 239.233 131.472 239.609 130.217 239.609C129.431 239.609 128.738 239.438 128.137 239.096C127.536 238.75 127.075 238.254 126.753 237.61C126.43 236.965 126.269 236.213 126.269 235.354C126.269 234.016 126.618 232.976 127.317 232.234C128.015 231.491 128.996 231.12 130.261 231.12C131.047 231.12 131.74 231.291 132.341 231.633C132.942 231.975 133.403 232.466 133.725 233.105C134.048 233.745 134.209 234.494 134.209 235.354ZM141.181 237.829V232.951H139.504C139.382 233.86 139.214 234.721 138.999 235.537C138.789 236.352 138.496 237.116 138.12 237.829H141.181ZM144.616 242.4H142.61V239.463H137.102V242.4H135.095V237.829H135.783C136.252 237.102 136.645 236.184 136.963 235.075C137.28 233.967 137.502 232.7 137.629 231.274H143.415V237.829H144.616V242.4ZM151.384 231.274H153.845L150.6 235.2L154.131 239.463H151.596L148.249 235.31V239.463H146.015V231.274H148.249V235.251L151.384 231.274ZM162.634 239.463H160.4V232.951H158.342C158.186 234.782 157.995 236.15 157.771 237.053C157.546 237.951 157.246 238.603 156.87 239.009C156.499 239.409 156.01 239.609 155.405 239.609C154.887 239.609 154.463 239.531 154.131 239.375V237.588C154.37 237.685 154.609 237.734 154.848 237.734C155.127 237.734 155.359 237.534 155.544 237.134C155.735 236.733 155.903 236.067 156.05 235.134C156.201 234.197 156.33 232.91 156.438 231.274H162.634V239.463ZM176.294 235.354C176.294 236.697 175.954 237.741 175.276 238.489C174.597 239.236 173.657 239.609 172.456 239.609C171.377 239.609 170.512 239.306 169.863 238.701C169.219 238.095 168.828 237.224 168.691 236.086H167.219V239.463H164.985V231.274H167.219V234.424H168.72C168.862 233.379 169.265 232.568 169.929 231.992C170.598 231.411 171.455 231.12 172.5 231.12C173.657 231.12 174.577 231.501 175.261 232.263C175.949 233.02 176.294 234.05 176.294 235.354ZM170.94 235.354C170.94 236.169 171.059 236.784 171.299 237.199C171.538 237.61 171.933 237.815 172.485 237.815C173.027 237.815 173.418 237.61 173.657 237.199C173.896 236.784 174.016 236.169 174.016 235.354C174.016 234.538 173.894 233.93 173.65 233.53C173.41 233.125 173.017 232.922 172.47 232.922C171.928 232.922 171.538 233.125 171.299 233.53C171.059 233.935 170.94 234.543 170.94 235.354ZM180.102 231.274V234.27C180.102 234.983 180.432 235.339 181.091 235.339C181.521 235.339 181.919 235.29 182.285 235.193C182.656 235.095 183.03 234.968 183.406 234.812V231.274H185.639V239.463H183.406V236.211C182.888 236.484 182.407 236.677 181.963 236.789C181.518 236.902 181.089 236.958 180.674 236.958C179.78 236.958 179.089 236.731 178.601 236.277C178.113 235.818 177.868 235.166 177.868 234.321V231.274H180.102ZM190.144 231.274V234.511C190.144 234.853 190.088 235.688 189.975 237.016L193.755 231.274H196.443V239.463H194.282V236.196C194.282 235.615 194.331 234.795 194.428 233.735L190.664 239.463H187.983V231.274H190.144ZM205.569 231.274V232.951H202.888V239.463H200.654V232.951H197.966V231.274H205.569ZM209.333 234.438H210.908C212.168 234.438 213.1 234.638 213.706 235.039C214.311 235.439 214.614 236.045 214.614 236.855C214.614 238.594 213.408 239.463 210.996 239.463H207.099V231.274H209.333V234.438ZM212.38 236.885C212.38 236.567 212.253 236.338 211.999 236.196C211.745 236.054 211.367 235.984 210.864 235.984H209.333V237.917H210.893C211.885 237.917 212.38 237.573 212.38 236.885Z" fill="#333333"/>
<ellipse cx="12.7496" cy="332.044" rx="19.7722" ry="20.0387" transform="rotate(42.5811 12.7496 332.044)" fill="#F5F8FA"/>
<ellipse cx="35.6692" cy="305.746" rx="10.8677" ry="10.2311" transform="rotate(-53.3192 35.6692 305.746)" fill="url(#paint2_radial)"/>
<ellipse cx="48.6071" cy="322.289" rx="11.516" ry="10.4785" transform="rotate(-53.3192 48.6071 322.289)" fill="url(#paint3_radial)"/>
<path fill-rule="evenodd" clip-rule="evenodd" d="M52.0477 303.151C51.0618 302.189 49.2478 300.913 48.0159 300.316C46.7842 299.718 45.5329 298.819 45.2357 298.317C44.9382 297.814 43.8589 296.874 42.8368 296.227C36.172 292.007 26.9292 295.543 24.1513 303.376L23.5362 305.111L19.028 306.344C16.5487 307.022 12.3651 308.017 9.7312 308.553C4.02104 309.717 -0.407703 311.749 -3.76598 314.747C-10.7729 321.004 -13.2307 330.466 -10.4004 340.293C-7.93309 348.861 0.246738 355.541 9.58999 356.62C14.8557 357.228 18.8934 356.465 23.8282 353.931C28.3414 351.613 29.7833 350.326 35.1042 343.857C37.1134 341.415 39.9904 338.221 41.4975 336.76C44.1714 334.168 44.2801 334.107 45.9945 334.25C53.1048 334.842 59.4592 330.31 60.5924 323.839C61.1092 320.889 60.3174 317.182 58.8137 315.509C58.2602 314.892 57.4564 313.144 57.0282 311.623C56.0873 308.281 54.4497 305.496 52.0477 303.151ZM58.9485 321.102C59.2042 323.89 57.8316 327.222 55.5375 329.379C50.1184 334.476 40.7467 332.65 38.935 326.145C37.6932 321.684 39.6777 317.212 44.0628 314.592C50.4918 310.75 58.3118 314.17 58.9485 321.102ZM45.8085 305.962C45.6767 308.7 43.2351 312.66 40.7746 314.126C34.6306 317.787 26.6329 314.785 25.5148 308.398C24.8521 304.614 27.1771 300.071 30.9064 297.863C37.9756 293.678 46.1837 298.138 45.8085 305.962ZM46.613 317.649C43.2157 316.956 41.9085 321.221 44.9527 323.066C46.0162 323.71 47.8098 322.902 48.7463 321.358C49.4998 320.114 48.2767 317.988 46.613 317.649ZM38.0315 305.926C36.3333 305.492 34.3607 306.907 34.2826 308.618C34.2113 310.191 35.1869 311.287 36.85 311.501C38.3406 311.692 39.382 310.923 39.7902 309.33C40.2242 307.636 39.5411 306.314 38.0315 305.926ZM31.3162 331.513C31.8466 337.408 28.7196 342.81 22.7195 346.363L19.6972 348.152L8.68009 329.546C8.68009 329.546 8.63366 329.48 8.49839 329.561C6.334 330.859 6.06343 334.168 6.78337 336.587C6.99258 337.29 7.2861 337.942 7.60754 338.648C8.89096 341.071 10.0739 342.616 11.8913 344.245L14.4019 346.497L12.1802 348.953C10.8786 350.392 9.82794 351.356 9.82794 351.356C9.82794 351.356 8.10346 350.923 7.28919 350.565C6.36104 350.158 5.34424 349.684 4.30348 349.015C0.455825 346.544 -3.23938 340.943 -4.05716 336.341C-4.83107 331.987 -3.63419 326.706 -1.03953 323.028C0.68716 320.581 2.53927 319.125 4.71099 317.84C6.88271 316.554 9.10068 315.603 11.9714 315.277C21.7801 314.167 30.4061 321.406 31.3162 331.513ZM19.8875 326.688C18.4643 325.672 15.1283 325.401 14.9025 326.284C14.8399 326.527 15.8316 328.487 17.1062 330.64C19.3566 334.44 19.4529 334.535 20.4537 333.943C21.6768 333.218 22.3279 330.739 21.7553 328.984C21.5307 328.294 20.69 327.261 19.8875 326.688Z" fill="black"/>
<ellipse cx="83.1116" cy="354.163" rx="13.1539" ry="13.3312" transform="rotate(-17.421 83.1116 354.163)" fill="#F5F8FA"/>
<ellipse cx="75.5834" cy="332.211" rx="7.23002" ry="6.80648" transform="rotate(-113.321 75.5834 332.211)" fill="url(#paint4_radial)"/>
<ellipse cx="89.4185" cy="330.259" rx="7.66131" ry="6.97104" transform="rotate(-113.321 89.4185 330.259)" fill="url(#paint5_radial)"/>
<path fill-rule="evenodd" clip-rule="evenodd" d="M79.5358 321.911C78.6538 322.159 77.3152 322.78 76.5614 323.291C75.8073 323.802 74.8727 324.223 74.4847 324.228C74.0963 324.232 73.1954 324.541 72.4826 324.915C67.8346 327.351 66.7975 333.852 70.3864 338.058L71.1815 338.99L70.3926 341.997C69.9587 343.651 69.1401 346.393 68.5731 348.089C67.3443 351.765 67.0421 354.993 67.6527 357.925C68.9266 364.043 73.5611 368.607 80.1641 370.245C85.9211 371.673 92.4909 369.182 96.2201 364.158C98.3218 361.326 99.2254 358.746 99.407 355.06C99.5726 351.689 99.3104 350.43 97.3534 345.212C96.6144 343.243 95.7311 340.523 95.3905 339.168C94.7864 336.765 94.7876 336.683 95.44 335.742C98.1465 331.843 97.649 326.674 94.2974 323.869C92.7697 322.59 90.3705 321.813 88.9062 322.123C88.3669 322.237 87.0921 322.118 86.0736 321.859C83.835 321.29 81.6858 321.307 79.5358 321.911ZM92.1738 323.906C93.8653 324.686 95.3283 326.585 95.8081 328.624C96.9423 333.442 92.7731 338.234 88.4222 337.114C85.4391 336.346 83.5227 333.715 83.4715 330.317C83.3963 325.335 87.968 321.967 92.1738 323.906ZM79.0799 326.44C80.6137 327.427 82.0834 330.151 82.1096 332.056C82.1751 336.814 77.7853 340.423 73.7335 338.943C71.333 338.066 69.4891 335.216 69.4573 332.333C69.397 326.868 74.6972 323.622 79.0799 326.44ZM86.0811 329.864C84.5522 331.591 86.5745 333.763 88.6501 332.623C89.3749 332.224 89.5061 330.922 88.9276 329.869C88.4617 329.021 86.8298 329.018 86.0811 329.864ZM76.4728 330.909C75.6576 331.743 75.8171 333.351 76.7765 333.965C77.6593 334.529 78.6152 334.331 79.2915 333.444C79.8975 332.649 79.8011 331.793 79.0189 331.028C78.1871 330.215 77.198 330.168 76.4728 330.909ZM88.9812 343.289C92.5539 344.944 94.6263 348.543 94.6774 353.181L94.7032 355.518L80.3185 355.677C80.3185 355.677 82.146 358.769 83.8727 359.14C84.3046 359.233 84.7384 359.277 85.2059 359.322C87.029 359.389 88.3126 359.221 89.856 358.716L91.9881 358.018L92.6645 360.115C93.0607 361.344 93.2667 362.27 93.2667 362.27C93.2667 362.27 92.4434 363.119 91.9665 363.469C91.423 363.869 90.8116 364.297 90.0804 364.674C87.3767 366.069 82.9205 366.335 79.9973 365.276C77.2308 364.273 74.5865 361.827 73.3306 359.109C72.4947 357.3 72.2723 355.749 72.2538 354.07C72.2353 352.391 72.425 350.797 73.1924 349.034C75.8152 343.014 82.8551 340.452 88.9812 343.289ZM82.3998 348.269C81.3409 348.751 80.0756 350.583 80.5091 351.007C80.6282 351.124 82.0873 351.204 83.7515 351.186C86.6897 351.153 86.7765 351.129 86.7679 350.356C86.7575 349.41 85.5454 348.21 84.3437 347.956C83.8716 347.856 82.997 347.997 82.3998 348.269Z" fill="black"/>
<g opacity="0.23" filter="url(#filter1_f)">
<ellipse cx="6.90732" cy="410.779" rx="123.448" ry="125.466" transform="rotate(-4.00409 6.90732 410.779)" fill="#C4C4C4"/>
</g>
<defs>
<filter id="filter0_f" x="235.497" y="0.0664062" width="217.652" height="203.188" filterUnits="userSpaceOnUse" color-interpolation-filters="sRGB">
<feFlood flood-opacity="0" result="BackgroundImageFix"/>
<feBlend mode="normal" in="SourceGraphic" in2="BackgroundImageFix" result="shape"/>
<feGaussianBlur stdDeviation="30" result="effect1_foregroundBlur"/>
</filter>
<filter id="filter1_f" x="-176.555" y="225.319" width="366.926" height="370.922" filterUnits="userSpaceOnUse" color-interpolation-filters="sRGB">
<feFlood flood-opacity="0" result="BackgroundImageFix"/>
<feBlend mode="normal" in="SourceGraphic" in2="BackgroundImageFix" result="shape"/>
<feGaussianBlur stdDeviation="30" result="effect1_foregroundBlur"/>
</filter>
<radialGradient id="paint0_radial" cx="0" cy="0" r="1" gradientUnits="userSpaceOnUse" gradientTransform="translate(327.548 77.0275) rotate(-55.4895) scale(12.9494 13.7552)">
<stop offset="0.143626" stop-color="#FEDA36"/>
<stop offset="0.466677" stop-color="#F9C72A"/>
<stop offset="0.734055" stop-color="#EFB035"/>
<stop offset="0.855128" stop-color="#ED9944"/>
<stop offset="1" stop-color="#ED9944"/>
</radialGradient>
<radialGradient id="paint1_radial" cx="0" cy="0" r="1" gradientUnits="userSpaceOnUse" gradientTransform="translate(352.7 71.9518) rotate(90.6441) scale(12.3505 13.5734)">
<stop offset="0.274731" stop-color="#FEDA36"/>
<stop offset="0.553663" stop-color="#F9C72A"/>
<stop offset="0.767909" stop-color="#EFB035"/>
<stop offset="0.880208" stop-color="#ED9944"/>
</radialGradient>
<radialGradient id="paint2_radial" cx="0" cy="0" r="1" gradientUnits="userSpaceOnUse" gradientTransform="translate(34.6505 307.168) rotate(-55.4895) scale(11.3091 12.0128)">
<stop offset="0.143626" stop-color="#FEDA36"/>
<stop offset="0.466677" stop-color="#F9C72A"/>
<stop offset="0.734055" stop-color="#EFB035"/>
<stop offset="0.855128" stop-color="#ED9944"/>
<stop offset="1" stop-color="#ED9944"/>
</radialGradient>
<radialGradient id="paint3_radial" cx="0" cy="0" r="1" gradientUnits="userSpaceOnUse" gradientTransform="translate(48.7284 321.982) rotate(90.6441) scale(10.786 11.8541)">
<stop offset="0.274731" stop-color="#FEDA36"/>
<stop offset="0.553663" stop-color="#F9C72A"/>
<stop offset="0.767909" stop-color="#EFB035"/>
<stop offset="0.880208" stop-color="#ED9944"/>
</radialGradient>
<radialGradient id="paint4_radial" cx="0" cy="0" r="1" gradientUnits="userSpaceOnUse" gradientTransform="translate(74.9057 333.157) rotate(-55.4895) scale(7.52364 7.99181)">
<stop offset="0.143626" stop-color="#FEDA36"/>
<stop offset="0.466677" stop-color="#F9C72A"/>
<stop offset="0.734055" stop-color="#EFB035"/>
<stop offset="0.855128" stop-color="#ED9944"/>
<stop offset="1" stop-color="#ED9944"/>
</radialGradient>
<radialGradient id="paint5_radial" cx="0" cy="0" r="1" gradientUnits="userSpaceOnUse" gradientTransform="translate(89.4992 330.055) rotate(90.6441) scale(7.17565 7.88618)">
<stop offset="0.274731" stop-color="#FEDA36"/>
<stop offset="0.553663" stop-color="#F9C72A"/>
<stop offset="0.767909" stop-color="#EFB035"/>
<stop offset="0.880208" stop-color="#ED9944"/>
</radialGradient>
</defs>
</svg>
