<svg width="799" height="318" viewBox="0 0 799 318" fill="none" xmlns="http://www.w3.org/2000/svg">
<g filter="url(#filter0_f)">
<ellipse cx="539.543" cy="104.925" rx="14.4478" ry="14.6425" transform="rotate(-1.9615 539.543 104.925)" fill="#F5F8FA"/>
<ellipse cx="538.001" cy="79.4814" rx="7.94121" ry="7.47601" transform="rotate(-97.8618 538.001 79.4814)" fill="url(#paint0_radial)"/>
<ellipse cx="553.218" cy="81.466" rx="8.41493" ry="7.65676" transform="rotate(-97.8618 553.218 81.466)" fill="url(#paint1_radial)"/>
<path fill-rule="evenodd" clip-rule="evenodd" d="M545.201 69.7352C544.195 69.7396 542.596 70.0048 541.648 70.3253C540.7 70.6453 539.587 70.8181 539.175 70.709C538.763 70.5998 537.719 70.6631 536.855 70.85C531.221 72.0684 528.22 78.6474 530.788 84.1505L531.357 85.3694L529.641 88.3223C528.697 89.9464 527.028 92.6086 525.931 94.238C523.554 97.7707 522.289 101.099 522.077 104.382C521.634 111.232 525.204 117.42 531.715 121.087C537.391 124.284 545.076 123.571 550.495 119.344C553.549 116.961 555.26 114.495 556.532 110.646C557.694 107.125 557.785 105.716 557.241 99.6196C557.035 97.3177 556.897 94.1797 556.933 92.6462C556.997 89.9257 557.022 89.8383 557.988 89.0339C561.995 85.6982 562.981 80.081 560.255 76.1299C559.012 74.3287 556.7 72.804 555.059 72.7031C554.454 72.6658 553.14 72.1671 552.137 71.5947C549.934 70.3363 547.654 69.7252 545.201 69.7352ZM557.996 75.5471C559.558 76.8682 560.551 79.3069 560.462 81.6062C560.252 87.0383 554.435 90.8908 550.157 88.4312C547.224 86.7445 545.966 83.3985 546.906 79.7862C548.285 74.4901 554.111 72.2632 557.996 75.5471ZM543.392 74.3969C544.727 75.8905 545.485 79.2045 544.955 81.2291C543.632 86.2847 537.928 88.8205 534.072 86.0672C531.787 84.4362 530.67 80.8788 531.48 77.8173C533.017 72.0141 539.578 70.1302 543.392 74.3969ZM549.801 80.0712C547.677 81.452 549.182 84.343 551.713 83.7435C552.597 83.5339 553.118 82.1939 552.814 80.9094C552.568 79.8755 550.842 79.395 549.801 80.0712ZM539.324 78.3646C538.217 79.0087 537.915 80.7571 538.751 81.6878C539.52 82.5437 540.59 82.6144 541.566 81.8733C542.44 81.2089 542.588 80.2749 541.984 79.2359C541.342 78.1311 540.309 77.7925 539.324 78.3646ZM548.941 95.1322C552.239 97.9303 553.379 102.346 552.075 107.272L551.418 109.753L536.144 105.71C536.144 105.71 537.173 109.519 538.892 110.417C539.322 110.642 539.769 110.815 540.25 111C542.161 111.604 543.569 111.802 545.351 111.719L547.812 111.605L547.914 114.023C547.974 115.44 547.921 116.48 547.921 116.48C547.921 116.48 546.8 117.139 546.193 117.37C545.501 117.633 544.728 117.907 543.844 118.093C540.573 118.778 535.778 117.755 532.993 115.777C530.358 113.906 528.275 110.543 527.741 107.297C527.386 105.138 527.605 103.43 528.077 101.648C528.549 99.8647 529.216 98.2325 530.544 96.5916C535.084 90.986 543.287 90.3348 548.941 95.1322ZM540.516 98.4771C539.254 98.6773 537.378 100.246 537.713 100.822C537.805 100.98 539.326 101.493 541.093 101.961C544.213 102.787 544.312 102.787 544.529 101.965C544.795 100.961 543.863 99.3359 542.665 98.7152C542.195 98.4712 541.228 98.3642 540.516 98.4771Z" fill="black"/>
</g>
<g opacity="0.6" filter="url(#filter1_f)">
<rect x="618.827" y="117.3" width="99.392" height="58.4998" rx="29.2499" transform="rotate(-17.1455 618.827 117.3)" fill="#C4C4C4"/>
<path fill-rule="evenodd" clip-rule="evenodd" d="M616.163 84.2983C615.713 85.2592 616.022 86.3566 616.869 86.8046C617.221 86.991 625.642 89.6701 635.582 92.7582L653.656 98.3729L651.735 100.101C650.678 101.051 649.518 102.487 649.157 103.293L648.501 104.757L639.85 107.853C626.625 112.585 624.25 113.864 622.301 117.307C620.255 120.921 619.465 126.915 619.947 135.163C620.405 142.991 621.066 146.43 623.848 155.482C626.125 162.889 626.564 164.046 627.98 166.368C630.164 169.949 631.524 171.46 633.273 172.245C636.157 173.54 641.736 173.323 650.748 171.566C653.668 170.997 656.095 170.546 656.143 170.564C656.19 170.581 656.365 173.844 656.532 177.815C656.731 182.554 656.989 185.181 657.282 185.461C657.938 186.087 663.795 184.276 664.191 183.326C664.342 182.963 664.332 179.532 664.169 175.7L663.873 168.734L684.745 162.288L705.617 155.842L709.29 161.796C711.311 165.071 713.233 167.927 713.562 168.142C714.031 168.449 714.834 168.327 717.259 167.581C719.878 166.776 720.375 166.525 720.471 165.958C720.548 165.501 719.384 163.364 716.793 159.208C714.708 155.864 713.034 153.066 713.074 152.992C713.114 152.917 715.056 152.028 717.39 151.017C725.923 147.32 730.217 144.498 731.772 141.564C733.531 138.244 733.014 132.147 730.197 122.989C725.533 107.82 716.822 93.8755 709.862 90.436C707.384 89.2113 705.626 89.0769 701.261 89.7789C698.33 90.2505 686.995 93.0692 682.543 94.4337C679.504 95.3644 679.334 95.3774 678.674 94.7244C678.295 94.3486 677.298 93.8388 676.458 93.5917C674.707 93.0768 669.893 92.8768 668.626 93.2663C668.157 93.4107 667.743 93.4156 667.706 93.2771C667.67 93.1384 672.016 87.053 677.365 79.754C682.714 72.4546 687.109 66.2261 687.13 65.9129C687.151 65.5997 686.911 64.9925 686.595 64.5641C686.163 63.9777 685.753 63.8399 684.936 64.0068C683.977 64.2022 682.549 66.0083 672.734 79.4371C663.181 92.5064 661.425 94.7353 660.253 95.2821L658.887 95.918L638.402 89.5102C627.135 85.9857 617.604 83.1969 617.221 83.3124C616.838 83.4283 616.362 83.872 616.163 84.2983ZM684.674 100.679C689.618 99.6486 692.403 99.5302 693.937 100.285C699.47 103.006 706.12 113.971 710.205 127.111C712.4 134.17 712.929 137.488 712.428 141.045C712.032 143.854 709.088 146.241 701.747 149.706C696.907 151.991 665.798 161.923 657.616 163.796C649.183 165.727 643.848 166.226 640.565 165.39C637.373 164.578 634.482 159.372 631.704 149.437C629.082 140.055 628.158 131.911 628.982 125.446C629.763 119.317 630.991 117.896 637.963 115.057C642.293 113.293 680.341 101.582 684.674 100.679ZM716.084 104.668C718.525 105.023 720.143 107.532 719.659 110.212C719.269 112.372 717.952 113.713 715.469 114.476C713.469 115.091 712.039 114.958 710.371 114.001C709.437 113.465 709.172 113.051 708.626 111.276C707.911 108.952 708.155 107.892 709.711 106.543C710.934 105.484 714.495 104.436 716.084 104.668ZM719.329 118.009C721.021 118.34 721.945 120.787 721.03 122.513C719.281 125.815 713.984 125.353 713.698 121.875C713.502 119.497 716.48 117.453 719.329 118.009ZM722.935 128.793C724.617 129.684 725.035 131.041 724.192 132.874C723.619 134.12 723.376 134.31 721.713 134.822C720.143 135.304 719.691 135.295 718.676 134.758C717.763 134.274 717.386 133.808 717.065 132.765C716.456 130.785 717.367 129.445 719.836 128.686C721.418 128.199 721.84 128.214 722.935 128.793Z" fill="black"/>
</g>
<g opacity="0.6" filter="url(#filter2_f)">
<ellipse cx="672.766" cy="145.612" rx="13.9462" ry="14.1342" transform="rotate(-51.268 672.766 145.612)" fill="#F5F8FA"/>
<ellipse cx="653.174" cy="130.727" rx="7.6655" ry="7.21645" transform="rotate(-147.168 653.174 130.727)" fill="url(#paint2_radial)"/>
<ellipse cx="664.203" cy="120.838" rx="8.12277" ry="7.39092" transform="rotate(-147.168 664.203 120.838)" fill="url(#paint3_radial)"/>
<path fill-rule="evenodd" clip-rule="evenodd" d="M650.572 119.323C649.942 120.062 649.129 121.399 648.767 122.295C648.405 123.19 647.831 124.113 647.492 124.346C647.153 124.579 646.542 125.383 646.135 126.133C643.481 131.023 646.407 137.36 652.051 138.945L653.301 139.295L654.382 142.41C654.977 144.122 655.875 147.019 656.377 148.848C657.466 152.811 659.106 155.832 661.375 158.053C666.11 162.688 672.886 163.969 679.667 161.512C685.58 159.37 689.894 153.297 690.211 146.671C690.389 142.937 689.661 140.131 687.645 136.778C685.8 133.712 684.825 132.758 680.021 129.32C678.207 128.021 675.823 126.148 674.723 125.156C672.773 123.397 672.725 123.324 672.744 122.11C672.824 117.079 669.334 112.821 664.726 112.33C662.626 112.106 660.055 112.839 658.948 113.976C658.54 114.395 657.348 115.044 656.298 115.417C653.99 116.237 652.108 117.522 650.572 119.323ZM662.878 113.617C664.828 113.305 667.238 114.113 668.865 115.625C672.708 119.198 671.867 125.879 667.374 127.462C664.294 128.547 661.053 127.363 659.001 124.401C655.993 120.058 658.03 114.393 662.878 113.617ZM652.845 123.581C654.778 123.544 657.681 125.075 658.829 126.737C661.696 130.887 659.962 136.658 655.52 137.747C652.889 138.393 649.582 136.972 647.851 134.452C644.571 129.675 647.322 123.687 652.845 123.581ZM661.032 122.461C660.705 124.885 663.769 125.603 664.923 123.373C665.326 122.594 664.672 121.37 663.541 120.784C662.63 120.313 661.192 121.274 661.032 122.461ZM653.188 129.056C652.963 130.271 654.053 131.592 655.26 131.566C656.371 131.542 657.096 130.804 657.167 129.623C657.231 128.565 656.641 127.869 655.501 127.657C654.288 127.431 653.389 127.975 653.188 129.056ZM671.513 132.57C675.637 131.918 679.586 133.862 682.371 137.917L683.773 139.959L671.2 148.593C671.2 148.593 674.636 150.238 676.376 149.545C676.811 149.371 677.218 149.153 677.657 148.917C679.301 147.899 680.333 146.994 681.393 145.637L682.859 143.764L684.693 145.211C685.767 146.059 686.495 146.753 686.495 146.753C686.495 146.753 686.272 147.987 686.059 148.577C685.816 149.249 685.531 149.987 685.109 150.752C683.552 153.576 679.786 156.442 676.586 157.235C673.558 157.986 669.785 157.394 667.074 155.742C665.27 154.643 664.158 153.408 663.15 151.941C662.142 150.473 661.368 148.958 661.003 146.953C659.757 140.102 664.443 133.689 671.513 132.57ZM668.659 140.841C668.011 141.891 667.979 144.252 668.611 144.369C668.784 144.401 670.117 143.611 671.571 142.612C674.139 140.848 674.202 140.776 673.737 140.099C673.17 139.273 671.394 138.932 670.186 139.418C669.711 139.609 669.024 140.249 668.659 140.841Z" fill="black"/>
</g>
<g opacity="0.6" filter="url(#filter3_f)">
<ellipse cx="618.009" cy="254.998" rx="17.3863" ry="17.6207" transform="rotate(14.8687 618.009 254.998)" fill="#F5F8FA"/>
<ellipse cx="625.098" cy="225.153" rx="9.55637" ry="8.99655" transform="rotate(-81.0316 625.098 225.153)" fill="url(#paint4_radial)"/>
<ellipse cx="641.934" cy="232.741" rx="10.1264" ry="9.21407" transform="rotate(-81.0316 641.934 232.741)" fill="url(#paint5_radial)"/>
<path fill-rule="evenodd" clip-rule="evenodd" d="M636.787 216.435C635.626 216.09 633.692 215.838 632.489 215.877C631.286 215.916 629.944 215.727 629.507 215.458C629.07 215.188 627.845 214.897 626.785 214.812C619.871 214.252 614.122 220.784 615.162 228.018L615.393 229.62L612.388 232.423C610.735 233.965 607.885 236.45 606.054 237.945C602.084 241.186 599.468 244.579 598.08 248.286C595.183 256.022 597.139 264.393 603.361 270.885C608.785 276.546 617.885 278.402 625.599 275.421C629.947 273.741 632.778 271.496 635.584 267.506C638.149 263.856 638.745 262.264 640.242 255.053C640.808 252.33 641.741 248.667 642.317 246.913C643.339 243.802 643.398 243.71 644.791 243.12C650.569 240.674 653.662 234.547 651.898 229.046C651.094 226.538 648.962 223.977 647.107 223.289C646.424 223.035 645.083 222.003 644.128 220.994C642.029 218.777 639.615 217.279 636.787 216.435ZM649.499 227.588C650.839 229.654 651.132 232.809 650.229 235.426C648.094 241.61 640.052 244.021 635.981 239.697C633.191 236.732 632.907 232.44 635.249 228.607C638.683 222.987 646.169 222.452 649.499 227.588ZM633.079 221.175C634.096 223.36 633.815 227.442 632.499 229.589C629.213 234.951 621.759 235.885 618.277 231.37C616.214 228.695 616.166 224.208 618.167 220.964C621.958 214.815 630.172 214.931 633.079 221.175ZM638.484 229.944C635.557 230.794 636.283 234.649 639.407 234.84C640.498 234.906 641.564 233.544 641.662 231.959C641.74 230.682 639.918 229.527 638.484 229.944ZM627.01 224.327C625.511 224.683 624.554 226.592 625.193 227.956C625.78 229.209 626.988 229.664 628.37 229.15C629.609 228.689 630.105 227.665 629.771 226.258C629.416 224.762 628.344 224.012 627.01 224.327ZM632.246 246.992C635.069 251.364 634.844 256.848 631.626 262.067L630.005 264.696L613.82 254.717C613.82 254.717 613.678 259.463 615.345 261.097C615.762 261.505 616.216 261.86 616.707 262.241C618.697 263.602 620.249 264.322 622.331 264.847L625.206 265.573L624.481 268.394C624.056 270.046 623.632 271.226 623.632 271.226C623.632 271.226 622.112 271.594 621.332 271.649C620.443 271.711 619.458 271.758 618.374 271.663C614.368 271.312 609.201 268.463 606.683 265.215C604.3 262.142 603.072 257.542 603.588 253.618C603.932 251.006 604.778 249.116 605.943 247.227C607.108 245.338 608.446 243.69 610.547 242.263C617.729 237.388 627.404 239.496 632.246 246.992ZM621.376 247.909C619.852 247.7 617.145 248.854 617.33 249.633C617.381 249.848 618.954 250.968 620.827 252.123C624.133 254.161 624.246 254.196 624.783 253.325C625.439 252.261 624.932 250.065 623.769 248.932C623.312 248.487 622.235 248.027 621.376 247.909Z" fill="black"/>
</g>
<g opacity="0.6" filter="url(#filter4_f)">
<rect x="84.5312" y="130.428" width="121.951" height="100.059" rx="33" transform="rotate(-18.1996 84.5312 130.428)" fill="#C4C4C4"/>
<path fill-rule="evenodd" clip-rule="evenodd" d="M156.56 44.8362C154.324 47.2201 154.154 51.9218 156.226 54.1319C156.805 54.7499 155.248 59.2042 148.656 75.7807L140.355 96.6512L136.213 97.7424L132.07 98.833L112.487 87.7182C95.5552 78.1082 92.7405 76.3223 91.7028 74.5314C88.8101 69.5391 81.1633 70.474 79.5343 76.0198C78.0389 81.1099 82.3796 85.9753 87.2508 84.67C88.3215 84.3831 92.4476 86.3294 105.528 93.2921C114.821 98.238 122.289 102.478 122.127 102.714C121.963 102.951 120.371 103.975 118.589 104.991C114.108 107.544 110.128 111.495 109.192 114.319C108.751 115.648 107.877 116.916 107.141 117.297C101.959 119.971 96.3299 123.719 92.603 126.975C89.0572 130.073 87.6095 131.847 85.047 136.236C78.5817 147.309 78.7161 157.656 85.6296 181.115C89.31 193.602 91.2048 197.889 95.9823 204.545C101.966 212.88 111.23 219.171 121.324 221.751L124.312 222.515L124.37 234.223C124.441 248.827 124.501 249.59 125.609 249.937C126.087 250.086 128.426 249.69 130.807 249.057C134.169 248.163 135.324 247.632 135.976 246.683C136.586 245.796 136.781 242.579 136.688 234.954C136.617 229.175 136.615 224.328 136.682 224.181C136.749 224.035 139.276 223.805 142.298 223.671C150.356 223.314 154.057 222.819 164.195 220.748C177.186 218.093 193.111 212.625 203.618 207.211C204.076 206.975 205.811 209.546 209.348 215.7C212.138 220.554 214.947 224.865 215.589 225.281C216.561 225.908 217.537 225.826 221.395 224.792C224.763 223.89 226.148 223.296 226.458 222.622C226.794 221.891 225.6 219.427 220.808 210.97C217.465 205.072 214.789 200.167 214.86 200.07C214.931 199.974 216.431 198.575 218.193 196.963C230.21 185.964 235.23 171.304 233.033 153.621C232.359 148.198 227.289 129.227 224.991 123.53C217.414 104.748 205.462 97.3987 183.022 97.7223C179.565 97.7722 174.159 98.1785 171.009 98.6249C165.618 99.3897 165.113 99.3562 162.449 98.0617C160.891 97.3052 157.724 96.4879 155.409 96.2454C153.095 96.0027 151.098 95.7669 150.972 95.7209C150.432 95.5254 164.958 57.0559 166.638 54.2327C168.82 50.5649 168.883 48.1122 166.861 45.4949C164.42 42.3332 159.221 42.0009 156.56 44.8362ZM167.866 112.341C189.083 109.871 200.471 113.828 207.864 126.238C209.142 128.383 210.452 132.155 213.084 141.265C217.327 155.949 217.923 161.31 216.254 169.76C214.802 177.119 210.564 184.281 204.532 189.574C199.892 193.646 193.562 197.52 186.419 200.658C180.679 203.18 159.17 208.944 152.928 209.634C138.457 211.231 127.256 209.354 118.843 203.92C114.045 200.821 110.881 197.483 107.359 191.801C104.86 187.77 104.374 186.5 101.338 176.051C98.7354 167.099 97.9302 163.564 97.5464 159.403C96.5372 148.475 99.3792 141.143 107.272 134.311C113.564 128.864 118.959 126.089 134.918 120.092C139.572 118.343 162.359 112.983 167.866 112.341Z" fill="black"/>
<ellipse cx="163.765" cy="177.779" rx="16.0018" ry="16.2175" transform="rotate(-35.4049 163.765 177.779)" fill="#F5F8FA"/>
<ellipse cx="146.809" cy="155.206" rx="8.79537" ry="8.28013" transform="rotate(-131.305 146.809 155.206)" fill="url(#paint6_radial)"/>
<ellipse cx="162.084" cy="147.752" rx="9.32004" ry="8.48032" transform="rotate(-131.305 162.084 147.752)" fill="url(#paint7_radial)"/>
<path fill-rule="evenodd" clip-rule="evenodd" d="M147.514 141.804C146.587 142.423 145.271 143.644 144.591 144.518C143.91 145.392 142.987 146.231 142.54 146.382C142.092 146.533 141.165 147.229 140.481 147.929C136.018 152.494 137.26 160.406 142.992 163.924L144.262 164.704L144.479 168.48C144.598 170.557 144.681 174.036 144.662 176.211C144.621 180.927 145.483 184.775 147.291 187.939C151.063 194.539 158.14 198.079 166.395 197.494C173.593 196.984 180.259 191.634 182.687 184.42C184.055 180.354 184.131 177.03 182.957 172.697C181.882 168.734 181.106 167.375 176.882 162.074C175.287 160.072 173.244 157.256 172.341 155.817C170.739 153.264 170.71 153.168 171.111 151.835C172.778 146.306 170.261 140.513 165.33 138.525C163.082 137.619 160.014 137.622 158.436 138.53C157.855 138.864 156.335 139.206 155.059 139.289C152.255 139.471 149.775 140.298 147.514 141.804ZM162.886 139.366C165.136 139.633 167.543 141.281 168.864 143.46C171.985 148.608 168.961 155.719 163.506 156.057C159.766 156.289 156.561 153.965 155.225 150.052C153.267 144.316 157.292 138.702 162.886 139.366ZM148.688 147.217C150.833 147.782 153.557 150.382 154.303 152.577C156.165 158.057 152.442 163.882 147.198 163.691C144.091 163.578 140.887 160.973 139.767 157.649C137.644 151.348 142.558 145.602 148.688 147.217ZM158.075 148.548C156.954 151.121 160.11 152.874 162.083 150.775C162.772 150.042 162.435 148.486 161.37 147.485C160.512 146.679 158.623 147.289 158.075 148.548ZM147.35 153.367C146.72 154.638 147.508 156.438 148.849 156.788C150.082 157.109 151.114 156.521 151.563 155.241C151.966 154.093 151.533 153.14 150.34 152.548C149.072 151.919 147.911 152.237 147.35 153.367ZM166.473 162.993C171.228 163.566 174.978 166.951 176.779 172.299L177.686 174.993L161.102 180.58C161.102 180.58 164.378 183.472 166.515 183.253C167.05 183.198 167.568 183.085 168.126 182.962C170.261 182.354 171.683 181.678 173.279 180.514L175.484 178.906L177.054 181.078C177.974 182.351 178.56 183.345 178.56 183.345C178.56 183.345 177.927 184.637 177.507 185.222C177.028 185.888 176.481 186.613 175.777 187.324C173.172 189.953 168.116 191.935 164.336 191.807C160.758 191.686 156.78 189.849 154.306 187.176C152.659 185.396 151.819 183.685 151.167 181.75C150.515 179.814 150.136 177.898 150.362 175.571C151.135 167.619 158.319 162.011 166.473 162.993ZM160.728 171.227C159.684 172.182 158.908 174.777 159.568 175.105C159.75 175.195 161.469 174.74 163.387 174.094C166.775 172.953 166.866 172.893 166.566 172.001C166.199 170.91 164.345 169.977 162.86 170.135C162.276 170.197 161.317 170.688 160.728 171.227Z" fill="black"/>
</g>
<g opacity="0.23" filter="url(#filter5_f)">
<ellipse cx="155.01" cy="161.529" rx="88.4733" ry="89.9194" transform="rotate(-4.00409 155.01 161.529)" fill="#C4C4C4"/>
</g>
<g opacity="0.1" filter="url(#filter6_f)">
<ellipse cx="667.966" cy="131.973" rx="66.4146" ry="67.5002" transform="rotate(-4.00409 667.966 131.973)" fill="#C4C4C4"/>
</g>
<g opacity="0.1" filter="url(#filter7_f)">
<ellipse cx="546.842" cy="100.293" rx="29.7995" ry="30.2866" transform="rotate(-15 546.842 100.293)" fill="#C4C4C4"/>
</g>
<defs>
<filter id="filter0_f" x="514.163" y="61.75" width="55.9308" height="69.2722" filterUnits="userSpaceOnUse" color-interpolation-filters="sRGB">
<feFlood flood-opacity="0" result="BackgroundImageFix"/>
<feBlend mode="normal" in="SourceGraphic" in2="BackgroundImageFix" result="shape"/>
<feGaussianBlur stdDeviation="2" result="effect1_foregroundBlur"/>
</filter>
<filter id="filter1_f" x="599" y="51" width="146.622" height="145.827" filterUnits="userSpaceOnUse" color-interpolation-filters="sRGB">
<feFlood flood-opacity="0" result="BackgroundImageFix"/>
<feBlend mode="normal" in="SourceGraphic" in2="BackgroundImageFix" result="shape"/>
<feGaussianBlur stdDeviation="2" result="effect1_foregroundBlur"/>
</filter>
<filter id="filter2_f" x="635.342" y="103.205" width="65.6017" height="70.2801" filterUnits="userSpaceOnUse" color-interpolation-filters="sRGB">
<feFlood flood-opacity="0" result="BackgroundImageFix"/>
<feBlend mode="normal" in="SourceGraphic" in2="BackgroundImageFix" result="shape"/>
<feGaussianBlur stdDeviation="2" result="effect1_foregroundBlur"/>
</filter>
<filter id="filter3_f" x="584.828" y="203.243" width="78.2671" height="85.6387" filterUnits="userSpaceOnUse" color-interpolation-filters="sRGB">
<feFlood flood-opacity="0" result="BackgroundImageFix"/>
<feBlend mode="normal" in="SourceGraphic" in2="BackgroundImageFix" result="shape"/>
<feGaussianBlur stdDeviation="2" result="effect1_foregroundBlur"/>
</filter>
<filter id="filter4_f" x="52" y="28" width="202.599" height="231.83" filterUnits="userSpaceOnUse" color-interpolation-filters="sRGB">
<feFlood flood-opacity="0" result="BackgroundImageFix"/>
<feBlend mode="normal" in="SourceGraphic" in2="BackgroundImageFix" result="shape"/>
<feGaussianBlur stdDeviation="2" result="effect1_foregroundBlur"/>
</filter>
<filter id="filter5_f" x="0.473633" y="5.65088" width="309.072" height="311.756" filterUnits="userSpaceOnUse" color-interpolation-filters="sRGB">
<feFlood flood-opacity="0" result="BackgroundImageFix"/>
<feBlend mode="normal" in="SourceGraphic" in2="BackgroundImageFix" result="shape"/>
<feGaussianBlur stdDeviation="30" result="effect1_foregroundBlur"/>
</filter>
<filter id="filter6_f" x="537" y="0" width="261.932" height="263.946" filterUnits="userSpaceOnUse" color-interpolation-filters="sRGB">
<feFlood flood-opacity="0" result="BackgroundImageFix"/>
<feBlend mode="normal" in="SourceGraphic" in2="BackgroundImageFix" result="shape"/>
<feGaussianBlur stdDeviation="30" result="effect1_foregroundBlur"/>
</filter>
<filter id="filter7_f" x="450.219" y="3.32617" width="193.246" height="193.935" filterUnits="userSpaceOnUse" color-interpolation-filters="sRGB">
<feFlood flood-opacity="0" result="BackgroundImageFix"/>
<feBlend mode="normal" in="SourceGraphic" in2="BackgroundImageFix" result="shape"/>
<feGaussianBlur stdDeviation="30" result="effect1_foregroundBlur"/>
</filter>
<radialGradient id="paint0_radial" cx="0" cy="0" r="1" gradientUnits="userSpaceOnUse" gradientTransform="translate(537.257 80.5203) rotate(-55.4895) scale(8.26372 8.77794)">
<stop offset="0.143626" stop-color="#FEDA36"/>
<stop offset="0.466677" stop-color="#F9C72A"/>
<stop offset="0.734055" stop-color="#EFB035"/>
<stop offset="0.855128" stop-color="#ED9944"/>
<stop offset="1" stop-color="#ED9944"/>
</radialGradient>
<radialGradient id="paint1_radial" cx="0" cy="0" r="1" gradientUnits="userSpaceOnUse" gradientTransform="translate(553.307 81.2417) rotate(90.6441) scale(7.8815 8.66192)">
<stop offset="0.274731" stop-color="#FEDA36"/>
<stop offset="0.553663" stop-color="#F9C72A"/>
<stop offset="0.767909" stop-color="#EFB035"/>
<stop offset="0.880208" stop-color="#ED9944"/>
</radialGradient>
<radialGradient id="paint2_radial" cx="0" cy="0" r="1" gradientUnits="userSpaceOnUse" gradientTransform="translate(652.455 131.729) rotate(-55.4895) scale(7.97681 8.47317)">
<stop offset="0.143626" stop-color="#FEDA36"/>
<stop offset="0.466677" stop-color="#F9C72A"/>
<stop offset="0.734055" stop-color="#EFB035"/>
<stop offset="0.855128" stop-color="#ED9944"/>
<stop offset="1" stop-color="#ED9944"/>
</radialGradient>
<radialGradient id="paint3_radial" cx="0" cy="0" r="1" gradientUnits="userSpaceOnUse" gradientTransform="translate(664.289 120.622) rotate(90.6441) scale(7.60786 8.36118)">
<stop offset="0.274731" stop-color="#FEDA36"/>
<stop offset="0.553663" stop-color="#F9C72A"/>
<stop offset="0.767909" stop-color="#EFB035"/>
<stop offset="0.880208" stop-color="#ED9944"/>
</radialGradient>
<radialGradient id="paint4_radial" cx="0" cy="0" r="1" gradientUnits="userSpaceOnUse" gradientTransform="translate(624.202 226.403) rotate(-55.4895) scale(9.94447 10.5633)">
<stop offset="0.143626" stop-color="#FEDA36"/>
<stop offset="0.466677" stop-color="#F9C72A"/>
<stop offset="0.734055" stop-color="#EFB035"/>
<stop offset="0.855128" stop-color="#ED9944"/>
<stop offset="1" stop-color="#ED9944"/>
</radialGradient>
<radialGradient id="paint5_radial" cx="0" cy="0" r="1" gradientUnits="userSpaceOnUse" gradientTransform="translate(642.041 232.471) rotate(90.6441) scale(9.48451 10.4237)">
<stop offset="0.274731" stop-color="#FEDA36"/>
<stop offset="0.553663" stop-color="#F9C72A"/>
<stop offset="0.767909" stop-color="#EFB035"/>
<stop offset="0.880208" stop-color="#ED9944"/>
</radialGradient>
<radialGradient id="paint6_radial" cx="0" cy="0" r="1" gradientUnits="userSpaceOnUse" gradientTransform="translate(145.985 156.357) rotate(-55.4895) scale(9.15256 9.72209)">
<stop offset="0.143626" stop-color="#FEDA36"/>
<stop offset="0.466677" stop-color="#F9C72A"/>
<stop offset="0.734055" stop-color="#EFB035"/>
<stop offset="0.855128" stop-color="#ED9944"/>
<stop offset="1" stop-color="#ED9944"/>
</radialGradient>
<radialGradient id="paint7_radial" cx="0" cy="0" r="1" gradientUnits="userSpaceOnUse" gradientTransform="translate(162.182 147.503) rotate(90.6441) scale(8.72923 9.59359)">
<stop offset="0.274731" stop-color="#FEDA36"/>
<stop offset="0.553663" stop-color="#F9C72A"/>
<stop offset="0.767909" stop-color="#EFB035"/>
<stop offset="0.880208" stop-color="#ED9944"/>
</radialGradient>
</defs>
</svg>
