<svg width="834" height="404" viewBox="0 0 834 404" fill="none" xmlns="http://www.w3.org/2000/svg">
<rect x="121.185" y="119.47" width="244.525" height="136.803" rx="19" transform="rotate(16.7026 121.185 119.47)" fill="#C4C4C4"/>
<path fill-rule="evenodd" clip-rule="evenodd" d="M191.756 123.09C161.885 116.363 139.037 112.522 123.445 111.607C112.286 110.952 109.75 111.09 106.016 112.559C99.9081 114.961 100.874 112.191 81.7211 182.194C64.4095 245.466 64.3022 245.902 65.0294 249.815C65.4704 252.186 66.8105 254.954 68.396 256.766L71.0306 259.777L92.657 265.958C108.728 270.55 114.215 272.381 114.02 273.083C113.875 273.602 111.616 277.665 109 282.112C106.384 286.558 104.27 290.877 104.304 291.707C104.356 293.001 105.411 293.503 111.701 295.224C116.338 296.493 119.623 296.999 120.627 296.599C121.571 296.224 124.402 292.141 127.591 286.56L132.964 277.153L185.854 291.622L238.744 306.091L238.644 316.517C238.589 322.251 238.93 327.72 239.4 328.67C240.585 331.059 254.695 335.082 255.94 333.386C256.59 332.503 257.097 323.071 257.033 313.057L257.021 311.177L284.021 318.308L311.021 325.44L315.01 324.128C317.518 323.303 319.895 321.737 321.415 319.908C323.725 317.128 324.61 314.156 341.338 253.083C361.26 180.351 360.307 185.822 354.119 179.687C347.191 172.818 328.561 163.916 300.221 153.93C288.861 149.928 204.82 126.032 191.756 123.09ZM236.724 153.659C267.189 163.731 280.504 170.846 283.555 178.685C284.589 181.341 284.415 182.088 271.458 230.413C257.081 284.035 256.425 285.934 251.311 288.708L248.277 290.353L174.453 270.385C92.9967 248.352 96.572 249.559 94.8315 243.514C93.9693 240.521 94.2882 239.203 108.129 188.607C123.753 131.489 123.041 133.424 128.798 132.407C144.962 129.548 191.536 138.72 236.724 153.659ZM332.79 191.582C336.896 195.307 336.875 202.95 332.747 207.228C326.087 214.128 311.802 210.779 308.741 201.6C306.859 195.954 309.674 189.72 315.053 187.624C319.828 185.763 328.513 187.702 332.79 191.582ZM311.845 216.459C315.047 220.083 313.726 226.802 309.274 229.528C302.18 233.873 291.174 228.078 291.808 220.331C292.148 216.167 295.782 212.344 299.68 212.047C303.413 211.762 309.714 214.047 311.845 216.459ZM335.691 222.022C339.906 225.313 340.349 230.824 336.746 235.149C333.469 239.083 325.119 238.964 320.727 234.922C314.391 229.088 318.063 218.766 326.421 218.919C329.677 218.978 333.38 220.219 335.691 222.022ZM303.723 240.887C306.727 243.586 307.435 246.726 305.895 250.523C304.405 254.197 301.048 256.33 296.784 256.312C287.267 256.273 281.767 247.331 287.078 240.529C290.508 236.136 298.629 236.31 303.723 240.887ZM331.235 250.284C335.343 258.531 325.724 266.505 316.864 262.198C310.716 259.21 308.813 253.192 312.329 247.856C314.816 244.081 318.968 243.326 325.066 245.542C329.037 246.985 329.937 247.677 331.235 250.284ZM321.747 277.436C321.225 281.54 320.351 281.487 300.868 276.157C285.467 271.943 282.627 270.965 281.856 269.614C280.784 267.733 280.799 267.626 282.419 265.918C283.616 264.653 284.524 264.839 302.83 270.065L321.988 275.535L321.747 277.436ZM318.308 287.281C318.659 288.056 318.604 289.48 318.187 290.448L317.426 292.207L298.315 287.207C281.053 282.691 279.144 282.05 278.582 280.579C277.778 278.467 277.951 277.966 279.87 276.872C282.145 275.575 317.319 285.1 318.308 287.281ZM314.651 297.877C315.394 298.582 315.733 299.953 315.434 301.048C315.134 302.143 314.144 303.15 313.146 303.379C312.088 303.62 304.548 301.909 294.265 299.096C278.101 294.673 277.078 294.296 275.97 292.353C274.852 290.392 275.094 289.668 277.461 287.885C278.79 286.883 312.65 295.981 314.651 297.877Z" fill="black"/>
<ellipse cx="145.684" cy="245.289" rx="19.7722" ry="20.0387" transform="rotate(-27.6676 145.684 245.289)" fill="#F5F8FA"/>
<ellipse cx="128.679" cy="214.831" rx="10.8677" ry="10.2311" transform="rotate(-123.568 128.679 214.831)" fill="url(#paint0_radial)"/>
<ellipse cx="148.622" cy="208.244" rx="11.516" ry="10.4785" transform="rotate(-123.568 148.622 208.244)" fill="url(#paint1_radial)"/>
<path fill-rule="evenodd" clip-rule="evenodd" d="M131.772 198.539C130.534 199.142 128.719 200.418 127.741 201.375C126.762 202.332 125.493 203.206 124.92 203.316C124.347 203.426 123.097 204.124 122.142 204.868C115.918 209.714 116.123 219.608 122.556 224.87L123.981 226.035L123.618 230.695C123.419 233.257 122.941 237.531 122.556 240.191C121.721 245.959 122.137 250.814 123.825 254.988C127.345 263.697 135.42 269.208 145.625 269.865C154.523 270.438 163.574 264.997 167.747 256.568C170.099 251.817 170.745 247.759 170.028 242.259C169.372 237.228 168.647 235.435 164.358 228.242C162.738 225.525 160.704 221.738 159.838 219.826C158.302 216.433 158.282 216.31 158.995 214.745C161.956 208.253 159.838 200.741 154.13 197.488C151.529 196.005 147.772 195.497 145.689 196.347C144.922 196.659 143.004 196.825 141.429 196.714C137.965 196.47 134.79 197.07 131.772 198.539ZM150.999 198.11C153.71 198.812 156.381 201.23 157.636 204.118C160.602 210.94 155.717 219.144 148.981 218.65C144.363 218.312 140.825 214.933 139.841 209.92C138.398 202.571 144.259 196.367 150.999 198.11ZM132.309 205.361C134.841 206.41 137.744 210.046 138.292 212.858C139.661 219.877 134.133 226.39 127.743 225.284C123.958 224.629 120.469 220.905 119.651 216.649C118.1 208.581 125.072 202.364 132.309 205.361ZM143.58 208.553C141.78 211.517 145.352 214.188 148.118 211.946C149.083 211.163 148.929 209.202 147.792 207.799C146.876 206.669 144.461 207.102 143.58 208.553ZM129.647 212.668C128.664 214.12 129.33 216.455 130.913 217.106C132.37 217.705 133.731 217.157 134.494 215.664C135.178 214.326 134.807 213.086 133.445 212.163C131.997 211.182 130.522 211.378 129.647 212.668ZM151.459 227.635C157.187 229.128 161.214 233.897 162.53 240.744L163.193 244.194L141.958 248.275C141.958 248.275 141.881 248.296 141.911 248.451C142.401 250.927 145.424 252.299 147.944 252.439C148.677 252.48 149.389 252.424 150.162 252.36C152.877 251.971 154.731 251.38 156.878 250.22L159.846 248.618L161.407 251.539C162.321 253.25 162.874 254.565 162.874 254.565C162.874 254.565 161.883 256.042 161.271 256.687C160.574 257.423 159.784 258.22 158.803 258.973C155.177 261.759 148.657 263.344 144.05 262.559C139.69 261.816 135.124 258.905 132.54 255.22C130.819 252.768 130.076 250.533 129.599 248.054C129.123 245.576 128.977 243.167 129.641 240.355C131.911 230.748 141.639 225.076 151.459 227.635ZM143.056 236.761C141.619 237.757 140.237 240.805 140.991 241.316C141.199 241.457 143.379 241.186 145.835 240.714C150.173 239.88 150.295 239.822 150.075 238.68C149.807 237.284 147.693 235.833 145.848 235.779C145.123 235.757 143.867 236.199 143.056 236.761Z" fill="black"/>
<ellipse cx="205.549" cy="252.564" rx="25.06" ry="25.3978" transform="rotate(14.8687 205.549 252.564)" fill="#F5F8FA"/>
<ellipse cx="215.767" cy="209.548" rx="13.7742" ry="12.9673" transform="rotate(-81.0316 215.767 209.548)" fill="url(#paint2_radial)"/>
<ellipse cx="240.034" cy="220.484" rx="14.5959" ry="13.2808" transform="rotate(-81.0316 240.034 220.484)" fill="url(#paint3_radial)"/>
<path fill-rule="evenodd" clip-rule="evenodd" d="M232.615 196.983C230.942 196.485 228.154 196.122 226.42 196.178C224.685 196.233 222.751 195.961 222.122 195.573C221.492 195.185 219.726 194.766 218.198 194.642C208.233 193.835 199.946 203.251 201.446 213.677L201.778 215.986L197.447 220.027C195.064 222.249 190.956 225.831 188.317 227.985C182.596 232.657 178.824 237.547 176.824 242.891C172.649 254.041 175.468 266.107 184.436 275.465C192.254 283.624 205.37 286.299 216.489 282.002C222.756 279.581 226.837 276.345 230.881 270.594C234.579 265.333 235.438 263.038 237.596 252.644C238.41 248.719 239.756 243.44 240.586 240.912C242.058 236.427 242.144 236.295 244.152 235.445C252.48 231.919 256.938 223.088 254.396 215.159C253.237 211.545 250.164 207.852 247.49 206.861C246.506 206.495 244.573 205.007 243.196 203.553C240.171 200.357 236.692 198.198 232.615 196.983ZM250.938 213.057C252.868 216.035 253.292 220.583 251.989 224.355C248.913 233.268 237.321 236.743 231.454 230.511C227.431 226.238 227.022 220.051 230.398 214.526C235.347 206.426 246.138 205.654 250.938 213.057ZM227.27 203.814C228.736 206.964 228.331 212.847 226.434 215.942C221.698 223.67 210.955 225.016 205.936 218.508C202.962 214.653 202.893 208.186 205.776 203.51C211.241 194.647 223.08 194.814 227.27 203.814ZM235.062 216.453C230.842 217.679 231.888 223.234 236.392 223.51C237.965 223.606 239.501 221.643 239.641 219.357C239.754 217.518 237.128 215.853 235.062 216.453ZM218.523 208.358C216.362 208.871 214.983 211.622 215.903 213.587C216.751 215.395 218.491 216.049 220.483 215.309C222.269 214.645 222.984 213.169 222.503 211.14C221.991 208.984 220.446 207.902 218.523 208.358ZM226.069 241.026C230.139 247.327 229.814 255.232 225.176 262.755L222.839 266.544L199.511 252.16C199.511 252.16 199.213 252.008 199.079 253.266C198.81 255.775 199.294 258.437 200.861 260.416C201.679 261.45 202.617 262.186 203.672 263.005C206.54 264.967 208.778 266.004 211.778 266.761L215.922 267.807L214.877 271.873C214.265 274.255 213.654 275.956 213.654 275.956C213.654 275.956 211.464 276.486 210.339 276.565C209.058 276.655 207.637 276.722 206.075 276.585C200.302 276.08 192.854 271.974 189.224 267.292C185.789 262.862 184.02 256.232 184.764 250.576C185.258 246.812 186.479 244.087 188.158 241.364C189.837 238.641 191.765 236.267 194.794 234.21C205.145 227.183 219.091 230.221 226.069 241.026ZM210.402 242.348C208.206 242.046 204.303 243.709 204.57 244.833C204.643 245.142 206.911 246.757 209.61 248.421C214.375 251.359 214.539 251.409 215.313 250.154C216.259 248.621 215.528 245.454 213.851 243.823C213.192 243.181 211.64 242.518 210.402 242.348Z" fill="black"/>
<rect x="547.547" y="91.978" width="215.768" height="132.658" rx="33" transform="rotate(-0.0521089 547.547 91.978)" fill="#C4C4C4"/>
<path fill-rule="evenodd" clip-rule="evenodd" d="M631.171 76.0333C601.88 76.6178 592.091 77.4469 577.871 80.5498C549.466 86.7472 534.877 98.9291 529.56 120.889C526.327 134.243 526.115 165.505 529.16 179.946C533.815 202.02 545.662 217.059 565.963 226.659C579.899 233.25 594.748 236.374 618.9 237.795L634.569 238.716V246.865V255.013H611.126H587.682L585.829 256.866C583.239 259.456 583.616 264.563 586.542 266.517C586.999 266.822 617.447 267.071 654.203 267.071C690.959 267.071 721.407 266.822 721.863 266.517C724.79 264.563 725.167 259.456 722.577 256.866L720.724 255.013H697.28H673.837V246.812V238.612L691.771 238.195C722.007 237.493 738.119 233.603 752.098 223.628C761.326 217.043 768.466 206.194 772.276 192.971C775.696 181.098 776.159 176.533 776.133 154.957C776.106 131.989 775.247 124.918 770.93 112.136C767.727 102.653 764.506 97.4075 758.256 91.4955C750.054 83.7372 739.503 79.5009 722.412 77.1041C712.29 75.6844 672.254 75.2147 631.171 76.0333ZM659.489 95.272C689.387 99.2342 704.085 109.328 709.083 129.331C710.133 133.53 710.399 138.084 710.426 152.314C710.458 168.391 710.298 170.698 708.732 176.856C703.351 198.016 689.895 210.479 665.908 216.52C653.546 219.634 643.032 220.543 624.918 220.063C608.243 219.622 600.119 218.509 589.734 215.241C567.65 208.293 555.536 195.46 551.002 174.213C549.088 165.245 549.1 140.407 551.023 131.237C553.012 121.749 555.932 115.974 561.504 110.511C571.077 101.124 586.328 96.1683 611.852 94.1491C622.931 93.2731 649.051 93.8885 659.489 95.272ZM752.51 119.303C756.5 120.99 757.816 124.009 757.819 131.476C757.823 140.996 755.691 144.697 749.069 146.664C746.997 147.279 743.408 147.781 741.095 147.778C729.616 147.767 724.422 142.662 724.435 131.402C724.444 123.493 726.457 120.317 732.548 118.597C737.142 117.299 748.743 117.709 752.51 119.303ZM756.205 162.827L758.412 165.035V179.121V193.207L756.205 195.415L753.998 197.622H741.492H728.986L726.52 195.419L724.053 193.215V179.121V165.027L726.52 162.824L728.986 160.62H741.492H753.998L756.205 162.827Z" fill="black"/>
<ellipse cx="648.882" cy="206.374" rx="14.6986" ry="14.8967" transform="rotate(-13.6385 648.882 206.374)" fill="#F5F8FA"/>
<ellipse cx="642.106" cy="181.341" rx="8.07907" ry="7.60579" transform="rotate(-109.539 642.106 181.341)" fill="url(#paint4_radial)"/>
<ellipse cx="657.676" cy="180.185" rx="8.56101" ry="7.78968" transform="rotate(-109.539 657.676 180.185)" fill="url(#paint5_radial)"/>
<path fill-rule="evenodd" clip-rule="evenodd" d="M647.273 170.149C646.271 170.36 644.733 170.954 643.854 171.468C642.976 171.982 641.903 172.383 641.47 172.359C641.036 172.336 640.009 172.614 639.187 172.978C633.825 175.352 632.189 182.524 635.881 187.478L636.698 188.576L635.597 191.871C634.991 193.683 633.877 196.679 633.119 198.529C631.478 202.538 630.903 206.114 631.368 209.429C632.337 216.344 637.169 221.774 644.41 224.087C650.724 226.104 658.233 223.811 662.761 218.484C665.313 215.481 666.511 212.671 666.985 208.575C667.418 204.828 667.219 203.405 665.421 197.443C664.743 195.192 663.958 192.095 663.678 190.559C663.182 187.836 663.189 187.743 663.986 186.743C667.291 182.595 667.118 176.795 663.587 173.42C661.978 171.881 659.36 170.838 657.705 171.076C657.095 171.163 655.682 170.937 654.566 170.573C652.112 169.773 649.714 169.634 647.273 170.149ZM661.217 173.304C663.045 174.299 664.537 176.524 664.921 178.833C665.831 184.289 660.829 189.325 656.06 187.755C652.791 186.678 650.848 183.604 651.041 179.811C651.325 174.251 656.67 170.833 661.217 173.304ZM646.43 175.165C648.068 176.379 649.506 179.524 649.394 181.651C649.117 186.96 643.956 190.661 639.547 188.712C636.935 187.557 635.09 184.243 635.267 181.026C635.602 174.928 641.751 171.7 646.43 175.165ZM653.984 179.499C652.152 181.312 654.247 183.883 656.645 182.764C657.483 182.373 657.725 180.931 657.158 179.714C656.701 178.734 654.881 178.611 653.984 179.499ZM643.194 179.956C642.224 180.826 642.283 182.63 643.307 183.385C644.25 184.079 645.33 183.93 646.15 182.99C646.884 182.148 646.84 181.187 646.024 180.276C645.157 179.308 644.057 179.183 643.194 179.956ZM656.228 194.682C660.09 196.79 662.135 200.955 661.85 206.131L661.707 208.738L645.656 207.855C645.656 207.855 647.466 211.438 649.364 211.979C649.839 212.115 650.319 212.195 650.837 212.28C652.865 212.489 654.308 212.396 656.066 211.947L658.495 211.326L659.095 213.714C659.446 215.113 659.607 216.161 659.607 216.161C659.607 216.161 658.627 217.047 658.069 217.403C657.434 217.808 656.721 218.24 655.877 218.607C652.76 219.963 647.772 219.931 644.59 218.534C641.58 217.212 638.812 214.29 637.612 211.167C636.813 209.088 636.679 207.342 636.782 205.469C636.886 203.596 637.215 201.832 638.2 199.924C641.568 193.404 649.607 191.066 656.228 194.682ZM648.523 199.749C647.307 200.208 645.761 202.158 646.213 202.662C646.337 202.801 647.958 202.999 649.815 203.101C653.094 203.281 653.192 203.261 653.24 202.398C653.298 201.343 652.035 199.915 650.713 199.544C650.194 199.397 649.209 199.49 648.523 199.749Z" fill="black"/>
<ellipse cx="691.005" cy="109.816" rx="6.50779" ry="6.5955" transform="rotate(-160.134 691.005 109.816)" fill="#F5F8FA"/>
<ellipse cx="687.389" cy="120.713" rx="3.577" ry="3.36745" transform="rotate(103.966 687.389 120.713)" fill="url(#paint6_radial)"/>
<ellipse cx="681.358" cy="117.335" rx="3.79037" ry="3.44887" transform="rotate(103.966 681.358 117.335)" fill="url(#paint7_radial)"/>
<path fill-rule="evenodd" clip-rule="evenodd" d="M682.746 123.583C683.167 123.749 683.88 123.906 684.33 123.931C684.78 123.956 685.274 124.07 685.428 124.185C685.583 124.299 686.03 124.448 686.422 124.514C688.982 124.948 691.339 122.7 691.187 119.969L691.153 119.364L692.365 118.416C693.032 117.895 694.175 117.062 694.907 116.564C696.493 115.485 697.579 114.305 698.218 112.968C699.55 110.178 699.093 106.993 696.985 104.369C695.147 102.081 691.815 101.093 688.841 101.953C687.165 102.437 686.036 103.182 684.86 104.578C683.784 105.856 683.51 106.43 682.716 109.07C682.417 110.067 681.949 111.402 681.677 112.038C681.195 113.165 681.17 113.197 680.631 113.371C678.397 114.095 677.044 116.279 677.522 118.387C677.74 119.349 678.452 120.374 679.121 120.691C679.367 120.807 679.834 121.236 680.157 121.643C680.867 122.538 681.718 123.176 682.746 123.583ZM678.369 119.009C677.937 118.195 677.93 117.009 678.353 116.063C679.35 113.827 682.428 113.19 683.805 114.935C684.749 116.131 684.714 117.741 683.716 119.094C682.252 121.078 679.443 121.033 678.369 119.009ZM684.283 121.936C683.975 121.088 684.213 119.575 684.774 118.818C686.174 116.925 688.983 116.82 690.135 118.617C690.817 119.682 690.688 121.357 689.837 122.501C688.222 124.67 685.163 124.359 684.283 121.936ZM682.553 118.49C683.673 118.269 683.528 116.808 682.369 116.634C681.964 116.574 681.522 117.047 681.434 117.635C681.363 118.109 682.005 118.599 682.553 118.49ZM686.649 120.958C687.219 120.875 687.638 120.194 687.445 119.665C687.266 119.178 686.831 118.969 686.299 119.116C685.822 119.247 685.603 119.613 685.682 120.149C685.766 120.718 686.141 121.033 686.649 120.958ZM685.435 112.337C684.525 110.614 684.788 108.577 686.158 106.736L686.848 105.808L692.558 110.057C692.558 110.057 692.766 108.292 692.197 107.628C692.055 107.462 691.897 107.315 691.727 107.157C691.029 106.585 690.474 106.266 689.715 106.002L688.666 105.638L689.029 104.61C689.241 104.007 689.437 103.581 689.437 103.581C689.437 103.581 690.016 103.493 690.309 103.498C690.642 103.504 691.011 103.519 691.412 103.59C692.895 103.851 694.728 105.082 695.561 106.375C696.35 107.599 696.658 109.354 696.337 110.8C696.124 111.763 695.747 112.44 695.251 113.107C694.755 113.773 694.202 114.344 693.372 114.807C690.535 116.391 686.996 115.29 685.435 112.337ZM689.519 112.349C690.08 112.477 691.127 112.135 691.083 111.838C691.071 111.756 690.521 111.287 689.861 110.796C688.694 109.928 688.653 109.911 688.425 110.218C688.145 110.594 688.263 111.429 688.66 111.889C688.816 112.07 689.202 112.277 689.519 112.349Z" fill="black"/>
<ellipse cx="602.929" cy="212.382" rx="12.5027" ry="12.6712" transform="rotate(-8.39179 602.929 212.382)" fill="#F5F8FA"/>
<ellipse cx="599.137" cy="190.652" rx="6.87209" ry="6.46952" transform="rotate(-104.292 599.137 190.652)" fill="url(#paint8_radial)"/>
<ellipse cx="612.415" cy="190.883" rx="7.28203" ry="6.62594" transform="rotate(-104.292 612.415 190.883)" fill="url(#paint9_radial)"/>
<path fill-rule="evenodd" clip-rule="evenodd" d="M604.384 181.573C603.519 181.674 602.169 182.057 601.386 182.425C600.602 182.792 599.661 183.048 599.296 182.994C598.931 182.94 598.039 183.096 597.315 183.341C592.588 184.934 590.645 190.883 593.386 195.366L593.994 196.359L592.804 199.065C592.15 200.553 590.973 203.004 590.188 204.511C588.486 207.779 587.721 210.764 587.857 213.608C588.14 219.541 591.81 224.516 597.764 227.038C602.955 229.238 609.493 227.88 613.744 223.72C616.139 221.375 617.372 219.088 618.092 215.655C618.751 212.515 618.692 211.294 617.633 206.104C617.234 204.145 616.81 201.46 616.692 200.138C616.484 197.792 616.497 197.714 617.25 196.929C620.372 193.672 620.676 188.746 617.949 185.613C616.705 184.185 614.569 183.097 613.148 183.17C612.625 183.196 611.446 182.895 610.528 182.5C608.512 181.631 606.492 181.327 604.384 181.573ZM615.95 185.331C617.421 186.315 618.511 188.316 618.657 190.302C619.003 194.994 614.375 198.87 610.458 197.17C607.772 196.004 606.365 193.248 606.824 190.051C607.497 185.363 612.291 182.883 615.95 185.331ZM603.28 185.757C604.573 186.912 605.546 189.688 605.286 191.481C604.638 195.956 599.979 198.69 596.396 196.696C594.274 195.515 592.968 192.564 593.368 189.853C594.127 184.713 599.586 182.458 603.28 185.757ZM609.341 190.015C607.649 191.409 609.223 193.749 611.341 192.988C612.081 192.722 612.399 191.519 612.013 190.444C611.702 189.579 610.17 189.333 609.341 190.015ZM600.166 189.563C599.276 190.224 599.186 191.757 599.995 192.476C600.74 193.138 601.667 193.095 602.434 192.363C603.121 191.707 603.158 190.89 602.538 190.055C601.879 189.167 600.957 188.976 600.166 189.563ZM610.061 203.05C613.168 205.137 614.577 208.824 613.933 213.186L613.608 215.383L600.082 213.386C600.082 213.386 601.336 216.562 602.901 217.168C603.293 217.32 603.694 217.425 604.126 217.537C605.827 217.872 607.057 217.906 608.581 217.662L610.687 217.325L611.009 219.394C611.197 220.607 611.253 221.507 611.253 221.507C611.253 221.507 610.353 222.181 609.853 222.439C609.284 222.733 608.646 223.043 607.903 223.288C605.157 224.195 600.934 223.78 598.348 222.349C595.901 220.995 593.783 218.305 593.01 215.566C592.495 213.743 592.518 212.254 592.751 210.675C592.984 209.096 593.4 207.628 594.383 206.088C597.743 200.828 604.734 199.473 610.061 203.05ZM603.14 206.743C602.074 207.037 600.613 208.569 600.957 209.031C601.051 209.158 602.409 209.452 603.974 209.683C606.737 210.09 606.822 210.081 606.929 209.353C607.061 208.464 606.102 207.157 605.012 206.739C604.583 206.575 603.741 206.577 603.14 206.743Z" fill="black"/>
<g opacity="0.23" filter="url(#filter0_f)">
<ellipse cx="183.907" cy="217.779" rx="123.448" ry="125.466" transform="rotate(-4.00409 183.907 217.779)" fill="#C4C4C4"/>
</g>
<g opacity="0.23" filter="url(#filter1_f)">
<ellipse cx="649.907" cy="185.779" rx="123.448" ry="125.466" transform="rotate(-4.00409 649.907 185.779)" fill="#C4C4C4"/>
</g>
<defs>
<filter id="filter0_f" x="0.44458" y="32.3186" width="366.926" height="370.922" filterUnits="userSpaceOnUse" color-interpolation-filters="sRGB">
<feFlood flood-opacity="0" result="BackgroundImageFix"/>
<feBlend mode="normal" in="SourceGraphic" in2="BackgroundImageFix" result="shape"/>
<feGaussianBlur stdDeviation="30" result="effect1_foregroundBlur"/>
</filter>
<filter id="filter1_f" x="466.444" y="0.318604" width="366.926" height="370.922" filterUnits="userSpaceOnUse" color-interpolation-filters="sRGB">
<feFlood flood-opacity="0" result="BackgroundImageFix"/>
<feBlend mode="normal" in="SourceGraphic" in2="BackgroundImageFix" result="shape"/>
<feGaussianBlur stdDeviation="30" result="effect1_foregroundBlur"/>
</filter>
<radialGradient id="paint0_radial" cx="0" cy="0" r="1" gradientUnits="userSpaceOnUse" gradientTransform="translate(127.66 216.252) rotate(-55.4895) scale(11.3091 12.0128)">
<stop offset="0.143626" stop-color="#FEDA36"/>
<stop offset="0.466677" stop-color="#F9C72A"/>
<stop offset="0.734055" stop-color="#EFB035"/>
<stop offset="0.855128" stop-color="#ED9944"/>
<stop offset="1" stop-color="#ED9944"/>
</radialGradient>
<radialGradient id="paint1_radial" cx="0" cy="0" r="1" gradientUnits="userSpaceOnUse" gradientTransform="translate(148.743 207.938) rotate(90.6441) scale(10.786 11.8541)">
<stop offset="0.274731" stop-color="#FEDA36"/>
<stop offset="0.553663" stop-color="#F9C72A"/>
<stop offset="0.767909" stop-color="#EFB035"/>
<stop offset="0.880208" stop-color="#ED9944"/>
</radialGradient>
<radialGradient id="paint2_radial" cx="0" cy="0" r="1" gradientUnits="userSpaceOnUse" gradientTransform="translate(214.475 211.35) rotate(-55.4895) scale(14.3336 15.2255)">
<stop offset="0.143626" stop-color="#FEDA36"/>
<stop offset="0.466677" stop-color="#F9C72A"/>
<stop offset="0.734055" stop-color="#EFB035"/>
<stop offset="0.855128" stop-color="#ED9944"/>
<stop offset="1" stop-color="#ED9944"/>
</radialGradient>
<radialGradient id="paint3_radial" cx="0" cy="0" r="1" gradientUnits="userSpaceOnUse" gradientTransform="translate(240.188 220.095) rotate(90.6441) scale(13.6706 15.0243)">
<stop offset="0.274731" stop-color="#FEDA36"/>
<stop offset="0.553663" stop-color="#F9C72A"/>
<stop offset="0.767909" stop-color="#EFB035"/>
<stop offset="0.880208" stop-color="#ED9944"/>
</radialGradient>
<radialGradient id="paint4_radial" cx="0" cy="0" r="1" gradientUnits="userSpaceOnUse" gradientTransform="translate(641.349 182.398) rotate(-55.4895) scale(8.40717 8.93032)">
<stop offset="0.143626" stop-color="#FEDA36"/>
<stop offset="0.466677" stop-color="#F9C72A"/>
<stop offset="0.734055" stop-color="#EFB035"/>
<stop offset="0.855128" stop-color="#ED9944"/>
<stop offset="1" stop-color="#ED9944"/>
</radialGradient>
<radialGradient id="paint5_radial" cx="0" cy="0" r="1" gradientUnits="userSpaceOnUse" gradientTransform="translate(657.766 179.957) rotate(90.6441) scale(8.01832 8.81228)">
<stop offset="0.274731" stop-color="#FEDA36"/>
<stop offset="0.553663" stop-color="#F9C72A"/>
<stop offset="0.767909" stop-color="#EFB035"/>
<stop offset="0.880208" stop-color="#ED9944"/>
</radialGradient>
<radialGradient id="paint6_radial" cx="0" cy="0" r="1" gradientUnits="userSpaceOnUse" gradientTransform="translate(687.053 121.181) rotate(-55.4895) scale(3.72226 3.95389)">
<stop offset="0.143626" stop-color="#FEDA36"/>
<stop offset="0.466677" stop-color="#F9C72A"/>
<stop offset="0.734055" stop-color="#EFB035"/>
<stop offset="0.855128" stop-color="#ED9944"/>
<stop offset="1" stop-color="#ED9944"/>
</radialGradient>
<radialGradient id="paint7_radial" cx="0" cy="0" r="1" gradientUnits="userSpaceOnUse" gradientTransform="translate(681.398 117.234) rotate(90.6441) scale(3.5501 3.90163)">
<stop offset="0.274731" stop-color="#FEDA36"/>
<stop offset="0.553663" stop-color="#F9C72A"/>
<stop offset="0.767909" stop-color="#EFB035"/>
<stop offset="0.880208" stop-color="#ED9944"/>
</radialGradient>
<radialGradient id="paint8_radial" cx="0" cy="0" r="1" gradientUnits="userSpaceOnUse" gradientTransform="translate(598.493 191.551) rotate(-55.4895) scale(7.15118 7.59617)">
<stop offset="0.143626" stop-color="#FEDA36"/>
<stop offset="0.466677" stop-color="#F9C72A"/>
<stop offset="0.734055" stop-color="#EFB035"/>
<stop offset="0.855128" stop-color="#ED9944"/>
<stop offset="1" stop-color="#ED9944"/>
</radialGradient>
<radialGradient id="paint9_radial" cx="0" cy="0" r="1" gradientUnits="userSpaceOnUse" gradientTransform="translate(612.492 190.689) rotate(90.6441) scale(6.82042 7.49577)">
<stop offset="0.274731" stop-color="#FEDA36"/>
<stop offset="0.553663" stop-color="#F9C72A"/>
<stop offset="0.767909" stop-color="#EFB035"/>
<stop offset="0.880208" stop-color="#ED9944"/>
</radialGradient>
</defs>
</svg>
