<svg width="248" height="48" viewBox="0 0 248 48" fill="none" xmlns="http://www.w3.org/2000/svg">
<path d="M24.025 40.9932C33.4236 40.9932 41.0427 33.3833 41.0427 23.9959C41.0427 14.6086 33.4236 6.99866 24.025 6.99866C14.6263 6.99866 7.0072 14.6086 7.0072 23.9959C7.0072 33.3833 14.6263 40.9932 24.025 40.9932Z" fill="#F6F8FA"/>
<path fill-rule="evenodd" clip-rule="evenodd" d="M21.3412 0.0844774C15.9597 0.647114 11.4765 2.73125 7.50815 6.51521C2.85324 10.9537 0.550045 15.8042 0.0689953 22.1816C-0.846971 34.327 7.44826 45.1739 19.5278 47.6254C21.186 47.9621 25.9445 48.124 27.2648 47.889C27.6553 47.8195 28.5259 47.6635 29.1995 47.5426C31.4498 47.1383 34.5737 45.9335 36.4903 44.731C39.1094 43.0879 42.1932 40.1783 43.9433 37.6992C45.8564 34.9894 47.1769 31.743 47.78 28.2681C48.0596 26.6555 48.0863 26.1256 48.0193 23.5157C47.9141 19.4241 47.3434 16.9702 45.7145 13.6083C42.3035 6.56813 35.6636 1.58058 27.9746 0.283231C26.3829 0.0145381 22.9839 -0.0871792 21.3412 0.0844774ZM28.367 1.91453C41.6004 4.53961 49.6201 18.1403 45.482 30.94C43.2971 37.6981 37.6825 43.2763 30.8793 45.4484C28.3853 46.2446 27.2826 46.3966 24 46.3963C20.6547 46.396 19.4027 46.1995 16.6541 45.2434C11.7908 43.5515 7.42938 40.0009 4.74123 35.5449C0.797596 29.0081 0.484893 20.814 3.91811 13.9755C5.0687 11.6835 6.23024 10.0928 8.16607 8.15717C11.8813 4.44299 15.8322 2.48412 21.3032 1.644C22.7445 1.42269 26.6392 1.57194 28.367 1.91453ZM21.516 4.3366C18.2754 4.78318 15.0678 6.0672 12.3969 7.98678C10.936 9.03687 8.57431 11.493 7.58779 12.9884C6.03421 15.3432 5.01575 17.8512 4.53457 20.5071C4.2027 22.3394 4.20114 25.6608 4.5313 27.4586C5.68914 33.7632 9.74562 39.0948 15.4834 41.8534C18.0972 43.11 20.2366 43.6176 23.3613 43.7226C25.9633 43.8101 27.4305 43.6397 29.6743 42.9899C36.8207 40.92 42.2961 34.782 43.5922 27.3877C43.9151 25.5458 43.923 22.4533 43.6092 20.6883C42.8739 16.5493 41.0682 13.0914 38.0596 10.0606C35.2002 7.18 31.8685 5.38257 27.8326 4.54343C26.5078 4.26793 22.8769 4.14906 21.516 4.3366ZM27.6906 9.2786C31.0143 10.1102 34.0899 12.1412 36.1362 14.8553C40.6204 20.8029 40.16 28.9982 35.0371 34.4259C33.2255 36.3451 30.8447 37.7872 28.1165 38.6172C26.9215 38.9808 26.665 39.0064 24.142 39.0133C20.9323 39.022 19.9922 38.8222 17.4707 37.5955C15.6435 36.7064 14.4225 35.8171 13.059 34.3822C6.02882 26.9836 8.23151 14.8708 17.4212 10.3948C18.8347 9.70647 19.8274 9.37962 21.438 9.07248C22.8713 8.79896 26.2145 8.90933 27.6906 9.2786ZM20.7498 13.2487C20.6773 13.366 14.9866 29.7315 14.9866 29.8227C14.9866 29.8489 14.5395 29.8702 13.993 29.8702H12.9994V31.0052V32.1402H14.7585C16.3017 32.1402 16.5297 32.1097 16.6163 31.8918C16.7634 31.5221 23.0775 13.2342 23.0775 13.1783C23.0775 13.0708 20.8176 13.1392 20.7498 13.2487ZM23.582 13.5913C23.4771 13.8448 22.6767 16.1271 21.8031 18.663C20.9295 21.1988 19.9376 24.0715 19.599 25.0469C19.2603 26.0222 18.5775 28.0012 18.0818 29.4447L17.1805 32.0693L18.3013 32.1106C18.9177 32.1335 19.4482 32.1262 19.4799 32.0945C19.5802 31.9942 26.0583 13.4947 26.0583 13.3083C26.0583 13.1802 25.7374 13.1302 24.9155 13.1302H23.7727L23.582 13.5913ZM24.0067 21.0378C22.5362 25.2325 21.0577 29.4465 20.7209 30.4023L20.1088 32.1402H22.7287H25.3485V31.0113V29.8822L24.2969 29.8408L23.245 29.7993L24.97 24.9513C25.9186 22.2849 26.7273 20.1346 26.7669 20.1733C26.8066 20.2117 27.6777 22.3934 28.7031 25.0213L30.5669 29.7993L29.4836 29.8702L28.4003 29.9412L28.359 31.0407L28.3174 32.1402H31.73H35.1427V31.0114V29.8828L34.1378 29.8411L33.133 29.7993L30.0139 21.713C28.2983 17.2656 26.8465 13.5783 26.7874 13.519C26.7284 13.4598 25.477 16.8432 24.0067 21.0378Z" fill="#FF730E"/>
<path d="M74.8698 7.4226V26.3226H71.4102V10.3926H63.9505L63.7884 15.1176C63.6982 17.7636 63.482 19.9146 63.1397 21.5706C62.7973 23.2086 62.2477 24.4596 61.491 25.3236C60.7341 26.1696 59.6891 26.5926 58.3557 26.5926C57.8873 26.5926 57.2476 26.5027 56.4368 26.3226L56.68 23.2717C56.9142 23.3437 57.1845 23.3796 57.4908 23.3796C58.5899 23.3796 59.3647 22.7316 59.8151 21.4356C60.2837 20.1216 60.572 18.0606 60.68 15.2526L60.9504 7.4226H74.8698ZM134.031 26.5926C132.103 26.5926 130.365 26.1786 128.815 25.3505C127.265 24.5046 126.049 23.3437 125.166 21.8676C124.283 20.3735 123.842 18.7086 123.842 16.8726C123.842 15.0366 124.283 13.3806 125.166 11.9046C126.049 10.4106 127.265 9.2496 128.815 8.4216C130.365 7.57559 132.103 7.15259 134.031 7.15259C135.96 7.15259 137.698 7.57559 139.248 8.4216C140.798 9.2496 142.014 10.4016 142.897 11.8776C143.78 13.3536 144.221 15.0186 144.221 16.8726C144.221 18.7265 143.78 20.3917 142.897 21.8676C142.014 23.3437 140.798 24.5046 139.248 25.3505C137.698 26.1786 135.96 26.5926 134.031 26.5926ZM134.031 23.5146C135.293 23.5146 136.428 23.2356 137.437 22.6775C138.446 22.1015 139.239 21.3095 139.815 20.3015C140.392 19.2756 140.68 18.1326 140.68 16.8726C140.68 15.6126 140.392 14.4786 139.815 13.4706C139.239 12.4446 138.446 11.6526 137.437 11.0946C136.428 10.5186 135.293 10.2306 134.031 10.2306C132.77 10.2306 131.635 10.5186 130.626 11.0946C129.617 11.6526 128.824 12.4446 128.248 13.4706C127.671 14.4786 127.383 15.6126 127.383 16.8726C127.383 18.1326 127.671 19.2756 128.248 20.3015C128.824 21.3095 129.617 22.1015 130.626 22.6775C131.635 23.2356 132.77 23.5146 134.031 23.5146Z" fill="#FF730E"/>
<path d="M85.1925 11.7426C87.3186 11.7426 88.9404 12.2556 90.0574 13.2816C91.1927 14.2896 91.7603 15.8195 91.7603 17.8716V26.3226H88.571V24.5676C88.1565 25.1975 87.5619 25.6835 86.7871 26.0256C86.0304 26.3495 85.1114 26.5116 84.0303 26.5116C82.9491 26.5116 82.0032 26.3315 81.1922 25.9715C80.3814 25.5936 79.7507 25.0806 79.3003 24.4326C78.8678 23.7665 78.6516 23.0195 78.6516 22.1916C78.6516 20.8956 79.1292 19.8605 80.0841 19.0865C81.0572 18.2945 82.5798 17.8986 84.6518 17.8986H88.3817V17.6826C88.3817 16.6746 88.0755 15.9005 87.4627 15.3605C86.8682 14.8205 85.9763 14.5506 84.787 14.5506C83.9762 14.5506 83.1744 14.6765 82.3815 14.9285C81.6067 15.1805 80.949 15.5315 80.4085 15.9815L79.0841 13.5245C79.8409 12.9485 80.7508 12.5076 81.8139 12.2016C82.8771 11.8956 84.0031 11.7426 85.1925 11.7426ZM84.733 24.0545C85.5798 24.0545 86.3277 23.8656 86.9764 23.4876C87.643 23.0915 88.1114 22.5335 88.3817 21.8135V20.1395H84.8952C82.9491 20.1395 81.976 20.7786 81.976 22.0566C81.976 22.6685 82.2194 23.1546 82.7058 23.5146C83.1923 23.8746 83.8681 24.0545 84.733 24.0545ZM95.9409 11.9045H99.3195V17.7635H106.59V11.9045H109.969V26.3226H106.59V20.6256H99.3195V26.3226H95.9409V11.9045ZM113.713 17.4125H121.145V20.2205H113.713V17.4125ZM161.566 11.9045V26.3226H158.215V14.7666H151.106V26.3226H147.727V11.9045H161.566ZM177.557 14.7666H172.503V26.3226H169.125V14.7666H164.043V11.9045H177.557V14.7666ZM180.008 11.9045H183.387V21.4086L191.36 11.9045H194.441V26.3226H191.062V16.8186L183.117 26.3226H180.008V11.9045ZM204.986 20.5446H202.365V26.3226H198.986V11.9045H202.365V17.7366H205.067L209.337 11.9045H212.959L207.715 18.8435L213.311 26.3226H209.337L204.986 20.5446Z" fill="#F1F4F9"/>
<path d="M62.3734 43.3548H61.5424V36.9535H57.8717V43.3548H57.0408V36.2161H62.3734V43.3548ZM69.3279 43.3548H65.3443V36.2161H69.3279V36.9535H66.1752V39.2533H69.1373V39.9857H66.1752V42.6127H69.3279V43.3548ZM76.4486 38.2962C76.4486 39.0189 76.2009 39.5755 75.7057 39.9662C75.2136 40.3536 74.5082 40.5471 73.5892 40.5471H72.7485V43.3548H71.9175V36.2161H73.7701C75.5558 36.2161 76.4486 36.9095 76.4486 38.2962ZM72.7485 39.8343H73.4963C74.2328 39.8343 74.7655 39.7155 75.0947 39.4778C75.4238 39.2403 75.5884 38.8594 75.5884 38.3353C75.5884 37.8633 75.4335 37.5117 75.124 37.2807C74.8145 37.0495 74.3321 36.934 73.6772 36.934H72.7485V39.8343ZM82.9338 43.3548H78.9502V36.2161H82.9338V36.9535H79.7811V39.2533H82.7433V39.9857H79.7811V42.6127H82.9338V43.3548ZM91.1592 45.2152H90.3675V43.3548H85.4013V45.2152H84.6095V42.6029H85.1618C85.6637 41.7598 86.0921 40.7343 86.4474 39.5267C86.8057 38.319 87.0046 37.2155 87.0437 36.2161H90.2549V42.6029H91.1592V45.2152ZM89.424 42.6029V36.9632H87.7963C87.7377 37.7511 87.5406 38.6982 87.205 39.805C86.8693 40.9085 86.4782 41.8411 86.0318 42.6029H89.424ZM99.5703 39.7757C99.5703 40.9183 99.2803 41.8168 98.7003 42.471C98.1235 43.1254 97.3203 43.4525 96.2905 43.4525C95.238 43.4525 94.4251 43.1319 93.8516 42.4905C93.2813 41.8461 92.9961 40.9378 92.9961 39.766C92.9961 38.6039 93.2829 37.7038 93.8564 37.0657C94.4299 36.4246 95.2445 36.1039 96.3004 36.1039C97.3268 36.1039 98.1285 36.4294 98.7052 37.0804C99.282 37.7314 99.5703 38.6299 99.5703 39.7757ZM93.8759 39.7757C93.8759 40.7425 94.0813 41.4766 94.4919 41.9778C94.9057 42.476 95.5053 42.7249 96.2905 42.7249C97.0824 42.7249 97.6804 42.476 98.0845 41.9778C98.4885 41.4799 98.6905 40.7458 98.6905 39.7757C98.6905 38.8154 98.4885 38.0878 98.0845 37.5931C97.6836 37.095 97.0889 36.846 96.3004 36.846C95.5085 36.846 94.9057 37.0967 94.4919 37.5979C94.0813 38.096 93.8759 38.8219 93.8759 39.7757ZM102.17 36.2161H104.188C105.137 36.2161 105.823 36.3578 106.246 36.641C106.67 36.9242 106.882 37.3717 106.882 37.9838C106.882 38.407 106.763 38.7569 106.525 39.0336C106.29 39.307 105.946 39.4843 105.493 39.5658V39.6145C106.579 39.8002 107.121 40.3698 107.121 41.3236C107.121 41.9616 106.904 42.4597 106.471 42.8177C106.041 43.1758 105.438 43.3548 104.663 43.3548H102.17V36.2161ZM103.001 39.2728H104.369C104.956 39.2728 105.378 39.1816 105.635 38.9994C105.893 38.8139 106.021 38.503 106.021 38.0668C106.021 37.6664 105.878 37.3782 105.591 37.2025C105.305 37.0235 104.848 36.934 104.223 36.934H103.001V39.2728ZM103.001 39.9759V42.6467H104.492C105.068 42.6467 105.502 42.5362 105.792 42.3148C106.085 42.0901 106.232 41.7402 106.232 41.265C106.232 40.8223 106.082 40.4968 105.782 40.2884C105.485 40.0801 105.032 39.9759 104.423 39.9759H103.001ZM109.662 43.3548V36.2161H110.493V39.2631H111.661C112.512 39.2631 113.16 39.4307 113.606 39.766C114.053 40.0979 114.276 40.6009 114.276 41.2747C114.276 41.9453 114.064 42.4597 113.641 42.8177C113.22 43.1758 112.604 43.3548 111.793 43.3548H109.662ZM110.493 42.6467H111.7C112.29 42.6467 112.723 42.5329 113 42.305C113.277 42.0738 113.416 41.7304 113.416 41.2747C113.416 40.8288 113.269 40.5066 112.976 40.3079C112.686 40.1062 112.215 40.0052 111.563 40.0052H110.493V42.6467ZM116.236 43.3548H115.405V36.2161H116.236V43.3548ZM123.191 43.3548H119.207V36.2161H123.191V36.9535H120.038V39.2533H123V39.9857H120.038V42.6127H123.191V43.3548ZM131.581 43.3548H130.75V36.9535H128.487V36.2161H133.844V36.9535H131.581V43.3548ZM139.909 43.3548H135.926V36.2161H139.909V36.9535H136.757V39.2533H139.719V39.9857H136.757V42.6127H139.909V43.3548ZM147.255 43.3548H146.311L144.39 40.2152L142.435 43.3548H141.555L143.931 39.6243L141.717 36.2161H142.636L144.41 39.0433L146.199 36.2161H147.084L144.87 39.595L147.255 43.3548ZM154.703 43.3548H153.872V39.9954H150.108V43.3548H149.277V36.2161H150.108V39.2533H153.872V36.2161H154.703V43.3548ZM163.872 39.7757C163.872 40.9183 163.582 41.8168 163.001 42.471C162.424 43.1254 161.622 43.4525 160.592 43.4525C159.54 43.4525 158.726 43.1319 158.153 42.4905C157.582 41.8461 157.297 40.9378 157.297 39.766C157.297 38.6039 157.584 37.7038 158.157 37.0657C158.731 36.4246 159.546 36.1039 160.602 36.1039C161.628 36.1039 162.429 36.4294 163.006 37.0804C163.584 37.7314 163.872 38.6299 163.872 39.7757ZM158.177 39.7757C158.177 40.7425 158.382 41.4766 158.793 41.9778C159.207 42.476 159.807 42.7249 160.592 42.7249C161.384 42.7249 161.981 42.476 162.386 41.9778C162.79 41.4799 162.992 40.7458 162.992 39.7757C162.992 38.8154 162.79 38.0878 162.386 37.5931C161.984 37.095 161.391 36.846 160.602 36.846C159.81 36.846 159.207 37.0967 158.793 37.5979C158.382 38.096 158.177 38.8219 158.177 39.7757ZM171.554 43.3548H170.723V36.9535H168.401L168.251 38.1253C168.051 39.6845 167.876 40.8255 167.722 41.5482C167.572 42.2675 167.374 42.7689 167.126 43.0521C166.878 43.3353 166.549 43.4736 166.138 43.4671C165.898 43.4671 165.681 43.4265 165.489 43.3451V42.6467C165.664 42.7314 165.848 42.7737 166.041 42.7737C166.214 42.7737 166.363 42.7037 166.49 42.5638C166.62 42.4205 166.735 42.1748 166.833 41.8266C166.933 41.4749 167.059 40.8108 167.209 39.8343C167.363 38.8544 167.53 37.6484 167.713 36.2161H171.554V43.3548ZM180.724 39.7757C180.724 40.9183 180.432 41.8168 179.853 42.471C179.276 43.1254 178.473 43.4525 177.444 43.4525C176.392 43.4525 175.578 43.1319 175.004 42.4905C174.434 41.8461 174.149 40.9378 174.149 39.766C174.149 38.6039 174.435 37.7038 175.009 37.0657C175.582 36.4246 176.398 36.1039 177.453 36.1039C178.479 36.1039 179.281 36.4294 179.857 37.0804C180.436 37.7314 180.724 38.6299 180.724 39.7757ZM175.029 39.7757C175.029 40.7425 175.234 41.4766 175.644 41.9778C176.058 42.476 176.658 42.7249 177.444 42.7249C178.234 42.7249 178.833 42.476 179.237 41.9778C179.642 41.4799 179.843 40.7458 179.843 39.7757C179.843 38.8154 179.642 38.0878 179.237 37.5931C178.836 37.095 178.242 36.846 177.453 36.846C176.661 36.846 176.058 37.0967 175.644 37.5979C175.234 38.096 175.029 38.8219 175.029 39.7757ZM187.307 36.2161V36.9632H184.154V43.3548H183.323V36.2161H187.307ZM189.543 36.2161H190.321V40.1859C190.321 40.9183 190.298 41.5807 190.253 42.1732H190.292L194.3 36.2161H195.209V43.3548H194.427V39.4241C194.427 38.7699 194.455 38.083 194.509 37.3636H194.466L190.453 43.3548H189.543V36.2161ZM198.18 36.2161H198.956V40.1859C198.956 40.9183 198.935 41.5807 198.888 42.1732H198.927L202.935 36.2161H203.845V43.3548H203.062V39.4241C203.062 38.7699 203.09 38.083 203.146 37.3636H203.101L199.088 43.3548H198.18V36.2161ZM213.468 36.8558C212.682 36.8558 212.062 37.1179 211.604 37.6419C211.152 38.1628 210.926 38.8774 210.926 39.7855C210.926 40.7198 211.144 41.4424 211.581 41.9535C212.02 42.4612 212.646 42.7152 213.457 42.7152C213.956 42.7152 214.525 42.6257 215.163 42.4467V43.1741C214.667 43.3598 214.057 43.4525 213.33 43.4525C212.277 43.4525 211.465 43.1334 210.891 42.4955C210.321 41.8574 210.036 40.9508 210.036 39.7757C210.036 39.0401 210.172 38.3955 210.447 37.8421C210.724 37.2887 211.121 36.8623 211.639 36.5628C212.161 36.2634 212.773 36.1136 213.477 36.1136C214.227 36.1136 214.881 36.2504 215.442 36.5238L215.09 37.2367C214.549 36.9827 214.008 36.8558 213.468 36.8558ZM217.724 36.2161H219.742C220.691 36.2161 221.377 36.3578 221.8 36.641C222.223 36.9242 222.436 37.3717 222.436 37.9838C222.436 38.407 222.316 38.7569 222.079 39.0336C221.844 39.307 221.5 39.4843 221.047 39.5658V39.6145C222.132 39.8002 222.675 40.3698 222.675 41.3236C222.675 41.9616 222.458 42.4597 222.025 42.8177C221.594 43.1758 220.991 43.3548 220.216 43.3548H217.724V36.2161ZM218.555 39.2728H219.923C220.509 39.2728 220.932 39.1816 221.19 38.9994C221.447 38.8139 221.576 38.503 221.576 38.0668C221.576 37.6664 221.431 37.3782 221.145 37.2025C220.858 37.0235 220.402 36.934 219.776 36.934H218.555V39.2728ZM218.555 39.9759V42.6467H220.046C220.622 42.6467 221.055 42.5362 221.346 42.3148C221.639 42.0901 221.785 41.7402 221.785 41.265C221.785 40.8223 221.636 40.4968 221.335 40.2884C221.039 40.0801 220.587 39.9759 219.978 39.9759H218.555ZM227.337 40.3763L225.465 43.3548H224.482L226.486 40.2347C225.962 40.0687 225.581 39.818 225.342 39.4828C225.105 39.1441 224.986 38.7177 224.986 38.2035C224.986 37.5654 225.206 37.0755 225.646 36.7338C226.089 36.3886 226.759 36.2161 227.655 36.2161H229.62V43.3548H228.789V40.3763H227.337ZM228.789 36.934H227.679C227.083 36.934 226.63 37.0365 226.32 37.2415C226.01 37.4466 225.857 37.7803 225.857 38.2425C225.857 39.1898 226.474 39.6635 227.709 39.6635H228.789V36.934ZM236.736 37.8861C236.736 38.3548 236.586 38.7357 236.285 39.0286C235.989 39.3216 235.578 39.5072 235.054 39.5853V39.6243C235.651 39.7057 236.102 39.8929 236.408 40.1859C236.718 40.4788 236.873 40.8613 236.873 41.3334C236.873 42.0006 236.623 42.5215 236.124 42.8959C235.626 43.2669 234.923 43.4525 234.013 43.4525C233.182 43.4525 232.502 43.3239 231.97 43.0667V42.2953C232.283 42.445 232.619 42.5605 232.982 42.6419C233.346 42.7232 233.697 42.764 234.033 42.764C234.678 42.764 235.164 42.6419 235.495 42.3978C235.826 42.1536 235.992 41.8021 235.992 41.3432C235.992 40.907 235.808 40.5766 235.44 40.3519C235.075 40.1272 234.529 40.015 233.804 40.015H232.737V39.3168H233.759C234.427 39.3168 234.943 39.1979 235.309 38.9603C235.676 38.7194 235.86 38.3842 235.86 37.9544C235.86 37.6061 235.729 37.3279 235.465 37.1195C235.2 36.9112 234.845 36.807 234.399 36.807C234.041 36.807 233.717 36.8477 233.427 36.929C233.137 37.0105 232.801 37.1715 232.419 37.4124L232.009 36.8558C232.339 36.6116 232.706 36.4278 233.114 36.3041C233.525 36.1771 233.949 36.1136 234.389 36.1136C235.123 36.1136 235.696 36.2747 236.11 36.597C236.527 36.916 236.736 37.3457 236.736 37.8861ZM239.418 36.2161H240.196V40.1859C240.196 40.9183 240.172 41.5807 240.126 42.1732H240.166L244.175 36.2161H245.083V43.3548H244.302V39.4241C244.302 38.7699 244.328 38.083 244.384 37.3636H244.34L240.327 43.3548H239.418V36.2161Z" fill="white"/>
</svg>
