<svg width="1037" height="230" viewBox="0 0 1037 230" fill="none" xmlns="http://www.w3.org/2000/svg">
<path d="M17.536 38.312C14.78 38.312 12.297 37.714 10.087 36.518C7.877 35.296 6.135 33.619 4.861 31.487C3.613 29.355 2.989 26.976 2.989 24.35C2.989 21.724 3.613 19.345 4.861 17.213C6.135 15.081 7.877 13.417 10.087 12.221C12.297 10.999 14.78 10.388 17.536 10.388C20.266 10.388 22.736 10.999 24.946 12.221C27.156 13.417 28.885 15.081 30.133 17.213C31.381 19.319 32.005 21.698 32.005 24.35C32.005 27.002 31.381 29.394 30.133 31.526C28.885 33.632 27.156 35.296 24.946 36.518C22.736 37.714 20.266 38.312 17.536 38.312ZM17.536 34.841C19.538 34.841 21.332 34.386 22.918 33.476C24.53 32.566 25.791 31.318 26.701 29.732C27.637 28.12 28.105 26.326 28.105 24.35C28.105 22.374 27.637 20.593 26.701 19.007C25.791 17.395 24.53 16.134 22.918 15.224C21.332 14.314 19.538 13.859 17.536 13.859C15.534 13.859 13.714 14.314 12.076 15.224C10.464 16.134 9.19 17.395 8.254 19.007C7.344 20.593 6.889 22.374 6.889 24.35C6.889 26.326 7.344 28.12 8.254 29.732C9.19 31.318 10.464 32.566 12.076 33.476C13.714 34.386 15.534 34.841 17.536 34.841ZM59.7596 34.724V42.953H56.2106V38H37.6856V17.33H41.4296V34.724H52.7396V17.33H56.4836V34.724H59.7596ZM83.2934 27.782C83.2934 28.068 83.2674 28.445 83.2154 28.913H66.4454C66.6794 30.733 67.4724 32.202 68.8244 33.32C70.2024 34.412 71.9054 34.958 73.9334 34.958C76.4034 34.958 78.3924 34.126 79.9004 32.462L81.9674 34.88C81.0314 35.972 79.8614 36.804 78.4574 37.376C77.0794 37.948 75.5324 38.234 73.8164 38.234C71.6324 38.234 69.6954 37.792 68.0054 36.908C66.3154 35.998 65.0024 34.737 64.0664 33.125C63.1564 31.513 62.7014 29.693 62.7014 27.665C62.7014 25.663 63.1434 23.856 64.0274 22.244C64.9374 20.632 66.1724 19.384 67.7324 18.5C69.3184 17.59 71.0994 17.135 73.0754 17.135C75.0514 17.135 76.8064 17.59 78.3404 18.5C79.9004 19.384 81.1094 20.632 81.9674 22.244C82.8514 23.856 83.2934 25.702 83.2934 27.782ZM73.0754 20.294C71.2814 20.294 69.7734 20.84 68.5514 21.932C67.3554 23.024 66.6534 24.454 66.4454 26.222H79.7054C79.4974 24.48 78.7824 23.063 77.5604 21.971C76.3644 20.853 74.8694 20.294 73.0754 20.294ZM89.1016 17.33H92.8456V26.105H104.624V17.33H108.368V38H104.624V29.342H92.8456V38H89.1016V17.33ZM115.648 17.33H119.392V32.384L132.067 17.33H135.46V38H131.716V22.946L119.08 38H115.648V17.33ZM158.132 20.606H150.566V38H146.822V20.606H139.256V17.33H158.132V20.606ZM179.727 27.782C179.727 28.068 179.701 28.445 179.649 28.913H162.879C163.113 30.733 163.906 32.202 165.258 33.32C166.636 34.412 168.339 34.958 170.367 34.958C172.837 34.958 174.826 34.126 176.334 32.462L178.401 34.88C177.465 35.972 176.295 36.804 174.891 37.376C173.513 37.948 171.966 38.234 170.25 38.234C168.066 38.234 166.129 37.792 164.439 36.908C162.749 35.998 161.436 34.737 160.5 33.125C159.59 31.513 159.135 29.693 159.135 27.665C159.135 25.663 159.577 23.856 160.461 22.244C161.371 20.632 162.606 19.384 164.166 18.5C165.752 17.59 167.533 17.135 169.509 17.135C171.485 17.135 173.24 17.59 174.774 18.5C176.334 19.384 177.543 20.632 178.401 22.244C179.285 23.856 179.727 25.702 179.727 27.782ZM169.509 20.294C167.715 20.294 166.207 20.84 164.985 21.932C163.789 23.024 163.087 24.454 162.879 26.222H176.139C175.931 24.48 175.216 23.063 173.994 21.971C172.798 20.853 171.303 20.294 169.509 20.294ZM210.088 27.275C212.766 27.951 214.105 29.628 214.105 32.306C214.105 34.126 213.416 35.53 212.038 36.518C210.686 37.506 208.658 38 205.954 38H196.009V17.33H205.603C208.047 17.33 209.958 17.798 211.336 18.734C212.714 19.644 213.403 20.944 213.403 22.634C213.403 23.726 213.104 24.675 212.506 25.481C211.934 26.261 211.128 26.859 210.088 27.275ZM199.675 26.222H205.291C206.721 26.222 207.8 25.962 208.528 25.442C209.282 24.922 209.659 24.168 209.659 23.18C209.659 21.204 208.203 20.216 205.291 20.216H199.675V26.222ZM205.681 35.114C207.241 35.114 208.411 34.867 209.191 34.373C209.971 33.879 210.361 33.112 210.361 32.072C210.361 31.006 209.997 30.213 209.269 29.693C208.567 29.173 207.449 28.913 205.915 28.913H199.675V35.114H205.681ZM229.286 24.35C231.886 24.376 233.875 24.974 235.253 26.144C236.631 27.314 237.32 28.965 237.32 31.097C237.32 33.333 236.566 35.062 235.058 36.284C233.576 37.48 231.444 38.065 228.662 38.039L219.965 38V17.33H223.709V24.311L229.286 24.35ZM240.401 17.33H244.145V38H240.401V17.33ZM228.389 35.192C230.079 35.218 231.353 34.88 232.211 34.178C233.095 33.476 233.537 32.436 233.537 31.058C233.537 29.706 233.108 28.718 232.25 28.094C231.392 27.47 230.105 27.145 228.389 27.119L223.709 27.041V35.153L228.389 35.192ZM260.433 38.234C258.327 38.234 256.442 37.779 254.778 36.869C253.14 35.959 251.853 34.711 250.917 33.125C249.981 31.513 249.513 29.693 249.513 27.665C249.513 25.637 249.981 23.83 250.917 22.244C251.853 20.632 253.14 19.384 254.778 18.5C256.442 17.59 258.327 17.135 260.433 17.135C262.305 17.135 263.969 17.512 265.425 18.266C266.907 19.02 268.051 20.112 268.857 21.542L266.01 23.375C265.36 22.387 264.554 21.646 263.592 21.152C262.63 20.658 261.564 20.411 260.394 20.411C259.042 20.411 257.82 20.71 256.728 21.308C255.662 21.906 254.817 22.764 254.193 23.882C253.595 24.974 253.296 26.235 253.296 27.665C253.296 29.121 253.595 30.408 254.193 31.526C254.817 32.618 255.662 33.463 256.728 34.061C257.82 34.659 259.042 34.958 260.394 34.958C261.564 34.958 262.63 34.711 263.592 34.217C264.554 33.723 265.36 32.982 266.01 31.994L268.857 33.788C268.051 35.218 266.907 36.323 265.425 37.103C263.969 37.857 262.305 38.234 260.433 38.234ZM282.252 38.234C280.198 38.234 278.352 37.779 276.714 36.869C275.076 35.959 273.789 34.711 272.853 33.125C271.943 31.513 271.488 29.693 271.488 27.665C271.488 25.637 271.943 23.83 272.853 22.244C273.789 20.632 275.076 19.384 276.714 18.5C278.352 17.59 280.198 17.135 282.252 17.135C284.306 17.135 286.139 17.59 287.751 18.5C289.389 19.384 290.663 20.632 291.573 22.244C292.509 23.83 292.977 25.637 292.977 27.665C292.977 29.693 292.509 31.513 291.573 33.125C290.663 34.711 289.389 35.959 287.751 36.869C286.139 37.779 284.306 38.234 282.252 38.234ZM282.252 34.958C283.578 34.958 284.761 34.659 285.801 34.061C286.867 33.437 287.699 32.579 288.297 31.487C288.895 30.369 289.194 29.095 289.194 27.665C289.194 26.235 288.895 24.974 288.297 23.882C287.699 22.764 286.867 21.906 285.801 21.308C284.761 20.71 283.578 20.411 282.252 20.411C280.926 20.411 279.73 20.71 278.664 21.308C277.624 21.906 276.792 22.764 276.168 23.882C275.57 24.974 275.271 26.235 275.271 27.665C275.271 29.095 275.57 30.369 276.168 31.487C276.792 32.579 277.624 33.437 278.664 34.061C279.73 34.659 280.926 34.958 282.252 34.958ZM306.418 29.264H302.128V38H298.384V17.33H302.128V26.066H306.496L313.204 17.33H317.221L309.382 27.275L317.767 38H313.36L306.418 29.264ZM329.86 38.234C327.806 38.234 325.96 37.779 324.322 36.869C322.684 35.959 321.397 34.711 320.461 33.125C319.551 31.513 319.096 29.693 319.096 27.665C319.096 25.637 319.551 23.83 320.461 22.244C321.397 20.632 322.684 19.384 324.322 18.5C325.96 17.59 327.806 17.135 329.86 17.135C331.914 17.135 333.747 17.59 335.359 18.5C336.997 19.384 338.271 20.632 339.181 22.244C340.117 23.83 340.585 25.637 340.585 27.665C340.585 29.693 340.117 31.513 339.181 33.125C338.271 34.711 336.997 35.959 335.359 36.869C333.747 37.779 331.914 38.234 329.86 38.234ZM329.86 34.958C331.186 34.958 332.369 34.659 333.409 34.061C334.475 33.437 335.307 32.579 335.905 31.487C336.503 30.369 336.802 29.095 336.802 27.665C336.802 26.235 336.503 24.974 335.905 23.882C335.307 22.764 334.475 21.906 333.409 21.308C332.369 20.71 331.186 20.411 329.86 20.411C328.534 20.411 327.338 20.71 326.272 21.308C325.232 21.906 324.4 22.764 323.776 23.882C323.178 24.974 322.879 26.235 322.879 27.665C322.879 29.095 323.178 30.369 323.776 31.487C324.4 32.579 325.232 33.437 326.272 34.061C327.338 34.659 328.534 34.958 329.86 34.958ZM364.672 27.782C364.672 28.068 364.646 28.445 364.594 28.913H347.824C348.058 30.733 348.851 32.202 350.203 33.32C351.581 34.412 353.284 34.958 355.312 34.958C357.782 34.958 359.771 34.126 361.279 32.462L363.346 34.88C362.41 35.972 361.24 36.804 359.836 37.376C358.458 37.948 356.911 38.234 355.195 38.234C353.011 38.234 351.074 37.792 349.384 36.908C347.694 35.998 346.381 34.737 345.445 33.125C344.535 31.513 344.08 29.693 344.08 27.665C344.08 25.663 344.522 23.856 345.406 22.244C346.316 20.632 347.551 19.384 349.111 18.5C350.697 17.59 352.478 17.135 354.454 17.135C356.43 17.135 358.185 17.59 359.719 18.5C361.279 19.384 362.488 20.632 363.346 22.244C364.23 23.856 364.672 25.702 364.672 27.782ZM354.454 20.294C352.66 20.294 351.152 20.84 349.93 21.932C348.734 23.024 348.032 24.454 347.824 26.222H361.084C360.876 24.48 360.161 23.063 358.939 21.971C357.743 20.853 356.248 20.294 354.454 20.294ZM12.661 77.264H8.371V86H4.627V65.33H8.371V74.066H12.739L19.447 65.33H23.464L15.625 75.275L24.01 86H19.603L12.661 77.264ZM34.9257 65.135C37.7857 65.135 39.9697 65.837 41.4777 67.241C43.0117 68.645 43.7787 70.738 43.7787 73.52V86H40.2297V83.27C39.6057 84.232 38.7087 84.973 37.5387 85.493C36.3947 85.987 35.0297 86.234 33.4437 86.234C31.1297 86.234 29.2707 85.675 27.8667 84.557C26.4887 83.439 25.7997 81.97 25.7997 80.15C25.7997 78.33 26.4627 76.874 27.7887 75.782C29.1147 74.664 31.2207 74.105 34.1067 74.105H40.0347V73.364C40.0347 71.752 39.5667 70.517 38.6307 69.659C37.6947 68.801 36.3167 68.372 34.4967 68.372C33.2747 68.372 32.0787 68.58 30.9087 68.996C29.7387 69.386 28.7507 69.919 27.9447 70.595L26.3847 67.787C27.4507 66.929 28.7247 66.279 30.2067 65.837C31.6887 65.369 33.2617 65.135 34.9257 65.135ZM34.0677 83.348C35.4977 83.348 36.7327 83.036 37.7727 82.412C38.8127 81.762 39.5667 80.852 40.0347 79.682V76.796H34.2627C31.0907 76.796 29.5047 77.862 29.5047 79.994C29.5047 81.034 29.9077 81.853 30.7137 82.451C31.5197 83.049 32.6377 83.348 34.0677 83.348ZM67.0176 65.33V86H63.2736V77.654C61.0376 78.694 58.8146 79.214 56.6046 79.214C54.0306 79.214 52.0416 78.616 50.6376 77.42C49.2336 76.224 48.5316 74.43 48.5316 72.038V65.33H52.2756V71.804C52.2756 73.234 52.7176 74.313 53.6016 75.041C54.5116 75.769 55.7726 76.133 57.3846 76.133C59.2046 76.133 61.1676 75.678 63.2736 74.768V65.33H67.0176ZM92.9672 75.782C92.9672 76.068 92.9412 76.445 92.8892 76.913H76.1192C76.3532 78.733 77.1462 80.202 78.4982 81.32C79.8762 82.412 81.5792 82.958 83.6072 82.958C86.0772 82.958 88.0662 82.126 89.5742 80.462L91.6412 82.88C90.7052 83.972 89.5352 84.804 88.1312 85.376C86.7532 85.948 85.2062 86.234 83.4902 86.234C81.3062 86.234 79.3692 85.792 77.6792 84.908C75.9892 83.998 74.6762 82.737 73.7402 81.125C72.8302 79.513 72.3752 77.693 72.3752 75.665C72.3752 73.663 72.8172 71.856 73.7012 70.244C74.6112 68.632 75.8462 67.384 77.4062 66.5C78.9922 65.59 80.7732 65.135 82.7492 65.135C84.7252 65.135 86.4802 65.59 88.0142 66.5C89.5742 67.384 90.7832 68.632 91.6412 70.244C92.5252 71.856 92.9672 73.702 92.9672 75.782ZM82.7492 68.294C80.9552 68.294 79.4472 68.84 78.2252 69.932C77.0292 71.024 76.3272 72.454 76.1192 74.222H89.3792C89.1712 72.48 88.4562 71.063 87.2342 69.971C86.0382 68.853 84.5432 68.294 82.7492 68.294ZM107.784 86.234C105.678 86.234 103.793 85.779 102.129 84.869C100.491 83.959 99.2044 82.711 98.2684 81.125C97.3324 79.513 96.8644 77.693 96.8644 75.665C96.8644 73.637 97.3324 71.83 98.2684 70.244C99.2044 68.632 100.491 67.384 102.129 66.5C103.793 65.59 105.678 65.135 107.784 65.135C109.656 65.135 111.32 65.512 112.776 66.266C114.258 67.02 115.402 68.112 116.208 69.542L113.361 71.375C112.711 70.387 111.905 69.646 110.943 69.152C109.981 68.658 108.915 68.411 107.745 68.411C106.393 68.411 105.171 68.71 104.079 69.308C103.013 69.906 102.168 70.764 101.544 71.882C100.946 72.974 100.647 74.235 100.647 75.665C100.647 77.121 100.946 78.408 101.544 79.526C102.168 80.618 103.013 81.463 104.079 82.061C105.171 82.659 106.393 82.958 107.745 82.958C108.915 82.958 109.981 82.711 110.943 82.217C111.905 81.723 112.711 80.982 113.361 79.994L116.208 81.788C115.402 83.218 114.258 84.323 112.776 85.103C111.32 85.857 109.656 86.234 107.784 86.234ZM136.194 68.606H128.628V86H124.884V68.606H117.318V65.33H136.194V68.606ZM154.102 75.275C156.78 75.951 158.119 77.628 158.119 80.306C158.119 82.126 157.43 83.53 156.052 84.518C154.7 85.506 152.672 86 149.968 86H140.023V65.33H149.617C152.061 65.33 153.972 65.798 155.35 66.734C156.728 67.644 157.417 68.944 157.417 70.634C157.417 71.726 157.118 72.675 156.52 73.481C155.948 74.261 155.142 74.859 154.102 75.275ZM143.689 74.222H149.305C150.735 74.222 151.814 73.962 152.542 73.442C153.296 72.922 153.673 72.168 153.673 71.18C153.673 69.204 152.217 68.216 149.305 68.216H143.689V74.222ZM149.695 83.114C151.255 83.114 152.425 82.867 153.205 82.373C153.985 81.879 154.375 81.112 154.375 80.072C154.375 79.006 154.011 78.213 153.283 77.693C152.581 77.173 151.463 76.913 149.929 76.913H143.689V83.114H149.695ZM172.832 86.234C170.778 86.234 168.932 85.779 167.294 84.869C165.656 83.959 164.369 82.711 163.433 81.125C162.523 79.513 162.068 77.693 162.068 75.665C162.068 73.637 162.523 71.83 163.433 70.244C164.369 68.632 165.656 67.384 167.294 66.5C168.932 65.59 170.778 65.135 172.832 65.135C174.886 65.135 176.719 65.59 178.331 66.5C179.969 67.384 181.243 68.632 182.153 70.244C183.089 71.83 183.557 73.637 183.557 75.665C183.557 77.693 183.089 79.513 182.153 81.125C181.243 82.711 179.969 83.959 178.331 84.869C176.719 85.779 174.886 86.234 172.832 86.234ZM172.832 82.958C174.158 82.958 175.341 82.659 176.381 82.061C177.447 81.437 178.279 80.579 178.877 79.487C179.475 78.369 179.774 77.095 179.774 75.665C179.774 74.235 179.475 72.974 178.877 71.882C178.279 70.764 177.447 69.906 176.381 69.308C175.341 68.71 174.158 68.411 172.832 68.411C171.506 68.411 170.31 68.71 169.244 69.308C168.204 69.906 167.372 70.764 166.748 71.882C166.15 72.974 165.851 74.235 165.851 75.665C165.851 77.095 166.15 78.369 166.748 79.487C167.372 80.579 168.204 81.437 169.244 82.061C170.31 82.659 171.506 82.958 172.832 82.958ZM199.905 58.7H203.805V86H199.905V58.7ZM222.625 58.7C226.161 58.7 228.943 59.545 230.971 61.235C232.999 62.925 234.013 65.252 234.013 68.216C234.013 71.18 232.999 73.507 230.971 75.197C228.943 76.887 226.161 77.732 222.625 77.732H215.878V86H211.978V58.7H222.625ZM222.508 74.339C224.978 74.339 226.863 73.819 228.163 72.779C229.463 71.713 230.113 70.192 230.113 68.216C230.113 66.24 229.463 64.732 228.163 63.692C226.863 62.626 224.978 62.093 222.508 62.093H215.878V74.339H222.508ZM244.287 62.093H234.927V58.7H257.508V62.093H248.148V86H244.287V62.093ZM285.163 58.7L273.19 86H269.329L257.317 58.7H261.529L271.357 81.125L281.263 58.7H285.163Z" fill="white"/>
<g filter="url(#filter0_d)">
<path fill-rule="evenodd" clip-rule="evenodd" d="M609.602 125.787C603.875 127.822 602.102 135.575 606.342 140.038C607.296 141.043 608.676 141.938 609.716 142.226C610.814 142.531 616.311 142.715 624.341 142.716L637.207 142.719V170.838V198.958L638.264 200.768C640.964 205.395 648.375 206.205 652.031 202.273C654.392 199.735 654.362 200.15 654.362 170.332V142.704L665.431 142.822L676.5 142.94L684.071 161.049C688.235 171.01 691.849 179.656 692.102 180.263C692.355 180.871 693.881 184.537 695.493 188.411C697.105 192.285 698.986 196.275 699.674 197.279C705.852 206.296 718.728 207.489 726.644 199.78C729.03 197.455 729.63 196.411 732.46 189.656C733.555 187.041 734.632 184.504 734.852 184.018C735.072 183.532 736.561 179.954 738.16 176.067C739.759 172.18 742.253 166.118 743.702 162.595C745.151 159.073 746.514 155.793 746.731 155.307C746.948 154.822 748.039 152.238 749.156 149.565C750.273 146.893 751.36 144.309 751.573 143.823C754.478 137.168 754.837 136.126 754.84 134.327C754.846 131.41 754.371 130.092 752.609 128.135C749.401 124.568 743.842 124.379 740.586 127.726C739.408 128.936 738.145 131.493 735.345 138.339C733.315 143.299 731.403 147.953 731.094 148.682C730.786 149.411 730.035 151.2 729.425 152.657C728.815 154.115 727.436 157.394 726.362 159.945C725.287 162.496 723.583 166.571 722.576 169C721.568 171.429 720.563 173.815 720.342 174.3C720.121 174.786 719.417 176.476 718.778 178.055C718.14 179.634 717.355 181.522 717.036 182.251C716.715 182.98 716.045 184.538 715.545 185.713C715.005 186.985 714.411 187.776 714.08 187.665C713.773 187.563 712.076 184.017 710.309 179.786C708.541 175.554 705.193 167.52 702.868 161.933C700.543 156.345 697.516 149.091 696.142 145.811C694.768 142.531 692.677 137.496 691.495 134.621C688.979 128.5 687.519 126.723 684.186 125.729C680.808 124.722 612.449 124.775 609.602 125.787ZM773.783 125.46C772.001 125.901 769.983 126.99 769.07 128.004C766.938 130.369 766.965 129.899 766.968 164.9C766.969 185.023 767.137 198.308 767.402 199.256C769.357 206.251 780.335 206.807 783.231 200.058C784.097 198.042 784.119 197.136 784.1 165.164C784.08 130.495 784.07 130.31 782.072 128.05C780.445 126.208 776.163 124.87 773.783 125.46ZM814.189 125.711C808.106 127.039 802.22 131.521 799.794 136.67C797.873 140.747 797.7 143.936 797.843 172.566L797.975 199.101L799.202 200.963C801.361 204.238 804.905 205.539 808.91 204.526C811.359 203.907 814.168 201.083 814.874 198.53C815.133 197.593 815.345 193.414 815.347 189.242L815.349 181.658L830.854 181.489C845.1 181.334 846.58 181.246 849.075 180.407C857.897 177.439 864.696 170.816 867.58 162.38C868.641 159.277 868.789 158.189 868.779 153.541C868.771 149.894 868.544 147.536 868.052 145.983C864.57 134.996 856.342 127.657 845.335 125.724C840.292 124.838 818.228 124.829 814.189 125.711ZM845.086 143.777C849.27 145.734 851.613 149.254 851.582 153.541C851.554 157.66 849.408 161.089 845.572 163.148C843.779 164.11 843.268 164.146 829.535 164.28L815.349 164.417V154.256C815.349 144.256 815.365 144.083 816.327 143.407C817.158 142.822 819.224 142.72 830.073 142.723C842.588 142.727 842.885 142.749 845.086 143.777Z" fill="white"/>
</g>
<path d="M1000.91 181.922V203.487" stroke="white" stroke-width="3.08078" stroke-linecap="round"/>
<path d="M987.047 174V195.565" stroke="white" stroke-width="3.08078" stroke-linecap="round"/>
<path fill-rule="evenodd" clip-rule="evenodd" d="M908.487 183.462H910.688C914.577 183.462 917.73 186.615 917.73 190.504V201.947C917.73 202.095 917.725 202.242 917.716 202.387H917.73V203.487C917.73 204.338 918.419 205.028 919.27 205.028C920.121 205.028 920.811 204.338 920.811 203.487V196.886C920.811 196.876 920.811 196.866 920.81 196.857V190.504C920.81 184.914 916.278 180.382 910.688 180.382H908.487C904.87 180.382 901.695 182.28 899.905 185.134C898.115 182.28 894.941 180.382 891.323 180.382H889.123C883.532 180.382 879 184.914 879 190.504V196.886V201.947V203.487C879 204.338 879.69 205.028 880.54 205.028C881.391 205.028 882.081 204.338 882.081 203.487V202.387H882.094C882.085 202.242 882.081 202.095 882.081 201.947V196.886V190.504C882.081 186.615 885.233 183.463 889.123 183.463H891.323C895.199 183.463 898.343 186.594 898.365 190.464L898.365 190.504V196.886V201.947V201.999C898.364 202.13 898.359 202.259 898.351 202.387H898.365V203.487C898.365 204.338 899.054 205.028 899.905 205.028C900.756 205.028 901.445 204.338 901.445 203.487V202.387H901.459C901.451 202.255 901.446 202.121 901.446 201.987L901.446 201.947V190.504L901.446 190.464C901.467 186.594 904.612 183.462 908.487 183.462Z" fill="white"/>
<circle cx="1000.91" cy="175.54" r="1.54039" fill="white"/>
<rect x="965.922" y="181.262" width="21.1253" height="22.0055" rx="8.58216" stroke="white" stroke-width="3.08078"/>
<path fill-rule="evenodd" clip-rule="evenodd" d="M1014.77 181.702C1014.77 180.851 1015.46 180.162 1016.31 180.162H1024.24C1024.24 180.162 1024.24 180.162 1024.25 180.162H1027.76C1032.57 180.162 1036.52 183.832 1036.96 188.524H1037V189.339C1037 189.36 1037 189.382 1037 189.404V191.605V194.685H1036.99C1036.76 200.315 1032.12 204.808 1026.44 204.808H1020.28C1015.9 204.808 1012.35 201.261 1012.35 196.886C1012.35 192.268 1016.1 188.524 1020.72 188.524H1033.86C1033.43 185.538 1030.86 183.242 1027.76 183.242H1022.04V183.242H1018.96V183.242V183.242H1016.31C1015.46 183.242 1014.77 182.553 1014.77 181.702ZM1033.92 191.605H1020.72C1017.8 191.605 1015.43 193.969 1015.43 196.886C1015.43 199.56 1017.6 201.727 1020.28 201.727H1026.44C1030.57 201.727 1033.92 198.377 1033.92 194.245V191.605Z" fill="white"/>
<path fill-rule="evenodd" clip-rule="evenodd" d="M952.279 203.267C952.279 204.118 951.589 204.808 950.739 204.808H942.817C942.813 204.808 942.809 204.808 942.805 204.808H939.736C934.836 204.808 930.786 201.169 930.143 196.446H930.053V195.192C930.053 195.17 930.053 195.148 930.053 195.125V193.365V190.284H930.053V190.284C930.053 184.451 934.783 179.721 940.616 179.721H944.137C949.971 179.721 954.7 184.451 954.7 190.284V192.925C954.7 194.869 953.123 196.446 951.179 196.446H933.266C933.878 199.459 936.542 201.727 939.736 201.727H941.056V201.727H948.098V201.727H950.739C951.589 201.727 952.279 202.417 952.279 203.267ZM933.134 193.365H951.179C951.422 193.365 951.619 193.168 951.619 192.925V190.284C951.619 186.152 948.269 182.802 944.137 182.802H940.616C936.484 182.802 933.134 186.152 933.134 190.284V193.365Z" fill="white"/>
<path d="M0.780029 160.4C0.780029 152.559 0.780029 148.639 2.30594 145.644C3.64817 143.01 5.78989 140.868 8.42416 139.526C11.4189 138 15.3393 138 23.18 138H199.38C207.221 138 211.141 138 214.136 139.526C216.77 140.868 218.912 143.01 220.254 145.644C221.78 148.639 221.78 152.559 221.78 160.4V163.6C221.78 171.441 221.78 175.361 220.254 178.356C218.912 180.99 216.77 183.132 214.136 184.474C211.141 186 207.221 186 199.38 186H23.18C15.3393 186 11.4189 186 8.42416 184.474C5.78989 183.132 3.64817 180.99 2.30594 178.356C0.780029 175.361 0.780029 171.441 0.780029 163.6V160.4Z" fill="#F05E02"/>
<path d="M70.6018 168H68.3386V159.182H64.3982V168H62.1277V157.292H70.6018V168ZM74.9084 163.891C74.9084 164.702 75.0403 165.314 75.304 165.729C75.5725 166.145 76.0071 166.352 76.6077 166.352C77.2034 166.352 77.6306 166.147 77.8894 165.737C78.1531 165.322 78.2849 164.707 78.2849 163.891C78.2849 163.081 78.1531 162.473 77.8894 162.067C77.6257 161.662 77.1936 161.459 76.593 161.459C75.9973 161.459 75.5676 161.662 75.304 162.067C75.0403 162.468 74.9084 163.076 74.9084 163.891ZM80.5701 163.891C80.5701 165.224 80.2185 166.267 79.5154 167.019C78.8123 167.771 77.8333 168.146 76.5784 168.146C75.7922 168.146 75.0989 167.976 74.4983 167.634C73.8977 167.287 73.4363 166.792 73.114 166.147C72.7917 165.502 72.6306 164.75 72.6306 163.891C72.6306 162.553 72.9797 161.513 73.678 160.771C74.3762 160.029 75.3577 159.658 76.6223 159.658C77.4084 159.658 78.1018 159.829 78.7024 160.17C79.303 160.512 79.7644 161.003 80.0867 161.643C80.4089 162.282 80.5701 163.032 80.5701 163.891ZM87.5427 166.367V161.489H85.8655C85.7434 162.397 85.575 163.259 85.3601 164.074C85.1501 164.89 84.8572 165.654 84.4812 166.367H87.5427ZM90.9778 170.937H88.9709V168H83.4631V170.937H81.4563V166.367H82.1448C82.6135 165.639 83.0066 164.721 83.324 163.613C83.6414 162.504 83.8635 161.237 83.9905 159.812H89.7766V166.367H90.9778V170.937ZM97.7454 159.812H100.206L96.9617 163.737L100.492 168H97.9578L94.6106 163.847V168H92.3767V159.812H94.6106V163.789L97.7454 159.812ZM108.995 168H106.761V161.489H104.703C104.547 163.32 104.357 164.687 104.132 165.59C103.907 166.489 103.607 167.141 103.231 167.546C102.86 167.946 102.372 168.146 101.766 168.146C101.249 168.146 100.824 168.068 100.492 167.912V166.125C100.731 166.223 100.97 166.271 101.21 166.271C101.488 166.271 101.72 166.071 101.906 165.671C102.096 165.271 102.264 164.604 102.411 163.671C102.562 162.734 102.692 161.447 102.799 159.812H108.995V168ZM122.655 163.891C122.655 165.234 122.316 166.279 121.637 167.026C120.958 167.773 120.018 168.146 118.817 168.146C117.738 168.146 116.874 167.844 116.224 167.238C115.58 166.633 115.189 165.761 115.052 164.624H113.58V168H111.346V159.812H113.58V162.961H115.082C115.223 161.916 115.626 161.105 116.29 160.529C116.959 159.948 117.816 159.658 118.861 159.658C120.018 159.658 120.939 160.039 121.622 160.8C122.311 161.557 122.655 162.587 122.655 163.891ZM117.301 163.891C117.301 164.707 117.421 165.322 117.66 165.737C117.899 166.147 118.295 166.352 118.846 166.352C119.388 166.352 119.779 166.147 120.018 165.737C120.258 165.322 120.377 164.707 120.377 163.891C120.377 163.076 120.255 162.468 120.011 162.067C119.772 161.662 119.379 161.459 118.832 161.459C118.29 161.459 117.899 161.662 117.66 162.067C117.421 162.473 117.301 163.081 117.301 163.891ZM126.464 159.812V162.807C126.464 163.52 126.793 163.876 127.452 163.876C127.882 163.876 128.28 163.828 128.646 163.73C129.017 163.632 129.391 163.505 129.767 163.349V159.812H132.001V168H129.767V164.748C129.249 165.021 128.768 165.214 128.324 165.327C127.88 165.439 127.45 165.495 127.035 165.495C126.141 165.495 125.45 165.268 124.962 164.814C124.474 164.355 124.23 163.703 124.23 162.858V159.812H126.464ZM136.505 159.812V163.049C136.505 163.391 136.449 164.226 136.337 165.554L140.116 159.812H142.804V168H140.643V164.733C140.643 164.152 140.692 163.332 140.79 162.272L137.025 168H134.344V159.812H136.505ZM151.93 159.812V161.489H149.249V168H147.015V161.489H144.327V159.812H151.93ZM155.695 162.976H157.269C158.529 162.976 159.462 163.176 160.067 163.576C160.673 163.977 160.975 164.582 160.975 165.393C160.975 167.131 159.769 168 157.357 168H153.461V159.812H155.695V162.976ZM158.741 165.422C158.741 165.104 158.615 164.875 158.361 164.733C158.107 164.592 157.728 164.521 157.225 164.521H155.695V166.455H157.255C158.246 166.455 158.741 166.11 158.741 165.422Z" fill="white"/>
<defs>
<filter id="filter0_d" x="583" y="108" width="306.779" height="121.878" filterUnits="userSpaceOnUse" color-interpolation-filters="sRGB">
<feFlood flood-opacity="0" result="BackgroundImageFix"/>
<feColorMatrix in="SourceAlpha" type="matrix" values="0 0 0 0 0 0 0 0 0 0 0 0 0 0 0 0 0 0 127 0"/>
<feOffset dy="4"/>
<feGaussianBlur stdDeviation="10.5"/>
<feColorMatrix type="matrix" values="0 0 0 0 0.433333 0 0 0 0 0.286 0 0 0 0 0 0 0 0 0.25 0"/>
<feBlend mode="normal" in2="BackgroundImageFix" result="effect1_dropShadow"/>
<feBlend mode="normal" in="SourceGraphic" in2="effect1_dropShadow" result="shape"/>
</filter>
</defs>
</svg>
