<svg width="1263" height="575" viewBox="0 0 1263 575" fill="none" xmlns="http://www.w3.org/2000/svg">
<g opacity="0.98" filter="url(#filter0_f)">
<path fill-rule="evenodd" clip-rule="evenodd" d="M241.416 501.823C230.973 476.527 240.197 466.112 258.732 446.032C276.687 426.58 291.592 456.864 317.524 451.584C334.923 448.041 343.996 420.328 366.013 411.696C384.249 404.546 404.451 416.221 410.79 435.416C416.944 454.054 407.492 473.828 396.822 490.275C387.935 503.973 358.484 512.303 344.841 521.259C324.09 534.88 322.207 558.598 297.581 555.42C270.927 551.98 251.684 526.697 241.416 501.823Z" fill="#C4C4C4"/>
<path fill-rule="evenodd" clip-rule="evenodd" d="M241.416 501.823C230.973 476.527 240.197 466.112 258.732 446.032C276.687 426.58 291.592 456.864 317.524 451.584C334.923 448.041 343.996 420.328 366.013 411.696C384.249 404.546 404.451 416.221 410.79 435.416C416.944 454.054 407.492 473.828 396.822 490.275C387.935 503.973 358.484 512.303 344.841 521.259C324.09 534.88 322.207 558.598 297.581 555.42C270.927 551.98 251.684 526.697 241.416 501.823Z" fill="url(#paint0_radial)"/>
</g>
<g filter="url(#filter1_f)">
<path fill-rule="evenodd" clip-rule="evenodd" d="M43.6309 101.269C53.5315 91.7438 65.6164 83.0822 79.2623 84.9597C93.9947 86.9866 106.286 97.4992 112.984 110.811C119.729 124.219 120.752 140.316 113.761 153.532C107.123 166.082 93.1258 171.671 79.2332 174.62C65.8554 177.459 51.0731 177.905 40.5707 169.066C30.3939 160.501 28.9414 146.06 29.5399 132.799C30.087 120.679 34.9115 109.659 43.6309 101.269Z" fill="#C4C4C4"/>
<path fill-rule="evenodd" clip-rule="evenodd" d="M43.6309 101.269C53.5315 91.7438 65.6164 83.0822 79.2623 84.9597C93.9947 86.9866 106.286 97.4992 112.984 110.811C119.729 124.219 120.752 140.316 113.761 153.532C107.123 166.082 93.1258 171.671 79.2332 174.62C65.8554 177.459 51.0731 177.905 40.5707 169.066C30.3939 160.501 28.9414 146.06 29.5399 132.799C30.087 120.679 34.9115 109.659 43.6309 101.269Z" fill="url(#paint1_radial)"/>
</g>
<g opacity="0.76" filter="url(#filter2_f)">
<path fill-rule="evenodd" clip-rule="evenodd" d="M553.397 212.27C563.234 211.458 573.896 212.118 580.645 219.357C587.931 227.173 590.006 238.607 587.694 249.061C585.366 259.59 578.63 269.02 568.738 273.208C559.345 277.186 549.012 273.946 539.936 269.283C531.196 264.793 522.76 258.332 520.922 248.643C519.141 239.253 524.886 230.551 531.238 223.436C537.043 216.934 544.732 212.985 553.397 212.27Z" fill="#C4C4C4"/>
<path fill-rule="evenodd" clip-rule="evenodd" d="M553.397 212.27C563.234 211.458 573.896 212.118 580.645 219.357C587.931 227.173 590.006 238.607 587.694 249.061C585.366 259.59 578.63 269.02 568.738 273.208C559.345 277.186 549.012 273.946 539.936 269.283C531.196 264.793 522.76 258.332 520.922 248.643C519.141 239.253 524.886 230.551 531.238 223.436C537.043 216.934 544.732 212.985 553.397 212.27Z" fill="url(#paint2_radial)"/>
</g>
<g filter="url(#filter3_f)">
<path fill-rule="evenodd" clip-rule="evenodd" d="M1245.89 77.0002C1245.95 100.681 1234.04 128.01 1211.92 136.264C1190.8 144.148 1172.13 121.302 1151.51 112.224C1139.5 106.937 1126.1 105.09 1117.85 94.856C1109.3 84.2372 1101.2 69.352 1106.97 56.9651C1112.56 44.9823 1129.96 47.5007 1142.2 42.6097C1149.27 39.7853 1155.33 36.6316 1162.69 34.7008C1179.46 30.3017 1196.19 16.5375 1211.64 24.3926C1230.99 34.2313 1245.83 55.208 1245.89 77.0002Z" fill="#C4C4C4"/>
<path fill-rule="evenodd" clip-rule="evenodd" d="M1245.89 77.0002C1245.95 100.681 1234.04 128.01 1211.92 136.264C1190.8 144.148 1172.13 121.302 1151.51 112.224C1139.5 106.937 1126.1 105.09 1117.85 94.856C1109.3 84.2372 1101.2 69.352 1106.97 56.9651C1112.56 44.9823 1129.96 47.5007 1142.2 42.6097C1149.27 39.7853 1155.33 36.6316 1162.69 34.7008C1179.46 30.3017 1196.19 16.5375 1211.64 24.3926C1230.99 34.2313 1245.83 55.208 1245.89 77.0002Z" fill="url(#paint3_radial)"/>
<path fill-rule="evenodd" clip-rule="evenodd" d="M1245.89 77.0002C1245.95 100.681 1234.04 128.01 1211.92 136.264C1190.8 144.148 1172.13 121.302 1151.51 112.224C1139.5 106.937 1126.1 105.09 1117.85 94.856C1109.3 84.2372 1101.2 69.352 1106.97 56.9651C1112.56 44.9823 1129.96 47.5007 1142.2 42.6097C1149.27 39.7853 1155.33 36.6316 1162.69 34.7008C1179.46 30.3017 1196.19 16.5375 1211.64 24.3926C1230.99 34.2313 1245.83 55.208 1245.89 77.0002Z" stroke="black"/>
</g>
<defs>
<filter id="filter0_f" x="219.873" y="386.685" width="221.974" height="188.016" filterUnits="userSpaceOnUse" color-interpolation-filters="sRGB">
<feFlood flood-opacity="0" result="BackgroundImageFix"/>
<feBlend mode="normal" in="SourceGraphic" in2="BackgroundImageFix" result="shape"/>
<feGaussianBlur stdDeviation="2" result="effect1_foregroundBlur"/>
</filter>
<filter id="filter1_f" x="0" y="62.0334" width="144.759" height="143.76" filterUnits="userSpaceOnUse" color-interpolation-filters="sRGB">
<feFlood flood-opacity="0" result="BackgroundImageFix"/>
<feBlend mode="normal" in="SourceGraphic" in2="BackgroundImageFix" result="shape"/>
<feGaussianBlur stdDeviation="4" result="effect1_foregroundBlur"/>
</filter>
<filter id="filter2_f" x="514.593" y="206" width="80" height="75" filterUnits="userSpaceOnUse" color-interpolation-filters="sRGB">
<feFlood flood-opacity="0" result="BackgroundImageFix"/>
<feBlend mode="normal" in="SourceGraphic" in2="BackgroundImageFix" result="shape"/>
<feGaussianBlur stdDeviation="3" result="effect1_foregroundBlur"/>
</filter>
<filter id="filter3_f" x="1088.03" y="0.433594" width="174.095" height="151.226" filterUnits="userSpaceOnUse" color-interpolation-filters="sRGB">
<feFlood flood-opacity="0" result="BackgroundImageFix"/>
<feBlend mode="normal" in="SourceGraphic" in2="BackgroundImageFix" result="shape"/>
<feGaussianBlur stdDeviation="4" result="effect1_foregroundBlur"/>
</filter>
<radialGradient id="paint0_radial" cx="0" cy="0" r="1" gradientUnits="userSpaceOnUse" gradientTransform="translate(326.463 490.218) rotate(-78.2969) scale(61.8277 127.847)">
<stop stop-color="#EE8700"/>
<stop offset="0.311664" stop-color="#EE8700"/>
<stop offset="1" stop-color="#FF5E00"/>
</radialGradient>
<radialGradient id="paint1_radial" cx="0" cy="0" r="1" gradientUnits="userSpaceOnUse" gradientTransform="translate(65.7076 134.645) rotate(-17.1252) scale(43.3452 68.1582)">
<stop stop-color="#EE8700"/>
<stop offset="0.311664" stop-color="#EE8700"/>
<stop offset="1" stop-color="#FF5E00"/>
</radialGradient>
<radialGradient id="paint2_radial" cx="0" cy="0" r="1" gradientUnits="userSpaceOnUse" gradientTransform="translate(550.545 240.879) rotate(22.0497) scale(31.1428 48.9706)">
<stop stop-color="#EE8700"/>
<stop offset="0.311664" stop-color="#EE8700"/>
<stop offset="1" stop-color="#FF5E00"/>
</radialGradient>
<radialGradient id="paint3_radial" cx="0" cy="0" r="1" gradientUnits="userSpaceOnUse" gradientTransform="translate(1181.9 70.1136) rotate(126.568) scale(55.4744 104.794)">
<stop stop-color="#EE8700"/>
<stop offset="0.311664" stop-color="#EE8700"/>
<stop offset="1" stop-color="#FF5E00"/>
</radialGradient>
</defs>
</svg>
