<svg width="1129" height="374" viewBox="0 0 1129 374" fill="none" xmlns="http://www.w3.org/2000/svg">
<path fill-rule="evenodd" clip-rule="evenodd" d="M14.2083 232.456C18.1563 228.657 22.9753 225.203 28.4169 225.952C34.2916 226.76 39.1931 230.952 41.8637 236.261C44.5536 241.607 44.9613 248.026 42.1739 253.296C39.5267 258.301 33.9451 260.53 28.4052 261.705C23.0707 262.838 17.176 263.015 12.988 259.491C8.92988 256.075 8.35066 250.317 8.58936 245.029C8.80752 240.196 10.7314 235.801 14.2083 232.456Z" fill="#C4C4C4"/>
<path fill-rule="evenodd" clip-rule="evenodd" d="M14.2083 232.456C18.1563 228.657 22.9753 225.203 28.4169 225.952C34.2916 226.76 39.1931 230.952 41.8637 236.261C44.5536 241.607 44.9613 248.026 42.1739 253.296C39.5267 258.301 33.9451 260.53 28.4052 261.705C23.0707 262.838 17.176 263.015 12.988 259.491C8.92988 256.075 8.35066 250.317 8.58936 245.029C8.80752 240.196 10.7314 235.801 14.2083 232.456Z" fill="url(#paint0_radial)"/>
<path fill-rule="evenodd" clip-rule="evenodd" d="M648.527 236.779C647.308 249.569 640.944 260.725 632.046 270.009C623.287 279.148 612.482 285.693 599.938 287.475C585.731 289.493 571.091 288.299 559.145 280.365C544.947 270.937 532.87 257.663 529.826 240.915C526.352 221.806 526.937 198.468 542.027 186.206C556.649 174.325 577.649 185.159 596.43 186.792C611.453 188.098 628.356 184.228 639.227 194.658C650.021 205.016 649.945 221.899 648.527 236.779Z" fill="#C4C4C4"/>
<path fill-rule="evenodd" clip-rule="evenodd" d="M648.527 236.779C647.308 249.569 640.944 260.725 632.046 270.009C623.287 279.148 612.482 285.693 599.938 287.475C585.731 289.493 571.091 288.299 559.145 280.365C544.947 270.937 532.87 257.663 529.826 240.915C526.352 221.806 526.937 198.468 542.027 186.206C556.649 174.325 577.649 185.159 596.43 186.792C611.453 188.098 628.356 184.228 639.227 194.658C650.021 205.016 649.945 221.899 648.527 236.779Z" fill="url(#paint1_radial)"/>
<path d="M910.29 53.3721C940.877 77.355 985.309 79.5853 1003.7 77.7026L1051.06 82.0473C1079.88 113.04 1134.13 189.188 1120.57 245.844C1103.63 316.663 1032.38 374.013 963.73 373.144C895.083 372.275 865.539 332.738 849.898 306.67C837.385 285.815 828.174 246.423 825.133 229.334C792.113 232.375 722.858 233.418 709.998 213.258C693.922 188.059 701.308 125.495 705.219 107.681C709.129 89.8678 736.066 28.1726 788.203 9.49029C840.34 -9.19206 872.056 23.3934 910.29 53.3721Z" fill="url(#paint2_radial)"/>
<g filter="url(#filter0_f)">
<path d="M878.217 58.7438C912.975 78.7294 1000.3 116.963 1018.99 111.315C1002.04 117.398 785.641 226.016 761.745 194.299C737.849 162.583 696.173 151.287 703.559 119.57C710.945 87.8535 737.884 48.7509 771.338 30.503C804.793 12.2552 843.459 38.7581 878.217 58.7438Z" fill="#FC680F" fill-opacity="0.78"/>
</g>
<path d="M878.182 72.5188C905.989 88.5074 950.305 81.2083 968.987 75.5601C988.538 68.8982 1035.55 58.9633 1067.18 72.5188C1106.72 89.4632 1126.7 131.607 1128.87 179.834C1131.05 228.06 1104.98 288.886 1075.87 317.127C1046.76 345.368 1008.96 361.009 948.567 357.099C888.175 353.188 852.114 288.017 840.383 267.597C828.652 247.177 800.846 254.998 783.902 261.08C766.957 267.163 736.979 273.68 713.082 241.963C689.186 210.247 691.793 163.324 699.179 131.607C706.565 99.8907 728.289 69.4775 761.743 51.2296C795.198 32.9818 843.424 52.5331 878.182 72.5188Z" fill="url(#paint3_radial)"/>
<path fill-rule="evenodd" clip-rule="evenodd" d="M943.298 39.7929C938.515 37.1221 933.807 33.5176 932.939 28.0939C932.002 22.2384 934.585 16.3287 938.885 12.228C943.217 8.09781 949.239 5.8387 955.092 6.97079C960.651 8.04592 964.408 12.7367 967.146 17.6941C969.783 22.4679 971.669 28.0554 969.517 33.0882C967.431 37.9649 962.091 40.1959 956.963 41.5073C952.275 42.706 947.511 42.1451 943.298 39.7929Z" fill="#C4C4C4"/>
<path fill-rule="evenodd" clip-rule="evenodd" d="M943.298 39.7929C938.515 37.1221 933.807 33.5176 932.939 28.0939C932.002 22.2384 934.585 16.3287 938.885 12.228C943.217 8.09781 949.239 5.8387 955.092 6.97079C960.651 8.04592 964.408 12.7367 967.146 17.6941C969.783 22.4679 971.669 28.0554 969.517 33.0882C967.431 37.9649 962.091 40.1959 956.963 41.5073C952.275 42.706 947.511 42.1451 943.298 39.7929Z" fill="url(#paint4_radial)"/>
<defs>
<filter id="filter0_f" x="691.694" y="13.387" width="338.292" height="197.704" filterUnits="userSpaceOnUse" color-interpolation-filters="sRGB">
<feFlood flood-opacity="0" result="BackgroundImageFix"/>
<feBlend mode="normal" in="SourceGraphic" in2="BackgroundImageFix" result="shape"/>
<feGaussianBlur stdDeviation="5.5" result="effect1_foregroundBlur"/>
</filter>
<radialGradient id="paint0_radial" cx="0" cy="0" r="1" gradientUnits="userSpaceOnUse" gradientTransform="translate(23.0117 245.765) rotate(-17.1252) scale(17.2845 27.1791)">
<stop stop-color="#EE8700"/>
<stop offset="0.311664" stop-color="#EE8700"/>
<stop offset="1" stop-color="#FF5E00"/>
</radialGradient>
<radialGradient id="paint1_radial" cx="0" cy="0" r="1" gradientUnits="userSpaceOnUse" gradientTransform="translate(593.808 227.36) rotate(113.981) scale(51.3023 91.2881)">
<stop stop-color="#EE8700"/>
<stop offset="0.311664" stop-color="#EE8700"/>
<stop offset="1" stop-color="#FF5E00"/>
</radialGradient>
<radialGradient id="paint2_radial" cx="0" cy="0" r="1" gradientUnits="userSpaceOnUse" gradientTransform="translate(948.601 154.762) rotate(157.777) scale(318.209 515.985)">
<stop stop-color="#EE8700"/>
<stop offset="0.354167" stop-color="#EE8700"/>
<stop offset="1" stop-color="#FF5E00"/>
</radialGradient>
<radialGradient id="paint3_radial" cx="0" cy="0" r="1" gradientUnits="userSpaceOnUse" gradientTransform="translate(885.603 187.782) rotate(17.4998) scale(193.612 250.925)">
<stop stop-color="#EE8700"/>
<stop offset="0.311664" stop-color="#EE8700"/>
<stop offset="1" stop-color="#FF5E00"/>
</radialGradient>
<radialGradient id="paint4_radial" cx="0" cy="0" r="1" gradientUnits="userSpaceOnUse" gradientTransform="translate(953.467 27.4956) rotate(-124.054) scale(17.2845 27.1791)">
<stop stop-color="#EE8700"/>
<stop offset="0.311664" stop-color="#EE8700"/>
<stop offset="1" stop-color="#FF5E00"/>
</radialGradient>
</defs>
</svg>
