<svg width="1267" height="542" viewBox="0 0 1267 542" fill="none" xmlns="http://www.w3.org/2000/svg">
<g opacity="0.3" filter="url(#filter0_f)">
<rect x="658.667" y="132.64" width="88.2083" height="88.2083" transform="rotate(15.1328 658.667 132.64)" fill="#FF6F61"/>
<path fill-rule="evenodd" clip-rule="evenodd" d="M678.842 167.057C671.379 165.039 663.692 169.453 661.673 176.917L658.161 189.903C656.143 197.367 660.557 205.054 668.021 207.073L698.223 215.241C705.687 217.259 713.374 212.845 715.393 205.381L718.905 192.394C720.923 184.93 716.509 177.243 709.045 175.225L678.842 167.057ZM682.916 174.151C675.452 172.132 667.765 176.547 665.747 184.01L665.255 185.83C663.236 193.294 667.651 200.981 675.114 202.999L694.15 208.147C701.614 210.165 709.301 205.751 711.319 198.287L711.811 196.468C713.83 189.004 709.415 181.317 701.952 179.298L682.916 174.151Z" fill="#272C55"/>
<path d="M677.326 199.353L681.479 183.998L689.156 186.074L691.556 201.963C691.674 202.747 692.245 203.387 693.011 203.595L697.702 204.863C698.468 205.07 699.284 204.805 699.782 204.187L709.599 192.001C709.772 191.785 709.899 191.536 709.972 191.268L710.722 188.492C711.22 186.652 710.132 184.756 708.291 184.258C707.77 184.117 707.215 184.293 706.869 184.708L697.084 196.457L694.838 181.854C694.718 181.071 694.148 180.434 693.384 180.227L674.271 175.058C672.672 174.626 671.025 175.572 670.592 177.171L669.614 180.789L675.663 182.425L671.51 197.78L677.326 199.353Z" fill="white"/>
<circle cx="727.177" cy="163.651" r="3.37409" transform="rotate(15.1328 727.177 163.651)" fill="#272C55"/>
<circle cx="713.394" cy="162.919" r="2.89208" transform="rotate(15.1328 713.394 162.919)" fill="#272C55"/>
<path d="M726.378 165.682L715.435 178.451L710.675 176.664L713.186 164.611L714.117 164.862L714.625 174.986L725.108 164.839L726.378 165.682Z" fill="#272C55"/>
</g>
<g opacity="0.3" filter="url(#filter1_f)">
<rect x="727.725" y="401.981" width="131.555" height="131.555" transform="rotate(-22.4586 727.725 401.981)" fill="#FF6F61"/>
<path fill-rule="evenodd" clip-rule="evenodd" d="M776.522 426.927C769.377 429.881 765.979 438.068 768.932 445.214L781.854 476.472C784.807 483.618 792.994 487.016 800.14 484.062L855.98 460.98C863.125 458.026 866.523 449.839 863.569 442.693L850.648 411.435C847.695 404.29 839.507 400.891 832.362 403.845L776.522 426.927ZM787.79 431.604C780.645 434.558 777.246 442.745 780.2 449.89L786.53 465.204C789.484 472.35 797.671 475.748 804.817 472.794L844.712 456.303C851.857 453.349 855.255 445.162 852.302 438.016L845.972 422.703C843.018 415.557 834.831 412.159 827.685 415.113L787.79 431.604Z" fill="#272C55"/>
<path d="M810.471 463.845L801.409 441.921L812.371 437.39L830.124 454.427C830.697 454.977 831.54 455.136 832.273 454.833L840.157 451.574C840.891 451.27 841.375 450.562 841.393 449.769L841.925 425.589C841.931 425.312 841.88 425.037 841.774 424.781L840 420.489C838.945 417.937 836.021 416.723 833.469 417.778L833.296 417.849C832.574 418.148 832.091 418.84 832.061 419.621L831.186 442.447L814.783 426.791C814.21 426.244 813.369 426.087 812.638 426.389L783.395 438.477C781.864 439.11 781.136 440.864 781.769 442.395L784.468 448.924L793.104 445.354L802.167 467.277L810.471 463.845Z" fill="white"/>
<circle cx="836.902" cy="376.298" r="5.03216" transform="rotate(-22.4586 836.902 376.298)" fill="#272C55"/>
<circle cx="819.948" cy="387.974" r="4.31328" transform="rotate(-22.4586 819.948 387.974)" fill="#272C55"/>
<path d="M837.805 379.425L836.491 404.472L829.24 406.691L821.241 390.162L822.57 389.613L832.38 401.115L835.538 379.585L837.805 379.425Z" fill="#272C55"/>
</g>
<g opacity="0.3" filter="url(#filter2_f)">
<rect x="1103.17" y="345.115" width="126.629" height="126.629" transform="rotate(15.1328 1103.17 345.115)" fill="#FF6F61"/>
<path fill-rule="evenodd" clip-rule="evenodd" d="M1126.25 392.931C1118.78 390.913 1111.1 395.327 1109.08 402.791L1100.85 433.207C1098.83 440.671 1103.25 448.358 1110.71 450.376L1165.84 465.286C1173.31 467.304 1181 462.89 1183.01 455.426L1191.24 425.01C1193.26 417.546 1188.84 409.859 1181.38 407.84L1126.25 392.931ZM1132.1 403.114C1124.63 401.096 1116.95 405.51 1114.93 412.974L1111.04 427.359C1109.02 434.823 1113.43 442.51 1120.9 444.529L1160 455.102C1167.46 457.121 1175.15 452.707 1177.17 445.243L1181.06 430.858C1183.07 423.394 1178.66 415.707 1171.2 413.688L1132.1 403.114Z" fill="#272C55"/>
<path d="M1129.96 440.886L1135.92 418.843L1146.94 421.824L1150.47 445.195C1150.59 445.979 1151.16 446.62 1151.93 446.827L1159.76 448.945C1160.52 449.152 1161.34 448.887 1161.84 448.269L1176.4 430.189C1176.58 429.974 1176.7 429.724 1176.78 429.457L1177.9 425.295C1178.62 422.653 1177.05 419.931 1174.41 419.217C1173.66 419.015 1172.87 419.267 1172.37 419.862L1158.32 436.729L1155.01 415.204C1154.89 414.422 1154.32 413.784 1153.56 413.577L1124.31 405.668C1122.71 405.236 1121.06 406.182 1120.63 407.781L1118.89 414.237L1127.57 416.585L1121.61 438.628L1129.96 440.886Z" fill="white"/>
<circle cx="1201.52" cy="389.633" r="4.84374" transform="rotate(15.1328 1201.52 389.633)" fill="#272C55"/>
<circle cx="1181.74" cy="388.583" r="4.15178" transform="rotate(15.1328 1181.74 388.583)" fill="#272C55"/>
<path d="M1200.38 392.548L1184.67 410.88L1177.83 408.315L1181.44 391.011L1182.77 391.372L1183.5 405.906L1198.55 391.339L1200.38 392.548Z" fill="#272C55"/>
</g>
<g opacity="0.3" filter="url(#filter3_f)">
<rect x="1015.84" y="16.8708" width="126.629" height="126.629" transform="rotate(65.2198 1015.84 16.8708)" fill="#FF6F61"/>
<path fill-rule="evenodd" clip-rule="evenodd" d="M993.97 65.2509C990.73 58.2309 982.412 55.1672 975.392 58.408L946.784 71.6146C939.764 74.8553 936.7 83.1734 939.941 90.1934L963.879 142.046C967.119 149.066 975.438 152.13 982.458 148.889L1011.07 135.683C1018.09 132.442 1021.15 124.124 1017.91 117.104L993.97 65.2509ZM989.912 76.2703C986.671 69.2503 978.353 66.1866 971.333 69.4274L957.803 75.6733C950.783 78.914 947.72 87.2321 950.96 94.2521L967.937 131.027C971.178 138.047 979.496 141.111 986.516 137.87L1000.05 131.624C1007.07 128.383 1010.13 120.065 1006.89 113.045L989.912 76.2703Z" fill="#272C55"/>
<path d="M959.569 98.8658L980.301 89.2949L985.086 99.661L969.425 117.364C968.899 117.958 968.774 118.807 969.107 119.527L972.508 126.894C972.84 127.614 973.567 128.07 974.361 128.055L997.573 127.626C997.85 127.621 998.123 127.558 998.374 127.442L1002.29 125.635C1004.77 124.488 1005.86 121.543 1004.71 119.058C1004.39 118.354 1003.68 117.904 1002.91 117.906L980.956 117.954L995.342 101.604C995.865 101.01 995.988 100.163 995.656 99.4445L982.958 71.9379C982.264 70.4336 980.481 69.7771 978.977 70.4715L972.905 73.2745L976.676 81.4417L955.943 91.0127L959.569 98.8658Z" fill="white"/>
<circle cx="1044.8" cy="120.872" r="4.84374" transform="rotate(65.2198 1044.8 120.872)" fill="#272C55"/>
<circle cx="1032.91" cy="105.021" r="4.15178" transform="rotate(65.2198 1032.91 105.021)" fill="#272C55"/>
<path d="M1041.83 121.863L1017.69 121.575L1015.27 114.689L1030.85 106.351L1031.43 107.607L1020.75 117.491L1041.58 119.688L1041.83 121.863Z" fill="#272C55"/>
</g>
<g opacity="0.3" filter="url(#filter4_f)">
<rect x="16.5757" y="277.077" width="126.629" height="126.629" transform="rotate(-33.2884 16.5757 277.077)" fill="#FF6F61"/>
<path fill-rule="evenodd" clip-rule="evenodd" d="M67.6589 291.548C61.1956 295.792 59.3963 304.472 63.64 310.935L80.9337 337.274C85.1774 343.737 93.8572 345.537 100.321 341.293L148.061 309.947C154.524 305.703 156.324 297.024 152.08 290.56L134.786 264.221C130.543 257.758 121.863 255.959 115.4 260.202L67.6589 291.548ZM79.1575 293.932C72.6942 298.176 70.8949 306.855 75.1386 313.319L83.3174 325.775C87.5612 332.239 96.2409 334.038 102.704 329.794L136.563 307.563C143.026 303.32 144.825 294.64 140.582 288.176L132.403 275.72C128.159 269.256 119.479 267.457 113.016 271.701L79.1575 293.932Z" fill="#272C55"/>
<path d="M105.994 320.598L93.4607 301.51L103.005 295.244L122.83 308.114C123.495 308.546 124.353 308.544 125.016 308.108L131.799 303.655C132.462 303.22 132.805 302.433 132.673 301.651L128.814 278.758C128.768 278.484 128.666 278.224 128.514 277.992L126.148 274.388C124.645 272.1 121.573 271.463 119.285 272.966C118.637 273.391 118.296 274.154 118.413 274.92L121.707 296.622L103.409 284.814C102.744 284.384 101.888 284.388 101.227 284.822L75.9016 301.45C74.5166 302.36 74.131 304.22 75.0404 305.605L78.7108 311.195L86.2303 306.258L98.7633 325.346L105.994 320.598Z" fill="white"/>
<circle cx="115.148" cy="233.051" r="4.84374" transform="rotate(-33.2884 115.148 233.051)" fill="#272C55"/>
<circle cx="101.231" cy="247.155" r="4.15178" transform="rotate(-33.2884 101.231 247.155)" fill="#272C55"/>
<path d="M116.568 235.843L119.855 259.761L113.401 263.17L102.849 248.99L104.006 248.23L115.361 257.33L114.453 236.404L116.568 235.843Z" fill="#272C55"/>
</g>
<defs>
<filter id="filter0_f" x="619.64" y="116.64" width="140.177" height="140.177" filterUnits="userSpaceOnUse" color-interpolation-filters="sRGB">
<feFlood flood-opacity="0" result="BackgroundImageFix"/>
<feBlend mode="normal" in="SourceGraphic" in2="BackgroundImageFix" result="shape"/>
<feGaussianBlur stdDeviation="8" result="effect1_foregroundBlur"/>
</filter>
<filter id="filter1_f" x="711.725" y="335.725" width="203.834" height="203.834" filterUnits="userSpaceOnUse" color-interpolation-filters="sRGB">
<feFlood flood-opacity="0" result="BackgroundImageFix"/>
<feBlend mode="normal" in="SourceGraphic" in2="BackgroundImageFix" result="shape"/>
<feGaussianBlur stdDeviation="8" result="effect1_foregroundBlur"/>
</filter>
<filter id="filter2_f" x="1054.11" y="329.115" width="187.296" height="187.296" filterUnits="userSpaceOnUse" color-interpolation-filters="sRGB">
<feFlood flood-opacity="0" result="BackgroundImageFix"/>
<feBlend mode="normal" in="SourceGraphic" in2="BackgroundImageFix" result="shape"/>
<feGaussianBlur stdDeviation="8" result="effect1_foregroundBlur"/>
</filter>
<filter id="filter3_f" x="884.871" y="0.87085" width="200.045" height="200.045" filterUnits="userSpaceOnUse" color-interpolation-filters="sRGB">
<feFlood flood-opacity="0" result="BackgroundImageFix"/>
<feBlend mode="normal" in="SourceGraphic" in2="BackgroundImageFix" result="shape"/>
<feGaussianBlur stdDeviation="8" result="effect1_foregroundBlur"/>
</filter>
<filter id="filter4_f" x="0.575684" y="191.576" width="207.353" height="207.353" filterUnits="userSpaceOnUse" color-interpolation-filters="sRGB">
<feFlood flood-opacity="0" result="BackgroundImageFix"/>
<feBlend mode="normal" in="SourceGraphic" in2="BackgroundImageFix" result="shape"/>
<feGaussianBlur stdDeviation="8" result="effect1_foregroundBlur"/>
</filter>
</defs>
</svg>
