<svg width="432" height="188" viewBox="0 0 432 188" fill="none" xmlns="http://www.w3.org/2000/svg">
<path d="M0.5 162.4C0.5 154.559 0.5 150.639 2.02591 147.644C3.36814 145.01 5.50986 142.868 8.14413 141.526C11.1389 140 15.0593 140 22.9 140H195.1C202.941 140 206.861 140 209.856 141.526C212.49 142.868 214.632 145.01 215.974 147.644C217.5 150.639 217.5 154.559 217.5 162.4V165.6C217.5 173.441 217.5 177.361 215.974 180.356C214.632 182.99 212.49 185.132 209.856 186.474C206.861 188 202.941 188 195.1 188H22.9C15.0593 188 11.1389 188 8.14413 186.474C5.50986 185.132 3.36814 182.99 2.02591 180.356C0.5 177.361 0.5 173.441 0.5 165.6V162.4Z" fill="#FDB719"/>
<path d="M68.3218 170H66.0586V161.182H62.1182V170H59.8477V159.292H68.3218V170ZM72.6284 165.891C72.6284 166.702 72.7603 167.314 73.0239 167.729C73.2925 168.145 73.7271 168.352 74.3276 168.352C74.9233 168.352 75.3506 168.147 75.6094 167.737C75.873 167.322 76.0049 166.707 76.0049 165.891C76.0049 165.081 75.873 164.473 75.6094 164.067C75.3457 163.662 74.9136 163.459 74.313 163.459C73.7173 163.459 73.2876 163.662 73.0239 164.067C72.7603 164.468 72.6284 165.076 72.6284 165.891ZM78.29 165.891C78.29 167.224 77.9385 168.267 77.2354 169.019C76.5322 169.771 75.5532 170.146 74.2983 170.146C73.5122 170.146 72.8188 169.976 72.2183 169.634C71.6177 169.287 71.1562 168.792 70.834 168.147C70.5117 167.502 70.3506 166.75 70.3506 165.891C70.3506 164.553 70.6997 163.513 71.3979 162.771C72.0962 162.029 73.0776 161.658 74.3423 161.658C75.1284 161.658 75.8218 161.829 76.4224 162.17C77.0229 162.512 77.4844 163.003 77.8066 163.643C78.1289 164.282 78.29 165.032 78.29 165.891ZM85.2627 168.367V163.489H83.5854C83.4634 164.397 83.2949 165.259 83.0801 166.074C82.8701 166.89 82.5771 167.654 82.2012 168.367H85.2627ZM88.6978 172.937H86.6909V170H81.1831V172.937H79.1763V168.367H79.8647C80.3335 167.639 80.7266 166.721 81.0439 165.613C81.3613 164.504 81.5835 163.237 81.7104 161.812H87.4966V168.367H88.6978V172.937ZM95.4653 161.812H97.9263L94.6816 165.737L98.2119 170H95.6777L92.3306 165.847V170H90.0967V161.812H92.3306V165.789L95.4653 161.812ZM106.715 170H104.481V163.489H102.423C102.267 165.32 102.077 166.687 101.852 167.59C101.627 168.489 101.327 169.141 100.951 169.546C100.58 169.946 100.092 170.146 99.4863 170.146C98.9688 170.146 98.5439 170.068 98.2119 169.912V168.125C98.4512 168.223 98.6904 168.271 98.9297 168.271C99.208 168.271 99.4399 168.071 99.6255 167.671C99.8159 167.271 99.9844 166.604 100.131 165.671C100.282 164.734 100.412 163.447 100.519 161.812H106.715V170ZM120.375 165.891C120.375 167.234 120.036 168.279 119.357 169.026C118.678 169.773 117.738 170.146 116.537 170.146C115.458 170.146 114.594 169.844 113.944 169.238C113.3 168.633 112.909 167.761 112.772 166.624H111.3V170H109.066V161.812H111.3V164.961H112.802C112.943 163.916 113.346 163.105 114.01 162.529C114.679 161.948 115.536 161.658 116.581 161.658C117.738 161.658 118.659 162.039 119.342 162.8C120.031 163.557 120.375 164.587 120.375 165.891ZM115.021 165.891C115.021 166.707 115.141 167.322 115.38 167.737C115.619 168.147 116.015 168.352 116.566 168.352C117.108 168.352 117.499 168.147 117.738 167.737C117.978 167.322 118.097 166.707 118.097 165.891C118.097 165.076 117.975 164.468 117.731 164.067C117.492 163.662 117.099 163.459 116.552 163.459C116.01 163.459 115.619 163.662 115.38 164.067C115.141 164.473 115.021 165.081 115.021 165.891ZM124.184 161.812V164.807C124.184 165.52 124.513 165.876 125.172 165.876C125.602 165.876 126 165.828 126.366 165.73C126.737 165.632 127.111 165.505 127.487 165.349V161.812H129.721V170H127.487V166.748C126.969 167.021 126.488 167.214 126.044 167.327C125.6 167.439 125.17 167.495 124.755 167.495C123.861 167.495 123.17 167.268 122.682 166.814C122.194 166.355 121.95 165.703 121.95 164.858V161.812H124.184ZM134.225 161.812V165.049C134.225 165.391 134.169 166.226 134.057 167.554L137.836 161.812H140.524V170H138.363V166.733C138.363 166.152 138.412 165.332 138.51 164.272L134.745 170H132.064V161.812H134.225ZM149.65 161.812V163.489H146.969V170H144.735V163.489H142.047V161.812H149.65ZM153.415 164.976H154.989C156.249 164.976 157.182 165.176 157.787 165.576C158.393 165.977 158.695 166.582 158.695 167.393C158.695 169.131 157.489 170 155.077 170H151.181V161.812H153.415V164.976ZM156.461 167.422C156.461 167.104 156.334 166.875 156.081 166.733C155.827 166.592 155.448 166.521 154.945 166.521H153.415V168.455H154.975C155.966 168.455 156.461 168.11 156.461 167.422Z" fill="#333333"/>
<path d="M10.708 87H8.72412V76.5659H5.271C4.83382 80.1076 4.48242 82.5176 4.2168 83.7959C3.95671 85.0742 3.5887 85.9652 3.11279 86.4688C2.63688 86.9668 2.00602 87.2075 1.22021 87.1909C0.816243 87.1909 0.431641 87.1217 0.0664062 86.9834V85.3315C0.381836 85.4699 0.688965 85.5391 0.987793 85.5391C1.38623 85.5391 1.69613 85.3011 1.91748 84.8252C2.14437 84.3438 2.39062 83.284 2.65625 81.646C2.92741 80.008 3.24837 77.7474 3.61914 74.8643H10.708V87ZM29.3184 80.9155C29.3184 82.8966 28.848 84.4351 27.9072 85.5308C26.972 86.6209 25.6466 87.166 23.9312 87.166C22.2876 87.166 21.001 86.6763 20.0713 85.6968C19.1471 84.7118 18.638 83.3228 18.5439 81.5298H15.9043V87H13.9204V74.8643H15.9043V79.8281H18.5771C18.7321 78.1624 19.2689 76.8869 20.1875 76.0015C21.1061 75.116 22.354 74.6733 23.9312 74.6733C25.6411 74.6733 26.9665 75.2212 27.9072 76.3169C28.848 77.4126 29.3184 78.9455 29.3184 80.9155ZM20.5942 80.9155C20.5942 82.4152 20.8737 83.5496 21.4326 84.3188C21.9915 85.0881 22.8188 85.4727 23.9146 85.4727C25.0269 85.4727 25.8597 85.0853 26.4131 84.3105C26.9665 83.5358 27.2432 82.4041 27.2432 80.9155C27.2432 79.4159 26.9637 78.2842 26.4048 77.5205C25.8459 76.7568 25.0269 76.375 23.9478 76.375C22.841 76.375 22.0054 76.7596 21.4409 77.5288C20.8765 78.298 20.5942 79.4269 20.5942 80.9155ZM40.1592 83.3477C40.1592 85.7826 38.5986 87 35.4775 87H31.9497V74.8643H39.354V76.5659H33.9336V79.7949H35.3779C38.5654 79.7949 40.1592 80.9792 40.1592 83.3477ZM33.9336 85.3315H35.3613C36.3132 85.3315 37.0104 85.1766 37.4531 84.8667C37.8958 84.5513 38.1172 84.0449 38.1172 83.3477C38.1172 82.6781 37.8931 82.1966 37.4448 81.9033C37.0021 81.6045 36.2274 81.4551 35.1206 81.4551H33.9336V85.3315ZM42.5747 74.8643H44.3926V81.1729C44.3926 81.8314 44.376 82.4982 44.3428 83.1733C44.3096 83.8429 44.2847 84.2967 44.2681 84.5347H44.3428L50.5435 74.8643H52.8594V87H51.0332V80.7412C51.0332 79.7839 51.0858 78.6217 51.1909 77.2549H51.1245L44.8989 87H42.5747V74.8643ZM61.2847 87L57.7651 76.8647H57.6987C57.7928 78.37 57.8398 79.7811 57.8398 81.0981V87H56.0386V74.8643H58.8359L62.2061 84.5181H62.2559L65.7256 74.8643H68.5312V87H66.6221V80.9985C66.6221 80.3953 66.6359 79.6095 66.6636 78.6411C66.6968 77.6727 66.7244 77.0861 66.7466 76.8813H66.6802L63.0361 87H61.2847ZM79.7788 83.3477C79.7788 84.5485 79.3887 85.4588 78.6084 86.0786C77.8337 86.6929 76.6937 87 75.1885 87H71.7271V74.8643H73.7109V79.7949H75.1221C76.6383 79.7949 77.7922 80.0993 78.5835 80.708C79.3804 81.3167 79.7788 82.1966 79.7788 83.3477ZM73.7109 85.3481H75.0723C75.9577 85.3481 76.6273 85.1904 77.0811 84.875C77.5348 84.554 77.7617 84.0449 77.7617 83.3477C77.7617 82.6891 77.5431 82.2132 77.106 81.9199C76.6743 81.6211 75.9383 81.4717 74.8979 81.4717H73.7109V85.3481ZM83.4727 87H81.4805V74.8643H83.4727V87ZM93.5332 87H86.6685V74.8643H93.5332V76.541H88.6523V79.8447H93.2261V81.5049H88.6523V85.3149H93.5332V87ZM104.772 87H102.789V76.5659H99.2192V74.8643H108.342V76.5659H104.772V87ZM117.074 87H110.209V74.8643H117.074V76.541H112.193V79.8447H116.767V81.5049H112.193V85.3149H117.074V87ZM128.812 87H126.828V76.5659H123.375C122.937 80.1076 122.586 82.5176 122.32 83.7959C122.06 85.0742 121.692 85.9652 121.216 86.4688C120.74 86.9668 120.11 87.2075 119.324 87.1909C118.92 87.1909 118.535 87.1217 118.17 86.9834V85.3315C118.485 85.4699 118.792 85.5391 119.091 85.5391C119.49 85.5391 119.8 85.3011 120.021 84.8252C120.248 84.3438 120.494 83.284 120.76 81.646C121.031 80.008 121.352 77.7474 121.723 74.8643H128.812V87ZM138.889 87H132.024V74.8643H138.889V76.541H134.008V79.8447H138.582V81.5049H134.008V85.3149H138.889V87ZM150.833 87H148.501L143.504 80.8491V87H141.52V74.8643H143.504V80.7412L148.418 74.8643H150.593L145.695 80.7246L150.833 87ZM159.973 87L158.761 83.6299H154.121L152.934 87H150.842L155.382 74.8145H157.541L162.081 87H159.973ZM158.238 81.9199L157.101 78.6162C157.018 78.3949 156.901 78.0462 156.752 77.5703C156.608 77.0944 156.508 76.7458 156.453 76.5244C156.304 77.2051 156.085 77.9494 155.797 78.7573L154.702 81.9199H158.238ZM173.254 87H171.262V81.5298H165.667V87H163.683V74.8643H165.667V79.8281H171.262V74.8643H173.254V87ZM183.979 87L182.767 83.6299H178.126L176.939 87H174.848L179.388 74.8145H181.546L186.087 87H183.979ZM182.244 81.9199L181.106 78.6162C181.023 78.3949 180.907 78.0462 180.758 77.5703C180.614 77.0944 180.514 76.7458 180.459 76.5244C180.31 77.2051 180.091 77.9494 179.803 78.7573L178.708 81.9199H182.244ZM196.795 87H194.811V76.5659H191.358C190.921 80.1076 190.569 82.5176 190.304 83.7959C190.044 85.0742 189.676 85.9652 189.2 86.4688C188.724 86.9668 188.093 87.2075 187.307 87.1909C186.903 87.1909 186.519 87.1217 186.153 86.9834V85.3315C186.469 85.4699 186.776 85.5391 187.075 85.5391C187.473 85.5391 187.783 85.3011 188.004 84.8252C188.231 84.3438 188.478 83.284 188.743 81.646C189.014 80.008 189.335 77.7474 189.706 74.8643H196.795V87ZM208.059 83.3477C208.059 84.5485 207.669 85.4588 206.889 86.0786C206.114 86.6929 204.974 87 203.469 87H200.007V74.8643H201.991V79.7949H203.402C204.919 79.7949 206.072 80.0993 206.864 80.708C207.661 81.3167 208.059 82.1966 208.059 83.3477ZM201.991 85.3481H203.353C204.238 85.3481 204.908 85.1904 205.361 84.875C205.815 84.554 206.042 84.0449 206.042 83.3477C206.042 82.6891 205.823 82.2132 205.386 81.9199C204.955 81.6211 204.219 81.4717 203.178 81.4717H201.991V85.3481ZM211.753 87H209.761V74.8643H211.753V87ZM219.365 74.8643H222.967C224.639 74.8643 225.845 75.1077 226.586 75.5947C227.333 76.0817 227.707 76.8509 227.707 77.9023C227.707 78.6107 227.524 79.2 227.159 79.6704C226.794 80.1408 226.268 80.4368 225.582 80.5586V80.6416C226.434 80.8021 227.06 81.1203 227.458 81.5962C227.862 82.0666 228.064 82.7057 228.064 83.5137C228.064 84.6038 227.682 85.4588 226.918 86.0786C226.16 86.6929 225.103 87 223.748 87H219.365V74.8643ZM221.349 79.8779H223.258C224.088 79.8779 224.694 79.7479 225.076 79.4878C225.458 79.2222 225.648 78.7739 225.648 78.1431C225.648 77.5731 225.441 77.1608 225.026 76.9062C224.616 76.6517 223.963 76.5244 223.067 76.5244H221.349V79.8779ZM221.349 81.4883V85.3315H223.457C224.287 85.3315 224.912 85.1738 225.333 84.8584C225.759 84.5374 225.972 84.0339 225.972 83.3477C225.972 82.7168 225.756 82.2492 225.325 81.9448C224.893 81.6405 224.237 81.4883 223.357 81.4883H221.349ZM245.778 80.9155C245.778 82.8911 245.283 84.4268 244.292 85.5225C243.307 86.6182 241.91 87.166 240.1 87.166C238.268 87.166 236.86 86.6237 235.875 85.5391C234.896 84.4489 234.406 82.9022 234.406 80.8989C234.406 78.8957 234.898 77.3573 235.883 76.2837C236.874 75.2101 238.285 74.6733 240.117 74.6733C241.921 74.6733 243.315 75.2184 244.3 76.3086C245.285 77.3988 245.778 78.9344 245.778 80.9155ZM236.514 80.9155C236.514 82.4097 236.816 83.5441 237.419 84.3188C238.022 85.0881 238.916 85.4727 240.1 85.4727C241.279 85.4727 242.167 85.0908 242.765 84.3271C243.368 83.5635 243.669 82.4263 243.669 80.9155C243.669 79.4269 243.371 78.298 242.773 77.5288C242.181 76.7596 241.295 76.375 240.117 76.375C238.927 76.375 238.028 76.7596 237.419 77.5288C236.816 78.298 236.514 79.4269 236.514 80.9155ZM246.882 85.2983H247.82C248.622 83.8319 249.295 82.1855 249.837 80.3594C250.379 78.5332 250.728 76.7015 250.883 74.8643H257.15V85.2983H258.719V90.3452H256.81V87H248.791V90.3452H246.882V85.2983ZM252.543 76.5825C252.421 77.8387 252.111 79.2969 251.613 80.957C251.115 82.6117 250.548 84.0588 249.912 85.2983H255.166V76.5825H252.543ZM270.257 87H268.265V81.5298H262.67V87H260.686V74.8643H262.67V79.8281H268.265V74.8643H270.257V87ZM284.227 80.9155C284.227 82.8911 283.732 84.4268 282.741 85.5225C281.756 86.6182 280.359 87.166 278.549 87.166C276.718 87.166 275.309 86.6237 274.324 85.5391C273.345 84.4489 272.855 82.9022 272.855 80.8989C272.855 78.8957 273.347 77.3573 274.333 76.2837C275.323 75.2101 276.734 74.6733 278.566 74.6733C280.37 74.6733 281.764 75.2184 282.75 76.3086C283.735 77.3988 284.227 78.9344 284.227 80.9155ZM274.963 80.9155C274.963 82.4097 275.265 83.5441 275.868 84.3188C276.471 85.0881 277.365 85.4727 278.549 85.4727C279.728 85.4727 280.616 85.0908 281.214 84.3271C281.817 83.5635 282.119 82.4263 282.119 80.9155C282.119 79.4269 281.82 78.298 281.222 77.5288C280.63 76.7596 279.745 76.375 278.566 76.375C277.376 76.375 276.477 76.7596 275.868 77.5288C275.265 78.298 274.963 79.4269 274.963 80.9155ZM292.08 87L288.56 76.8647H288.494C288.588 78.37 288.635 79.7811 288.635 81.0981V87H286.833V74.8643H289.631L293.001 84.5181H293.051L296.521 74.8643H299.326V87H297.417V80.9985C297.417 80.3953 297.431 79.6095 297.458 78.6411C297.492 77.6727 297.519 77.0861 297.542 76.8813H297.475L293.831 87H292.08ZM316.268 87H314.276V76.5659H308.922V87H306.938V74.8643H316.268V87ZM327.507 78.5332C327.507 79.8005 327.092 80.7716 326.262 81.4468C325.432 82.1219 324.251 82.4595 322.718 82.4595H321.456V87H319.472V74.8643H322.967C324.483 74.8643 325.618 75.1742 326.37 75.7939C327.128 76.4137 327.507 77.3268 327.507 78.5332ZM321.456 80.791H322.51C323.528 80.791 324.276 80.6139 324.751 80.2598C325.227 79.9056 325.465 79.3522 325.465 78.5996C325.465 77.9023 325.252 77.3822 324.826 77.0391C324.4 76.696 323.736 76.5244 322.834 76.5244H321.456V80.791ZM329.931 74.8643H331.749V81.1729C331.749 81.8314 331.732 82.4982 331.699 83.1733C331.666 83.8429 331.641 84.2967 331.625 84.5347H331.699L337.9 74.8643H340.216V87H338.39V80.7412C338.39 79.7839 338.442 78.6217 338.547 77.2549H338.481L332.255 87H329.931V74.8643ZM352.501 87H350.517V76.5659H347.064C346.627 80.1076 346.275 82.5176 346.01 83.7959C345.75 85.0742 345.382 85.9652 344.906 86.4688C344.43 86.9668 343.799 87.2075 343.013 87.1909C342.609 87.1909 342.225 87.1217 341.859 86.9834V85.3315C342.175 85.4699 342.482 85.5391 342.781 85.5391C343.179 85.5391 343.489 85.3011 343.71 84.8252C343.937 84.3438 344.184 83.284 344.449 81.646C344.72 80.008 345.041 77.7474 345.412 74.8643H352.501V87ZM366.488 80.9155C366.488 82.8911 365.993 84.4268 365.002 85.5225C364.017 86.6182 362.62 87.166 360.81 87.166C358.978 87.166 357.57 86.6237 356.585 85.5391C355.605 84.4489 355.116 82.9022 355.116 80.8989C355.116 78.8957 355.608 77.3573 356.593 76.2837C357.584 75.2101 358.995 74.6733 360.827 74.6733C362.631 74.6733 364.025 75.2184 365.01 76.3086C365.995 77.3988 366.488 78.9344 366.488 80.9155ZM357.224 80.9155C357.224 82.4097 357.526 83.5441 358.129 84.3188C358.732 85.0881 359.626 85.4727 360.81 85.4727C361.989 85.4727 362.877 85.0908 363.475 84.3271C364.078 83.5635 364.379 82.4263 364.379 80.9155C364.379 79.4269 364.081 78.298 363.483 77.5288C362.891 76.7596 362.005 76.375 360.827 76.375C359.637 76.375 358.738 76.7596 358.129 77.5288C357.526 78.298 357.224 79.4269 357.224 80.9155ZM372.132 80.7246L367.7 74.8643H369.825L374.141 80.7412V74.8643H376.025V80.7412L380.342 74.8643H382.467L378.034 80.7246L382.658 87H380.466L376.025 80.8491V87H374.141V80.8491L369.7 87H367.492L372.132 80.7246ZM391.149 87H384.285V74.8643H391.149V76.541H386.269V79.8447H390.842V81.5049H386.269V85.3149H391.149V87ZM403.352 87H401.359V81.5298H395.765V87H393.781V74.8643H395.765V79.8281H401.359V74.8643H403.352V87ZM406.547 74.8643H408.365V81.1729C408.365 81.8314 408.349 82.4982 408.315 83.1733C408.282 83.8429 408.257 84.2967 408.241 84.5347H408.315L414.516 74.8643H416.832V87H415.006V80.7412C415.006 79.7839 415.058 78.6217 415.164 77.2549H415.097L408.872 87H406.547V74.8643ZM420.011 74.8643H421.829V81.1729C421.829 81.8314 421.812 82.4982 421.779 83.1733C421.746 83.8429 421.721 84.2967 421.705 84.5347H421.779L427.98 74.8643H430.296V87H428.47V80.7412C428.47 79.7839 428.522 78.6217 428.627 77.2549H428.561L422.335 87H420.011V74.8643Z" fill="white"/>
<g clip-path="url(#clip0)">
<path d="M37.3676 0.409668V41.795H26.0314V25.6096H11.3363V41.795H0V0.409668H11.3363V15.9804H26.0314V0.409668H37.3676Z" fill="white"/>
<path d="M97.4078 10.0389L98.4574 41.5902H87.121V0.409668H104.965L112.943 26.4292H113.362L121.13 0.409668H139.394V41.795H128.058L129.107 10.2438H128.687L117.981 41.795H108.114L97.6176 10.0389H97.4078Z" fill="white"/>
<path d="M157.868 9.4243V17.0048H175.922V24.5852H157.868V32.5756H177.601V41.5902H146.531V0.409668H176.971V9.4243H157.868Z" fill="white"/>
<path d="M213.5 0.409668H203.842V7.5804H213.5V0.409668Z" fill="#FF6F61"/>
<path d="M213.5 12.7024H203.842V41.5902H213.5V12.7024Z" fill="white"/>
<path d="M230.504 41.5902H219.168V0.409668H240.37C243.1 0.409668 245.2 0.614546 247.088 1.22918C248.978 1.84381 250.448 2.66332 251.498 3.8926C252.546 5.12186 253.386 6.556 254.016 8.60478C254.646 10.4487 254.856 12.9072 254.856 15.5706C254.856 18.6438 254.646 21.1024 254.226 23.1512C253.806 25.2 253.176 26.634 252.128 27.8634C251.078 29.0926 249.608 29.9122 247.718 30.5268C245.83 31.1414 243.52 31.3462 240.37 31.3462H230.294V41.5902H230.504ZM230.504 21.5122H238.272C239.742 21.5122 241 21.3072 241.63 21.1024C242.26 20.8974 242.68 20.2828 243.1 19.4633C243.31 18.6438 243.52 17.4145 243.52 15.5706C243.52 14.1365 243.31 12.9072 243.1 12.0877C242.89 11.2682 242.47 10.8584 241.63 10.4487C241 10.0389 239.742 10.0389 238.272 10.0389H230.504V21.5122Z" fill="white"/>
<path d="M278.158 9.83406V41.5902H266.822V9.83406H256.116V0.409668H289.704V10.0389H278.158V9.83406Z" fill="white"/>
<path d="M197.964 17.0049H181.17V24.7902H197.964V17.0049Z" fill="white"/>
<path d="M313.006 32.1658L322.244 0.409668H334L321.614 41.795H303.98L292.014 0.409668H303.56L312.796 32.1658H313.006Z" fill="white"/>
<path d="M54.3724 18.6439V16.3902C54.3724 14.3415 54.7922 12.9073 55.212 11.8829C55.632 10.8585 56.4716 10.2439 57.5214 10.039C58.571 9.83414 60.2504 9.62926 62.3498 9.62926C64.0292 9.62926 65.2888 9.62926 66.1284 9.83414C67.1782 9.83414 67.808 10.2439 68.4378 10.6537C69.0674 11.0634 69.4874 11.678 69.6972 12.7024C69.9072 13.7268 70.1172 14.7512 70.1172 16.3902V18.6439H81.8732V15.161C81.8732 12.0878 81.4534 9.62926 80.4038 7.58048C79.564 5.5317 78.0946 4.09756 76.415 2.8683C74.7356 1.8439 72.6364 1.02439 70.327 0.614634C68.2278 0.204878 65.4986 0 62.3498 0C59.2008 0 56.4716 0.204878 54.1624 0.614634C51.8532 1.02439 49.7538 1.8439 48.0744 2.8683C46.395 3.89268 45.1354 5.5317 44.0858 7.58048C43.246 9.62926 42.6162 12.0878 42.6162 15.161V18.6439H54.3724Z" fill="white"/>
<path d="M70.3272 21.717V25.6098C70.3272 27.6586 70.1172 29.0926 69.4874 30.117C69.0676 31.1414 68.2278 31.756 67.1782 31.961C66.1284 32.1658 64.449 32.3706 62.3498 32.3706C60.2504 32.3706 58.571 32.1658 57.5214 31.961C56.4716 31.756 55.632 31.1414 55.212 30.117C54.7922 29.0926 54.3724 27.6586 54.3724 25.6098V21.717H42.8262V26.839C42.8262 29.9122 43.246 32.3706 44.2956 34.4194C45.1354 36.4682 46.605 37.9024 48.2844 39.1316C49.9638 40.156 52.0632 40.9756 54.3724 41.3854C56.6816 41.795 59.4108 42 62.5596 42C65.7086 42 68.4378 41.795 70.747 41.3854C73.0562 40.9756 75.1556 40.156 76.835 39.1316C78.5144 38.1072 79.774 36.4682 80.8236 34.4194C81.8734 32.3706 82.2932 29.9122 82.2932 26.839V21.717H70.3272Z" fill="#FF6F61"/>
</g>
<defs>
<clipPath id="clip0">
<rect width="334" height="42" fill="white"/>
</clipPath>
</defs>
</svg>
