<svg width="470" height="436" viewBox="0 0 470 436" fill="none" xmlns="http://www.w3.org/2000/svg">
<g filter="url(#filter0_f)">
<g opacity="0.6" filter="url(#filter1_d)">
<rect x="73.5192" y="252" width="133.154" height="133.154" rx="20" transform="rotate(24.17 73.5192 252)" fill="#FF6F61"/>
</g>
<g opacity="0.6">
<path fill-rule="evenodd" clip-rule="evenodd" d="M88.9274 305.172C81.8733 302.006 73.5883 305.158 70.4225 312.213L56.266 343.757C53.1001 350.811 56.2522 359.096 63.3064 362.262L119.412 387.441C126.466 390.607 134.751 387.455 137.917 380.401L152.074 348.857C155.239 341.802 152.087 333.518 145.033 330.352L88.9274 305.172ZM93.3184 316.713C86.2642 313.547 77.9793 316.699 74.8135 323.754L67.807 339.366C64.6412 346.42 67.7933 354.705 74.8474 357.871L115.021 375.9C122.075 379.066 130.36 375.914 133.526 368.86L140.533 353.248C143.698 346.193 140.546 337.909 133.492 334.743L93.3184 316.713Z" fill="#272C55"/>
<path d="M85.5176 355.88L95.3489 333.974L106.302 338.89L106.107 363.81C106.1 364.604 106.564 365.326 107.288 365.651L115.194 369.199C115.918 369.524 116.766 369.39 117.354 368.858L135.531 352.429C135.736 352.243 135.901 352.017 136.014 351.764L137.966 347.415C139.097 344.896 137.971 341.937 135.452 340.806L135.209 340.697C134.496 340.377 133.662 340.502 133.073 341.017L115.659 356.248L115.777 333.281C115.781 332.49 115.318 331.77 114.596 331.446L85.3291 318.312C83.8175 317.633 82.0422 318.309 81.3638 319.821L78.4212 326.377L87.051 330.25L77.2197 352.156L85.5176 355.88Z" fill="white"/>
<circle cx="168.301" cy="314.475" r="5.09331" transform="rotate(24.17 168.301 314.475)" fill="#272C55"/>
<circle cx="147.926" cy="310.117" r="4.3657" transform="rotate(24.17 147.926 310.117)" fill="#272C55"/>
<path d="M166.628 317.314L147.286 333.756L140.614 329.964L147.215 312.589L148.543 313.185L146.9 328.398L164.935 315.756L166.628 317.314Z" fill="#272C55"/>
</g>
</g>
<g filter="url(#filter2_f)">
<g opacity="0.6" filter="url(#filter3_d)">
<rect x="61.5574" y="8.51807" width="85.7467" height="85.7467" rx="20" transform="rotate(38.2111 61.5574 8.51807)" fill="#FF6F61"/>
</g>
<g opacity="0.6">
<path fill-rule="evenodd" clip-rule="evenodd" d="M66.7923 47.2265C60.717 42.4438 51.9149 43.4917 47.1322 49.567L39.5262 59.2286C34.7435 65.3039 35.7914 74.1061 41.8667 78.8888L65.1505 97.2186C71.2258 102.001 80.0279 100.953 84.8106 94.8781L92.4166 85.2165C97.1993 79.1412 96.1514 70.339 90.0761 65.5563L66.7923 47.2265ZM67.7323 55.1225C61.657 50.3398 52.8549 51.3876 48.0722 57.4629L47.4222 58.2886C42.6395 64.3639 43.6874 73.1661 49.7627 77.9488L64.2105 89.3226C70.2858 94.1053 79.0879 93.0574 83.8706 86.9821L84.5206 86.1564C89.3033 80.0811 88.2554 71.279 82.1801 66.4963L67.7323 55.1225Z" fill="#272C55"/>
<path d="M52.8231 75.2893L62.3876 63.1398L68.4624 67.9221L64.563 83.0099C64.3645 83.7781 64.6388 84.591 65.2623 85.0818L68.9169 87.9588C69.5403 88.4496 70.3949 88.5255 71.095 88.1521L84.4752 81.0173C84.7196 80.8869 84.9342 80.7073 85.1056 80.4896L86.8275 78.3024C87.974 76.846 87.7228 74.7359 86.2664 73.5893C85.8542 73.2648 85.2907 73.2102 84.8238 73.4494L71.5957 80.2282L75.143 66.3478C75.339 65.5809 75.0643 64.7707 74.4424 64.2811L59.4143 52.4504C58.1124 51.4255 56.2263 51.6501 55.2014 52.9519L52.9994 55.7491L57.7856 59.5169L48.2211 71.6664L52.8231 75.2893Z" fill="white"/>
<circle cx="111.009" cy="62.3565" r="3.27993" transform="rotate(38.2111 111.009 62.3565)" fill="#272C55"/>
<circle cx="98.9614" cy="56.4502" r="2.81137" transform="rotate(38.2111 98.9614 56.4502)" fill="#272C55"/>
<path d="M109.521 63.8685L94.8686 71.1182L91.2926 67.7068L98.1311 57.8838L98.8675 58.4635L95.4639 67.7107L108.706 62.6308L109.521 63.8685Z" fill="#272C55"/>
</g>
</g>
<g filter="url(#filter4_f)">
<g opacity="0.6" filter="url(#filter5_d)">
<rect x="303.776" y="130.448" width="103.063" height="103.063" rx="20" transform="rotate(-28.1806 303.776 130.448)" fill="#FF6F61"/>
</g>
<g opacity="0.6">
<path fill-rule="evenodd" clip-rule="evenodd" d="M346.435 144.65C339.62 148.302 337.055 156.787 340.706 163.602L350.356 181.614C354.008 188.43 362.493 190.995 369.308 187.343L405.688 167.852C412.504 164.201 415.068 155.716 411.417 148.9L401.767 130.889C398.116 124.073 389.63 121.508 382.815 125.16L346.435 144.65ZM355.584 147.416C348.769 151.067 346.204 159.553 349.855 166.368L353.122 172.465C356.773 179.281 365.259 181.846 372.074 178.194L396.539 165.087C403.355 161.435 405.92 152.95 402.268 146.135L399.002 140.037C395.35 133.222 386.865 130.657 380.05 134.308L355.584 147.416Z" fill="#272C55"/>
<path d="M373.11 172.208L364.333 155.826L372.525 151.438L387.472 163.158C388.096 163.647 388.951 163.722 389.651 163.347L395.043 160.458C395.743 160.083 396.154 159.33 396.093 158.539L394.648 140.021C394.627 139.745 394.548 139.476 394.417 139.232L392.797 136.208C391.745 134.244 389.3 133.505 387.336 134.557C386.78 134.855 386.449 135.45 386.488 136.079L387.586 153.911L373.799 143.161C373.175 142.674 372.322 142.601 371.625 142.975L350.595 154.242C349.135 155.024 348.585 156.842 349.368 158.303L351.675 162.608L358.128 159.151L366.905 175.533L373.11 172.208Z" fill="white"/>
<circle cx="386.875" cy="101.9" r="3.9423" transform="rotate(-28.1806 386.875 101.9)" fill="#272C55"/>
<circle cx="374.571" cy="112.326" r="3.37911" transform="rotate(-28.1806 374.571 112.326)" fill="#272C55"/>
<path d="M387.824 104.267L388.755 123.894L383.277 126.19L375.75 113.93L376.743 113.398L385.289 121.598L386.068 104.568L387.824 104.267Z" fill="#272C55"/>
</g>
</g>
<defs>
<filter id="filter0_f" x="12" y="245" width="190" height="190" filterUnits="userSpaceOnUse" color-interpolation-filters="sRGB">
<feFlood flood-opacity="0" result="BackgroundImageFix"/>
<feBlend mode="normal" in="SourceGraphic" in2="BackgroundImageFix" result="shape"/>
<feGaussianBlur stdDeviation="3.5" result="effect1_foregroundBlur"/>
</filter>
<filter id="filter1_d" x="15" y="252" width="184" height="184" filterUnits="userSpaceOnUse" color-interpolation-filters="sRGB">
<feFlood flood-opacity="0" result="BackgroundImageFix"/>
<feColorMatrix in="SourceAlpha" type="matrix" values="0 0 0 0 0 0 0 0 0 0 0 0 0 0 0 0 0 0 127 0"/>
<feOffset dy="4"/>
<feGaussianBlur stdDeviation="2"/>
<feColorMatrix type="matrix" values="0 0 0 0 0 0 0 0 0 0 0 0 0 0 0 0 0 0 0.25 0"/>
<feBlend mode="normal" in2="BackgroundImageFix" result="effect1_dropShadow"/>
<feBlend mode="normal" in="SourceGraphic" in2="effect1_dropShadow" result="shape"/>
</filter>
<filter id="filter2_f" x="9.60306" y="9.60327" width="118.244" height="118.244" filterUnits="userSpaceOnUse" color-interpolation-filters="sRGB">
<feFlood flood-opacity="0" result="BackgroundImageFix"/>
<feBlend mode="normal" in="SourceGraphic" in2="BackgroundImageFix" result="shape"/>
<feGaussianBlur stdDeviation="3.5" result="effect1_foregroundBlur"/>
</filter>
<filter id="filter3_d" x="12.6031" y="16.6033" width="112.244" height="112.244" filterUnits="userSpaceOnUse" color-interpolation-filters="sRGB">
<feFlood flood-opacity="0" result="BackgroundImageFix"/>
<feColorMatrix in="SourceAlpha" type="matrix" values="0 0 0 0 0 0 0 0 0 0 0 0 0 0 0 0 0 0 127 0"/>
<feOffset dy="4"/>
<feGaussianBlur stdDeviation="2"/>
<feColorMatrix type="matrix" values="0 0 0 0 0 0 0 0 0 0 0 0 0 0 0 0 0 0 0.25 0"/>
<feBlend mode="normal" in2="BackgroundImageFix" result="effect1_dropShadow"/>
<feBlend mode="normal" in="SourceGraphic" in2="effect1_dropShadow" result="shape"/>
</filter>
<filter id="filter4_f" x="296.776" y="74.7761" width="153.518" height="153.518" filterUnits="userSpaceOnUse" color-interpolation-filters="sRGB">
<feFlood flood-opacity="0" result="BackgroundImageFix"/>
<feBlend mode="normal" in="SourceGraphic" in2="BackgroundImageFix" result="shape"/>
<feGaussianBlur stdDeviation="3.5" result="effect1_foregroundBlur"/>
</filter>
<filter id="filter5_d" x="299.776" y="81.7761" width="147.518" height="147.518" filterUnits="userSpaceOnUse" color-interpolation-filters="sRGB">
<feFlood flood-opacity="0" result="BackgroundImageFix"/>
<feColorMatrix in="SourceAlpha" type="matrix" values="0 0 0 0 0 0 0 0 0 0 0 0 0 0 0 0 0 0 127 0"/>
<feOffset dy="4"/>
<feGaussianBlur stdDeviation="2"/>
<feColorMatrix type="matrix" values="0 0 0 0 0 0 0 0 0 0 0 0 0 0 0 0 0 0 0.25 0"/>
<feBlend mode="normal" in2="BackgroundImageFix" result="effect1_dropShadow"/>
<feBlend mode="normal" in="SourceGraphic" in2="effect1_dropShadow" result="shape"/>
</filter>
</defs>
</svg>
