<svg width="1040" height="431" viewBox="0 0 1040 431" fill="none" xmlns="http://www.w3.org/2000/svg">
<rect x="886.656" y="76.709" width="99.9445" height="99.9445" rx="20" transform="rotate(-40.7824 886.656 76.709)" fill="#FF6F61"/>
<path fill-rule="evenodd" clip-rule="evenodd" d="M930.354 80.8475C924.499 85.898 923.847 94.7383 928.897 100.593L941.287 114.956C946.338 120.81 955.178 121.462 961.033 116.412L990.697 90.8226C996.551 85.7722 997.203 76.9319 992.153 71.0773L979.763 56.7144C974.712 50.8598 965.872 50.2079 960.017 55.2584L930.354 80.8475ZM939.597 81.5291C933.742 86.5795 933.09 95.4198 938.141 101.274L941.969 105.712C947.019 111.567 955.86 112.219 961.714 107.168L981.453 90.1409C987.308 85.0905 987.96 76.2501 982.909 70.3955L979.081 65.9576C974.031 60.103 965.19 59.4511 959.336 64.5015L939.597 81.5291Z" fill="#272C55"/>
<path d="M961.108 101.561L949.336 87.9142L956.159 82.0281L972.749 89.9401C973.465 90.2816 974.316 90.1675 974.916 89.6493L979.349 85.8257C979.95 85.3074 980.187 84.483 979.954 83.7245L974.685 66.5549C974.603 66.2901 974.468 66.045 974.287 65.8353L972.122 63.3258C970.711 61.6899 968.241 61.5078 966.605 62.919C966.142 63.3184 965.954 63.951 966.124 64.5384L970.936 81.1816L955.65 73.9419C954.934 73.6031 954.087 73.7181 953.487 74.235L936.068 89.2619C934.813 90.3441 934.673 92.2385 935.756 93.493L938.79 97.011L944.166 92.3734L955.939 106.02L961.108 101.561Z" fill="white"/>
<circle cx="959.259" cy="32.1103" r="3.82301" transform="rotate(-40.7824 959.259 32.1103)" fill="#272C55"/>
<circle cx="949.821" cy="44.5801" r="3.27687" transform="rotate(-40.7824 949.821 44.5801)" fill="#272C55"/>
<path d="M960.658 34.1496L965.692 52.5271L960.993 55.8593L951.276 45.8491L952.103 45.1357L961.926 51.0877L959.061 34.8063L960.658 34.1496Z" fill="#272C55"/>
<rect x="712" y="150.771" width="128" height="128" rx="20" fill="#FF6F61"/>
<path fill-rule="evenodd" clip-rule="evenodd" d="M743.588 190.847C735.856 190.847 729.588 197.115 729.588 204.847L729.588 237C729.588 244.732 735.856 251 743.588 251H801.621C809.353 251 815.621 244.732 815.621 237V204.847C815.621 197.115 809.353 190.847 801.621 190.847H743.588ZM751.982 199.24C744.25 199.24 737.982 205.508 737.982 213.24V228.606C737.982 236.338 744.25 242.606 751.982 242.606H793.227C800.959 242.606 807.227 236.338 807.227 228.606V213.24C807.227 205.508 800.959 199.24 793.227 199.24H751.982Z" fill="#272C55"/>
<path d="M760.014 236.661V213.579H771.555L781.172 235.465C781.491 236.192 782.21 236.661 783.003 236.661H791.233C792.027 236.661 792.745 236.192 793.064 235.465L802.512 213.964C802.623 213.71 802.681 213.436 802.681 213.159V208.787C802.681 206.025 800.433 203.787 797.671 203.787C796.889 203.787 796.177 204.242 795.851 204.952L786.594 225.12L777.678 204.977C777.358 204.253 776.641 203.787 775.849 203.787H745.178C743.521 203.787 742.178 205.13 742.178 206.787V213.579H751.271V236.661H760.014Z" fill="white"/>
<circle cx="816.32" cy="167.765" r="4.89617" fill="#272C55"/>
<circle cx="796.736" cy="171.962" r="4.19672" fill="#272C55"/>
<path d="M815.971 170.912L805.479 192.945L798.135 192.246L797.085 174.41H798.484L803.031 188.399L813.872 170.213L815.971 170.912Z" fill="#272C55"/>
<rect y="325.63" width="107.652" height="107.652" rx="20" transform="rotate(-12.2598 0 325.63)" fill="#FF6F61"/>
<path fill-rule="evenodd" clip-rule="evenodd" d="M35.2928 352.453C27.7372 354.095 22.9431 361.551 24.5849 369.106L29.3819 391.182C31.0238 398.737 38.4798 403.531 46.0355 401.89L89.3803 392.471C96.936 390.829 101.73 383.373 100.088 375.817L95.2912 353.742C93.6494 346.186 86.1933 341.392 78.6377 343.034L35.2928 352.453ZM43.6899 357.852C36.1342 359.494 31.3401 366.95 32.982 374.505L34.781 382.785C36.4229 390.34 43.8789 395.134 51.4346 393.492L80.9831 387.072C88.5388 385.43 93.3328 377.974 91.691 370.418L89.8919 362.139C88.2501 354.583 80.794 349.789 73.2384 351.431L43.6899 357.852Z" fill="#272C55"/>
<path d="M54.7999 387.644L50.6777 368.674L60.1627 366.613L71.853 382.715C72.3192 383.357 73.1208 383.663 73.8962 383.495L80.2544 382.113C81.0297 381.945 81.6321 381.334 81.7898 380.556L85.66 361.466C85.715 361.195 85.7131 360.915 85.6543 360.644L84.8894 357.124C84.3952 354.85 82.1512 353.407 79.8772 353.901C79.2336 354.041 78.7304 354.543 78.589 355.187L74.583 373.413L63.7804 358.618C63.3137 357.978 62.5139 357.674 61.7405 357.842L37.2019 363.175C35.5828 363.527 34.5555 365.124 34.9073 366.743L36.0191 371.86L43.4921 370.236L47.6143 389.206L54.7999 387.644Z" fill="white"/>
<circle cx="88.771" cy="320.966" r="4.11784" transform="rotate(-12.2598 88.771 320.966)" fill="#272C55"/>
<circle cx="73.4248" cy="327.913" r="3.52958" transform="rotate(-12.2598 73.4248 327.913)" fill="#272C55"/>
<path d="M89.0457 323.615L84.3578 343.597L78.197 344.334L74.1494 329.862L75.2991 329.613L81.5339 340.298L87.1963 323.415L89.0457 323.615Z" fill="#272C55"/>
</svg>
