<svg width="1657" height="1278" viewBox="0 0 1657 1278" fill="none" xmlns="http://www.w3.org/2000/svg">
<g opacity="0.34">
<g style="mix-blend-mode:screen">
<path d="M225.753 492.679C225.532 492.879 225.26 493.008 224.97 493.049C224.68 493.091 224.386 493.043 224.126 492.912C223.865 492.78 223.649 492.572 223.505 492.312C223.361 492.052 223.296 491.753 223.318 491.452C223.339 491.152 223.447 490.863 223.626 490.622C223.806 490.382 224.05 490.201 224.327 490.102C224.604 490.004 224.902 489.991 225.184 490.067C225.465 490.143 225.717 490.304 225.908 490.529C226.163 490.831 226.29 491.227 226.261 491.63C226.232 492.033 226.05 492.41 225.753 492.679V492.679Z" fill="#FFFABE" fill-opacity="0.41"/>
</g>
<g style="mix-blend-mode:screen">
<path d="M91.9876 722.252C91.7666 722.452 91.494 722.581 91.2042 722.623C90.9145 722.664 90.6206 722.616 90.3599 722.485C90.0991 722.354 89.8831 722.145 89.7393 721.885C89.5954 721.625 89.5301 721.326 89.5517 721.026C89.5733 720.725 89.6807 720.436 89.8604 720.196C90.0401 719.956 90.2841 719.775 90.5613 719.676C90.8386 719.577 91.1367 719.565 91.418 719.641C91.6994 719.717 91.9512 719.878 92.1418 720.103C92.3971 720.404 92.5243 720.8 92.4954 721.203C92.4665 721.606 92.2839 721.983 91.9876 722.252V722.252Z" fill="#FFFABE" fill-opacity="0.41"/>
</g>
<g style="mix-blend-mode:screen">
<path d="M1412.75 282.678C1412.53 282.879 1412.26 283.008 1411.97 283.049C1411.68 283.091 1411.39 283.043 1411.13 282.912C1410.86 282.78 1410.65 282.572 1410.5 282.312C1410.36 282.052 1410.3 281.753 1410.32 281.452C1410.34 281.151 1410.45 280.863 1410.63 280.622C1410.81 280.382 1411.05 280.201 1411.33 280.102C1411.6 280.004 1411.9 279.991 1412.18 280.067C1412.46 280.143 1412.72 280.304 1412.91 280.529C1413.16 280.831 1413.29 281.227 1413.26 281.63C1413.23 282.033 1413.05 282.41 1412.75 282.678V282.678Z" fill="#FFFABE"/>
</g>
<path opacity="0.91" d="M1278.99 448.252C1278.77 448.452 1278.49 448.581 1278.2 448.623C1277.91 448.664 1277.62 448.616 1277.36 448.485C1277.1 448.354 1276.88 448.145 1276.74 447.885C1276.6 447.625 1276.53 447.326 1276.55 447.026C1276.57 446.725 1276.68 446.436 1276.86 446.196C1277.04 445.956 1277.28 445.775 1277.56 445.676C1277.84 445.577 1278.14 445.565 1278.42 445.641C1278.7 445.717 1278.95 445.877 1279.14 446.103C1279.4 446.404 1279.52 446.8 1279.5 447.203C1279.47 447.606 1279.28 447.983 1278.99 448.252V448.252Z" fill="#FFFABE"/>
<g style="mix-blend-mode:screen">
<path d="M1499.68 385.758C1499.84 385.499 1500.06 385.29 1500.32 385.16C1500.59 385.029 1500.88 384.982 1501.17 385.024C1501.46 385.067 1501.73 385.197 1501.94 385.398C1502.16 385.599 1502.31 385.863 1502.38 386.155C1502.45 386.447 1502.43 386.755 1502.33 387.039C1502.22 387.323 1502.04 387.572 1501.81 387.752C1501.57 387.932 1501.29 388.037 1501 388.053C1500.7 388.068 1500.42 387.994 1500.17 387.84C1500 387.738 1499.86 387.604 1499.74 387.444C1499.63 387.285 1499.55 387.103 1499.5 386.91C1499.46 386.716 1499.45 386.515 1499.48 386.317C1499.51 386.12 1499.58 385.93 1499.68 385.758V385.758Z" fill="#FFFABE"/>
</g>
<g style="mix-blend-mode:screen">
<path d="M1483.73 438.803C1483.4 438.559 1483.16 438.221 1483.02 437.83C1482.89 437.439 1482.86 437.013 1482.96 436.606C1483.06 436.199 1483.27 435.83 1483.57 435.544C1483.87 435.259 1484.25 435.07 1484.65 435.001C1485.05 434.933 1485.46 434.989 1485.82 435.161C1486.19 435.333 1486.49 435.614 1486.7 435.968C1486.91 436.323 1487.01 436.735 1486.99 437.153C1486.97 437.57 1486.84 437.974 1486.6 438.314C1486.44 438.54 1486.23 438.732 1486 438.879C1485.77 439.026 1485.52 439.124 1485.25 439.17C1484.99 439.215 1484.71 439.206 1484.45 439.143C1484.19 439.08 1483.95 438.964 1483.73 438.803V438.803Z" fill="#FFFABE"/>
</g>
<g style="mix-blend-mode:screen">
<path d="M1620.3 477.579C1619.97 477.335 1619.72 476.996 1619.59 476.604C1619.45 476.213 1619.43 475.787 1619.53 475.381C1619.63 474.974 1619.84 474.604 1620.14 474.319C1620.44 474.034 1620.82 473.846 1621.22 473.779C1621.62 473.711 1622.03 473.768 1622.39 473.941C1622.76 474.114 1623.06 474.396 1623.27 474.751C1623.48 475.106 1623.58 475.519 1623.56 475.936C1623.54 476.354 1623.4 476.758 1623.16 477.097C1623 477.322 1622.8 477.514 1622.57 477.66C1622.34 477.806 1622.08 477.904 1621.82 477.949C1621.55 477.994 1621.28 477.984 1621.02 477.92C1620.76 477.857 1620.51 477.741 1620.3 477.579V477.579Z" fill="#FFFABE"/>
</g>
<path opacity="0.91" d="M1358.57 395.317C1359.12 395.008 1359.74 394.872 1360.35 394.926C1360.97 394.979 1361.55 395.22 1362.03 395.617C1362.51 396.015 1362.86 396.551 1363.04 397.16C1363.22 397.768 1363.23 398.42 1363.05 399.035C1362.87 399.65 1362.52 400.2 1362.05 400.616C1361.57 401.031 1360.99 401.294 1360.37 401.371C1359.75 401.448 1359.13 401.335 1358.58 401.048C1358.04 400.76 1357.58 400.31 1357.29 399.754C1357.09 399.381 1356.96 398.97 1356.92 398.544C1356.87 398.118 1356.91 397.686 1357.03 397.273C1357.15 396.861 1357.35 396.475 1357.61 396.139C1357.88 395.803 1358.2 395.524 1358.57 395.317Z" fill="#FFFABE"/>
<g style="mix-blend-mode:screen">
<path d="M1573.33 450.496C1573.47 450.198 1573.52 449.866 1573.48 449.542C1573.44 449.217 1573.3 448.915 1573.09 448.674C1572.88 448.432 1572.6 448.262 1572.29 448.184C1571.98 448.107 1571.66 448.126 1571.36 448.239C1571.06 448.352 1570.79 448.555 1570.6 448.82C1570.41 449.085 1570.3 449.402 1570.28 449.73C1570.26 450.058 1570.34 450.383 1570.5 450.663C1570.67 450.943 1570.91 451.166 1571.19 451.303C1571.58 451.485 1572.02 451.503 1572.42 451.351C1572.82 451.2 1573.15 450.893 1573.33 450.496Z" fill="#FFFABE"/>
</g>
<g style="mix-blend-mode:screen">
<path d="M1564.16 332.544C1564.57 332.697 1565.02 332.72 1565.45 332.61C1565.88 332.5 1566.27 332.262 1566.57 331.925C1566.87 331.589 1567.07 331.17 1567.14 330.72C1567.22 330.27 1567.16 329.811 1566.98 329.399C1566.8 328.988 1566.5 328.643 1566.13 328.408C1565.75 328.174 1565.32 328.059 1564.88 328.08C1564.44 328.101 1564.01 328.256 1563.65 328.525C1563.29 328.795 1563.02 329.167 1562.86 329.594C1562.65 330.169 1562.67 330.802 1562.92 331.355C1563.16 331.907 1563.61 332.335 1564.16 332.544V332.544Z" fill="#FFFABE"/>
</g>
<path opacity="0.91" d="M1419.05 394.347C1419.47 394.5 1419.92 394.523 1420.34 394.413C1420.77 394.303 1421.16 394.065 1421.46 393.728C1421.77 393.392 1421.97 392.972 1422.04 392.523C1422.11 392.073 1422.05 391.614 1421.87 391.202C1421.69 390.791 1421.39 390.446 1421.02 390.211C1420.65 389.976 1420.21 389.862 1419.77 389.883C1419.33 389.904 1418.9 390.059 1418.55 390.328C1418.19 390.598 1417.91 390.969 1417.75 391.397C1417.55 391.972 1417.57 392.605 1417.81 393.159C1418.05 393.712 1418.5 394.139 1419.05 394.347V394.347Z" fill="#FFFABE"/>
<path opacity="0.91" d="M1292.45 486.775C1292.4 486.078 1292.15 485.417 1291.73 484.875C1291.31 484.332 1290.74 483.933 1290.09 483.727C1289.45 483.522 1288.76 483.519 1288.1 483.719C1287.45 483.92 1286.87 484.315 1286.43 484.854C1285.99 485.393 1285.71 486.052 1285.63 486.748C1285.55 487.444 1285.67 488.146 1285.98 488.764C1286.29 489.383 1286.77 489.89 1287.36 490.223C1287.95 490.555 1288.63 490.697 1289.3 490.632C1289.75 490.589 1290.19 490.455 1290.59 490.238C1291 490.021 1291.35 489.725 1291.65 489.366C1291.94 489.008 1292.16 488.594 1292.3 488.15C1292.44 487.705 1292.49 487.238 1292.45 486.775V486.775Z" fill="#FFFABE"/>
<g style="mix-blend-mode:screen">
<path d="M1189.96 661.121C1188.73 662.626 1188.9 664.856 1190.34 666.103C1191.78 667.35 1193.94 667.141 1195.17 665.636C1196.4 664.131 1196.23 661.901 1194.8 660.654C1193.36 659.407 1191.19 659.616 1189.96 661.121Z" fill="#FFFABE"/>
</g>
<g style="mix-blend-mode:screen">
<path d="M312.683 659.759C312.835 659.499 313.058 659.29 313.324 659.16C313.589 659.029 313.885 658.982 314.173 659.024C314.462 659.067 314.731 659.197 314.945 659.398C315.16 659.599 315.31 659.863 315.378 660.155C315.446 660.447 315.428 660.755 315.327 661.039C315.225 661.324 315.044 661.572 314.807 661.752C314.571 661.933 314.288 662.037 313.996 662.053C313.704 662.068 313.416 661.994 313.167 661.84C313.002 661.738 312.859 661.604 312.745 661.444C312.631 661.285 312.55 661.103 312.505 660.91C312.46 660.716 312.452 660.515 312.483 660.318C312.514 660.12 312.582 659.93 312.683 659.759V659.759Z" fill="#FFFABE" fill-opacity="0.41"/>
</g>
<g style="mix-blend-mode:screen">
<path d="M296.73 712.803C296.405 712.559 296.158 712.221 296.022 711.83C295.885 711.439 295.864 711.013 295.962 710.606C296.06 710.199 296.273 709.83 296.572 709.544C296.872 709.259 297.246 709.07 297.646 709.001C298.046 708.933 298.455 708.989 298.822 709.161C299.188 709.333 299.495 709.614 299.703 709.968C299.912 710.323 300.013 710.735 299.994 711.153C299.975 711.57 299.836 711.974 299.596 712.314C299.436 712.54 299.235 712.732 299.004 712.879C298.774 713.026 298.518 713.124 298.252 713.17C297.986 713.215 297.715 713.206 297.453 713.143C297.192 713.08 296.947 712.964 296.73 712.803V712.803Z" fill="#FFFABE" fill-opacity="0.41"/>
</g>
<g style="mix-blend-mode:screen">
<path d="M433.295 751.579C432.97 751.335 432.724 750.996 432.588 750.605C432.452 750.213 432.432 749.787 432.531 749.381C432.629 748.974 432.842 748.605 433.142 748.319C433.442 748.034 433.817 747.846 434.217 747.779C434.618 747.712 435.027 747.768 435.393 747.941C435.759 748.114 436.065 748.396 436.273 748.751C436.481 749.106 436.581 749.519 436.561 749.936C436.541 750.354 436.401 750.758 436.16 751.097C436 751.322 435.798 751.514 435.568 751.66C435.337 751.806 435.081 751.904 434.815 751.949C434.549 751.994 434.278 751.984 434.017 751.92C433.756 751.857 433.511 751.741 433.295 751.579V751.579Z" fill="#FFFABE" fill-opacity="0.41"/>
</g>
<g style="mix-blend-mode:screen">
<path d="M171.568 669.317C172.115 669.008 172.736 668.872 173.352 668.926C173.969 668.979 174.553 669.22 175.032 669.617C175.511 670.015 175.863 670.551 176.044 671.16C176.225 671.768 176.227 672.42 176.049 673.035C175.871 673.65 175.522 674.2 175.045 674.616C174.569 675.032 173.986 675.294 173.37 675.371C172.754 675.448 172.132 675.335 171.584 675.048C171.035 674.76 170.584 674.31 170.286 673.754C170.087 673.381 169.961 672.97 169.918 672.544C169.874 672.118 169.913 671.686 170.033 671.274C170.152 670.861 170.349 670.475 170.613 670.139C170.876 669.803 171.201 669.524 171.568 669.317Z" fill="#FFFABE" fill-opacity="0.41"/>
</g>
<g style="mix-blend-mode:screen">
<path d="M386.335 724.496C386.473 724.199 386.524 723.866 386.48 723.542C386.436 723.218 386.3 722.915 386.088 722.674C385.876 722.432 385.598 722.262 385.29 722.184C384.982 722.107 384.658 722.126 384.357 722.239C384.057 722.353 383.794 722.555 383.603 722.82C383.412 723.085 383.3 723.402 383.282 723.73C383.265 724.058 383.342 724.383 383.504 724.663C383.666 724.943 383.905 725.166 384.192 725.303C384.576 725.485 385.016 725.503 385.417 725.352C385.818 725.2 386.148 724.893 386.335 724.496Z" fill="#FFFABE" fill-opacity="0.41"/>
</g>
<g style="mix-blend-mode:screen">
<path d="M911.618 863.053C911.795 862.813 912.037 862.632 912.313 862.534C912.588 862.435 912.886 862.424 913.167 862.501C913.449 862.578 913.702 862.739 913.895 862.965C914.087 863.191 914.211 863.471 914.25 863.77C914.288 864.069 914.24 864.374 914.112 864.645C913.984 864.916 913.781 865.142 913.528 865.294C913.276 865.446 912.987 865.517 912.696 865.499C912.405 865.48 912.126 865.373 911.895 865.19C911.584 864.945 911.381 864.582 911.329 864.182C911.277 863.781 911.381 863.375 911.618 863.053V863.053Z" fill="#FFFABE"/>
</g>
<g style="mix-blend-mode:screen">
<path d="M1009.8 674.191C1009.97 673.951 1010.22 673.77 1010.49 673.672C1010.77 673.574 1011.06 673.562 1011.35 673.639C1011.63 673.716 1011.88 673.877 1012.07 674.103C1012.27 674.329 1012.39 674.61 1012.43 674.909C1012.47 675.208 1012.42 675.512 1012.29 675.783C1012.16 676.054 1011.96 676.28 1011.71 676.432C1011.46 676.584 1011.17 676.655 1010.87 676.637C1010.58 676.618 1010.3 676.511 1010.07 676.328C1009.76 676.083 1009.56 675.72 1009.51 675.32C1009.46 674.919 1009.56 674.513 1009.8 674.191V674.191Z" fill="#FFFABE"/>
</g>
<g style="mix-blend-mode:screen">
<path d="M805.931 779.313C805.833 779.597 805.656 779.846 805.422 780.027C805.188 780.208 804.908 780.313 804.617 780.328C804.325 780.344 804.036 780.27 803.786 780.116C803.536 779.961 803.336 779.733 803.211 779.46C803.086 779.187 803.043 778.882 803.086 778.583C803.129 778.284 803.256 778.005 803.453 777.781C803.649 777.557 803.905 777.399 804.188 777.325C804.471 777.252 804.769 777.267 805.043 777.369C805.225 777.436 805.392 777.539 805.535 777.673C805.678 777.807 805.794 777.968 805.877 778.149C805.959 778.33 806.007 778.525 806.016 778.725C806.025 778.925 805.996 779.124 805.931 779.313V779.313Z" fill="#FFFABE"/>
</g>
<g style="mix-blend-mode:screen">
<path d="M915.02 628.156C915.387 628.33 915.696 628.612 915.908 628.968C916.119 629.324 916.224 629.737 916.209 630.156C916.194 630.574 916.059 630.978 915.823 631.318C915.586 631.657 915.257 631.917 914.878 632.063C914.499 632.21 914.087 632.237 913.694 632.141C913.301 632.045 912.945 631.83 912.67 631.524C912.395 631.219 912.214 630.835 912.149 630.422C912.085 630.009 912.14 629.585 912.309 629.204C912.42 628.951 912.579 628.723 912.776 628.533C912.973 628.344 913.204 628.196 913.456 628.098C913.707 628.001 913.975 627.956 914.243 627.966C914.512 627.976 914.776 628.04 915.02 628.156V628.156Z" fill="#FFFABE"/>
</g>
<g style="mix-blend-mode:screen">
<path d="M669.472 713.304C669.839 713.478 670.148 713.761 670.359 714.118C670.57 714.474 670.674 714.888 670.658 715.306C670.643 715.724 670.507 716.128 670.27 716.467C670.032 716.807 669.703 717.065 669.324 717.211C668.945 717.357 668.533 717.383 668.14 717.286C667.747 717.189 667.39 716.974 667.116 716.667C666.842 716.36 666.661 715.976 666.598 715.563C666.535 715.149 666.591 714.726 666.76 714.345C666.873 714.093 667.032 713.865 667.229 713.676C667.426 713.487 667.657 713.34 667.909 713.243C668.161 713.146 668.428 713.102 668.697 713.112C668.965 713.123 669.228 713.188 669.472 713.304V713.304Z" fill="#FFFABE"/>
</g>
<g style="mix-blend-mode:screen">
<path d="M1014.33 693.891C1013.85 694.302 1013.27 694.559 1012.66 694.629C1012.04 694.699 1011.42 694.579 1010.87 694.285C1010.33 693.99 1009.87 693.535 1009.58 692.975C1009.28 692.414 1009.15 691.775 1009.2 691.137C1009.25 690.499 1009.48 689.891 1009.87 689.389C1010.25 688.887 1010.77 688.513 1011.36 688.315C1011.95 688.118 1012.58 688.104 1013.17 688.277C1013.77 688.45 1014.3 688.801 1014.7 689.287C1014.97 689.613 1015.18 689.991 1015.3 690.4C1015.43 690.808 1015.48 691.239 1015.44 691.668C1015.41 692.096 1015.29 692.513 1015.1 692.895C1014.91 693.276 1014.65 693.615 1014.33 693.891Z" fill="#FFFABE"/>
</g>
<g style="mix-blend-mode:screen">
<path d="M720.879 730.509C720.803 730.829 720.819 731.164 720.927 731.474C721.034 731.783 721.228 732.052 721.484 732.247C721.739 732.441 722.045 732.553 722.362 732.568C722.68 732.582 722.994 732.499 723.266 732.328C723.538 732.158 723.755 731.907 723.89 731.609C724.025 731.311 724.071 730.978 724.023 730.653C723.975 730.328 723.835 730.025 723.621 729.783C723.406 729.541 723.127 729.37 722.819 729.293C722.406 729.191 721.972 729.261 721.608 729.489C721.245 729.717 720.983 730.083 720.879 730.509Z" fill="#FFFABE"/>
</g>
<g style="mix-blend-mode:screen">
<path d="M753.32 844.284C752.885 844.215 752.44 844.282 752.042 844.475C751.643 844.668 751.308 844.979 751.08 845.369C750.851 845.759 750.739 846.209 750.758 846.664C750.777 847.119 750.925 847.558 751.184 847.925C751.444 848.292 751.803 848.571 752.215 848.727C752.628 848.883 753.077 848.909 753.504 848.801C753.932 848.693 754.319 848.456 754.617 848.121C754.915 847.785 755.111 847.366 755.18 846.916C755.268 846.311 755.123 845.695 754.774 845.202C754.426 844.709 753.903 844.379 753.32 844.284V844.284Z" fill="#FFFABE"/>
</g>
<g style="mix-blend-mode:screen">
<path d="M1027.24 586.866C1026.81 586.798 1026.36 586.865 1025.97 587.058C1025.57 587.251 1025.23 587.562 1025 587.952C1024.78 588.341 1024.66 588.792 1024.68 589.247C1024.7 589.702 1024.85 590.141 1025.11 590.508C1025.37 590.875 1025.73 591.154 1026.14 591.31C1026.55 591.466 1027 591.492 1027.43 591.384C1027.86 591.276 1028.24 591.039 1028.54 590.704C1028.84 590.368 1029.03 589.949 1029.1 589.499C1029.19 588.894 1029.05 588.277 1028.7 587.783C1028.35 587.29 1027.83 586.96 1027.24 586.866V586.866Z" fill="#FFFABE"/>
</g>
<g style="mix-blend-mode:screen">
<path d="M1036.94 639.114C1037.13 639.786 1037.51 640.384 1038.03 640.832C1038.55 641.28 1039.19 641.559 1039.86 641.632C1040.53 641.705 1041.21 641.57 1041.81 641.244C1042.41 640.918 1042.9 640.415 1043.23 639.799C1043.55 639.183 1043.69 638.482 1043.63 637.784C1043.57 637.086 1043.31 636.422 1042.89 635.878C1042.46 635.333 1041.89 634.931 1041.25 634.723C1040.6 634.515 1039.91 634.509 1039.26 634.708C1038.83 634.839 1038.43 635.058 1038.08 635.35C1037.72 635.643 1037.43 636.005 1037.22 636.414C1037 636.823 1036.87 637.273 1036.82 637.736C1036.77 638.2 1036.81 638.668 1036.94 639.114V639.114Z" fill="#FFFABE"/>
</g>
<g style="mix-blend-mode:screen">
<path d="M1054.73 447.872C1055.63 446.153 1055.03 444 1053.37 443.064C1051.71 442.129 1049.63 442.764 1048.72 444.483C1047.81 446.203 1048.42 448.355 1050.08 449.291C1051.74 450.227 1053.82 449.591 1054.73 447.872Z" fill="#FFFABE"/>
</g>
<g style="mix-blend-mode:screen">
<path d="M377.161 606.544C377.573 606.697 378.022 606.72 378.451 606.61C378.881 606.5 379.27 606.262 379.572 605.926C379.873 605.589 380.073 605.17 380.145 604.72C380.217 604.27 380.159 603.811 379.978 603.4C379.796 602.988 379.5 602.643 379.127 602.408C378.753 602.174 378.318 602.059 377.878 602.08C377.438 602.101 377.011 602.256 376.652 602.525C376.293 602.795 376.018 603.167 375.862 603.594C375.654 604.169 375.675 604.802 375.918 605.355C376.161 605.907 376.608 606.335 377.161 606.544V606.544Z" fill="#FFFABE" fill-opacity="0.41"/>
</g>
<g style="mix-blend-mode:screen">
<path d="M232.054 668.347C232.466 668.5 232.916 668.523 233.345 668.413C233.774 668.303 234.164 668.065 234.465 667.728C234.766 667.392 234.966 666.972 235.038 666.523C235.11 666.073 235.052 665.614 234.871 665.202C234.69 664.791 234.393 664.446 234.02 664.211C233.646 663.976 233.212 663.862 232.771 663.883C232.331 663.904 231.904 664.059 231.545 664.328C231.186 664.598 230.911 664.969 230.755 665.397C230.546 665.972 230.565 666.606 230.809 667.159C231.052 667.712 231.5 668.139 232.054 668.347V668.347Z" fill="#FFFABE" fill-opacity="0.41"/>
</g>
<g style="mix-blend-mode:screen">
<path d="M105.455 760.775C105.401 760.078 105.148 759.417 104.728 758.875C104.308 758.332 103.74 757.933 103.095 757.727C102.45 757.522 101.757 757.519 101.105 757.72C100.452 757.92 99.8689 758.315 99.4286 758.854C98.9883 759.393 98.7108 760.052 98.6311 760.748C98.5515 761.444 98.6733 762.146 98.9811 762.764C99.289 763.383 99.769 763.89 100.361 764.223C100.952 764.555 101.629 764.698 102.305 764.632C102.754 764.589 103.192 764.455 103.594 764.238C103.996 764.021 104.354 763.725 104.646 763.366C104.939 763.008 105.161 762.595 105.3 762.15C105.439 761.705 105.491 761.238 105.455 760.775V760.775Z" fill="#FFFABE" fill-opacity="0.41"/>
</g>
<g style="mix-blend-mode:screen">
<path d="M2.96071 935.121C1.72986 936.626 1.89883 938.856 3.33812 940.103C4.7774 941.35 6.94199 941.141 8.17283 939.636C9.40368 938.131 9.23468 935.901 7.7954 934.654C6.35611 933.407 4.19155 933.616 2.96071 935.121Z" fill="#FFFABE" fill-opacity="0.41"/>
</g>
<g opacity="0.29">
<path opacity="0.73" d="M1437 503.831L868 503.831L868 1053.26L1437 1053.26L1437 503.831Z" fill="url(#paint0_radial)"/>
<g style="mix-blend-mode:overlay">
<g style="mix-blend-mode:overlay">
<path d="M1294.92 739.836L1294.81 739.438L1294.76 739.237L1284.79 712.577L1284.86 712.635L1284.6 712.055L1284.62 712.008L1284.56 711.956L1284.43 711.612L1284.41 711.642L1277.53 696.358L1277.17 695.74L1277.09 695.61L1275.61 693.219L1269.85 685.181L1269.77 685.084L1269.75 685.063L1267.32 682.156L1266.19 680.818L1266.16 680.792L1264.8 679.271L1262.19 676.438L1261.24 675.438L1260.54 674.727L1260.11 674.296L1258 672.203L1257.98 672.184L1257.94 672.147L1257.32 671.542L1256.6 670.857L1255.8 670.118L1254.13 668.596L1253.34 667.883L1252.02 666.717L1251.41 666.194L1251.28 666.088L1248.98 664.149L1247.39 662.856L1247.32 662.8L1245.27 661.199L1243.89 660.161L1242.52 659.135L1242.49 659.118L1242.42 659.066L1240.66 657.812L1238.08 656.026L1237.41 655.571L1236.33 654.853L1235.14 654.082L1234.76 653.845L1232.08 652.179L1229.31 650.54L1226.47 648.954L1224.52 647.913L1222.63 646.92L1222.52 646.864L1222.32 646.765L1222.27 646.737L1219.97 645.595L1219.56 645.398L1216.54 643.983L1215.76 643.627L1213.92 642.819L1211.71 641.899L1210.19 641.272L1208.73 640.701L1208.53 640.626L1208.45 640.593L1207.96 640.406L1207.74 640.326L1207.58 640.266L1206.97 640.05L1205.85 639.647L1203.4 638.766L1199.74 637.562L1196.08 636.456L1195.78 636.368L1195.51 636.29L1193.86 635.842L1191.85 635.312L1190.17 634.881L1190.15 634.937L1189 634.595L1188.89 634.567L1188.53 634.483L1188.4 634.452L1187.16 634.174L1185.46 633.802L1185.38 633.784L1185.36 633.784L1182.86 633.285L1182.19 633.16L1177.8 632.403L1176.83 632.246L1172.71 631.673L1172.65 631.673L1172.54 631.66L1169.45 631.315L1167.5 631.138L1166.06 631.016L1166.07 631.016L1165.54 630.981L1165.5 630.981L1162.76 630.802L1162.7 630.802L1159.93 630.675L1159.58 630.675L1156.42 630.561L1153.58 630.561L1151.25 630.587L1151.02 630.587L1150.21 630.6L1150.06 630.6L1148.36 630.662L1146.71 630.731L1146.64 630.731L1143.25 631.156L1143.21 631.156L1142.86 631.222L1142.75 631.246L1142.34 631.33L1142.29 631.33L1141.24 631.582L1141.15 631.604L1140.8 631.688L1139.42 632.046L1139.34 632.011L1139.3 632.067L1119.6 635.112L1119.38 635.159L1119.23 635.191L1111.72 636.967L1111.72 636.894L1111.49 637.019L1111.38 637.047L1111.38 637.07L1078.32 651.664L1077.42 651.63L1077.29 651.71L1075.27 652.947L1075.14 653.02L1072.91 654.444L1072.64 654.625L1070.02 656.368L1069.93 656.431L1068.52 657.413L1068.47 657.452L1068.37 657.519L1066.77 658.657L1064.99 659.949L1064.98 659.949L1062.82 661.587L1062.54 661.803L1060.14 663.707L1058.17 665.336L1057.79 665.698L1055.48 667.7L1055.19 667.954L1055.24 667.887L1054.31 668.749L1054.25 668.799L1052.65 670.286L1051.04 671.794L1049.16 673.639L1048.91 673.891L1046.83 676.013L1046.82 676.028L1046.62 676.231L1045.17 677.767L1044.79 678.198L1042.78 680.413L1042.75 680.445L1041.06 682.4L1040.86 682.645L1038.98 684.91L1038.96 684.94L1037.77 686.448L1037.64 686.619L1037.55 686.733L1036.63 687.914L1035.39 689.534L1035.14 689.881L1035.06 689.98L1033.41 692.264L1032.96 692.911L1032.74 693.223L1032.7 693.275L1032 694.294L1031.99 694.318L1031.97 694.341L1030.96 695.85L1030.81 696.065L1030.75 696.156L1029.94 697.397L1028.84 699.12L1027.45 701.4L1027.35 701.585L1025.9 704.083L1024.61 706.41L1024.5 706.608L1023.16 709.159L1022.08 711.314L1021.88 711.728L1020.64 714.335L1020.15 715.412L1019.7 716.43L1019.43 717.076L1019.4 717.076L1018.23 719.845L1017.92 720.595L1017.57 721.485L1017.14 722.601L1016.1 725.37L1015.24 727.817L1015.12 728.173L1014.21 730.974L1014.05 731.48L1013.46 733.42L1013.36 733.797L1012.57 736.626L1011.92 739.14L1011.85 739.459L1011.18 742.319L1011.18 742.336L1010.7 744.663L1010.67 744.825L1010.67 744.84L1010.42 746.07L1010.05 748.072L1009.63 750.658L1009.57 751.02L1009.16 753.924L1009.12 754.28L1009.12 754.314L1008.87 756.353L1008.81 756.911L1008.53 759.77L1008.46 760.632L1008.37 761.791L1008.31 762.718L1008.14 765.661L1008.05 768.247L1008.05 768.626L1008.02 771.587L1008.02 771.918L1008.04 774.196L1008.04 774.543L1008.12 777.299L1008.12 777.314L1008.34 781.242L1008.45 782.8L1008.48 783.102L1008.48 783.149L1008.53 783.828L1008.53 783.875L1008.55 784.091L1008.55 784.101L1008.73 785.825L1008.78 786.336L1009.02 788.579L1009.15 789.564L1009.47 791.901L1009.5 792.128L1009.95 794.929L1009.96 795.03L1009.96 795.043L1010.44 797.683L1010.51 798.017L1011.07 800.768L1011.07 800.792L1011.07 800.807L1011.52 802.792L1012.43 806.496L1012.73 807.64L1013.08 808.883L1013.2 809.314L1014.04 812.137L1015.38 816.196L1015.63 816.931L1015.64 816.961L1015.7 817.125L1015.71 817.157L1015.91 817.711L1016.87 820.325L1016.93 820.478L1018.02 823.242L1018.02 823.255L1018.86 825.24L1018.86 825.259L1018.93 825.427L1019.54 826.847L1020.36 828.702L1020.68 829.39L1020.83 829.698L1020.87 829.78L1021.86 831.913L1022.89 834.003L1022.89 834.022L1024.11 836.375L1024.55 837.175L1025.59 839.077L1025.59 839.095L1026.9 841.387L1027.01 841.568L1028.49 844.025L1028.51 844.051L1028.51 844.066L1029.99 846.414L1030.09 846.557L1031.63 848.899L1033.7 851.846L1033.68 851.833L1033.89 852.118L1033.91 852.152L1034.52 852.997L1034.81 853.398L1034.99 853.641L1035.32 854.094L1036.51 855.662L1036.81 856.024L1038.61 858.315L1040.25 860.312L1040.47 860.588L1042.38 862.818L1043.16 863.71L1044.05 864.702L1044.35 865.025L1046.36 867.192L1046.96 867.824L1048.3 869.19L1048.44 869.33L1050.55 871.416L1050.58 871.45L1052.47 873.247L1052.75 873.502L1054.98 875.533L1055 875.546L1055.04 875.583L1057.17 877.443L1057.28 877.54L1059.61 879.492L1059.67 879.541L1061.14 880.711L1062.92 882.097L1064.48 883.299L1066.68 884.92L1066.98 885.135L1069.51 886.919L1072.12 888.671L1074.13 889.964L1075.04 890.537L1075.14 890.599L1077.63 892.108L1077.74 892.175L1079.29 893.071L1082.09 894.661L1083.48 895.409L1083.92 895.642L1084.89 896.144L1085.26 896.327L1085.41 896.402L1086.35 896.874L1086.84 897.118L1087.95 897.648L1088.28 897.803L1089.72 898.462L1090.08 898.624L1091.18 899.106L1091.69 899.322L1092.66 899.736L1093.19 899.951L1094.23 900.369L1094.64 900.533L1094.66 900.533L1096.45 901.22L1096.85 901.371L1098.52 901.974L1098.73 902.05L1100.57 902.675L1101.01 902.817L1102.89 903.414L1104.44 903.877L1104.95 904.021L1106 904.319L1106.6 904.482L1107.56 904.739L1108.2 904.905L1109.14 905.14L1109.79 905.297L1110.73 905.512L1111.37 905.659L1112.31 905.874L1112.5 906.036L1112.52 905.978L1113.69 906.624L1113 906.025L1114.12 906.241L1114.54 906.327L1116.17 906.633C1133.65 909.634 1153.83 912.382 1167.44 912.382L1168.3 912.382L1170.97 912.095L1172.9 911.88L1174.31 911.699L1174.35 911.699L1178.47 911.089L1178.55 911.074L1182.57 910.365L1187.21 909.462L1187.28 909.447L1188.79 909.1L1188.92 909.07L1190.26 908.742L1192.46 908.18L1193.24 907.964L1194.55 907.618L1194.97 907.501L1195.57 907.335L1199.51 906.154L1202.88 905.056L1203.15 904.965L1203.37 904.888L1204.71 904.422L1204.77 904.401L1207.65 903.323L1209.65 902.558L1212.58 901.367L1212.87 901.274L1216.05 899.895L1216.83 899.544L1218.79 898.628L1220.89 897.6L1222.07 897.023L1222.52 896.807L1224.64 895.704L1224.95 895.536L1227.81 893.969L1228.23 893.735L1230.02 892.7L1230.56 892.379L1233.29 890.722L1235.64 889.207L1236.59 888.576L1238.54 887.283L1238.56 887.283L1239.12 886.898L1240.75 885.758L1241.09 885.516L1243.59 883.691L1244.02 883.37L1245.7 882.09L1246.03 881.827L1248.43 879.921L1249.84 878.753L1250.63 878.093L1250.63 878.108L1251.07 877.727L1251.14 877.667L1251.69 877.199L1253.09 875.977L1255.06 874.195L1255.33 873.95L1257.53 871.881L1257.65 871.761L1259.25 870.196L1259.66 869.787L1261.2 868.21L1261.82 867.578L1261.93 867.466L1263.78 865.486L1265.77 863.282L1265.79 863.254L1267.49 861.301L1268.25 860.381L1269.57 858.793L1269.59 858.767L1270.9 857.117L1271.73 856.04L1273.16 854.167L1274.72 852.012L1274.86 851.812L1276.53 849.427L1278.01 847.209L1278.13 847.013L1279.69 844.574L1281.01 842.419L1281.19 842.109L1282.65 839.605L1283.37 838.312L1284.08 837.02L1285.57 833.828L1285.99 832.854L1287 830.413L1287.59 828.905L1287.59 828.92L1287.79 828.383L1287.82 828.327L1288.53 826.433L1288.59 825.729L1295.79 804.582L1295.92 803.99L1295.95 803.89L1299.21 770.001L1294.92 739.836ZM1250.81 768.012L1248.78 771.069L1250.06 759.593L1250.07 759.432L1250.14 758.553L1250.73 744.167L1250.73 744.114L1239.85 683.009L1240.16 683.382L1263.41 718.074L1269.62 731.021L1269.6 731.036L1269.63 731.071L1251.18 767.454L1250.81 768.014L1250.81 768.012ZM1252.62 828.228L1231.2 874.73L1225.32 861.734L1224.94 861.269L1224.91 861.235L1218.25 854.469L1218.29 854.408L1218.3 854.408L1218.33 854.342L1218.53 854.044L1218.48 854.044L1237.44 815.942L1252.53 827.078L1252.62 828.228ZM1068.23 881.397L1077.65 875.389L1078 876.094L1111.17 904.879L1068.77 881.705L1068.23 881.397ZM1047.77 819.228L1047.41 818.541L1046.8 817.351L1046.58 816.905L1045.82 815.369L1045.74 815.216L1034.85 787.038L1034.69 786.5L1036.2 781.591L1046.85 757.673L1047.01 757.383L1055.11 777.592L1054.95 778.656L1054.94 778.749L1054.94 778.766L1059.54 838.741L1048.9 821.37L1048.73 821.044L1048.14 819.933L1047.77 819.228ZM1029.29 712.902L1036.7 702.937L1029.05 742.584C1028.96 742.603 1028.83 742.633 1028.62 742.67C1027.42 742.916 1024.36 743.532 1021.26 744.075C1019.71 744.351 1018.16 744.609 1016.83 744.799C1015.8 744.965 1014.77 745.07 1013.73 745.111L1013.72 745.111C1013.57 745.115 1013.42 745.103 1013.27 745.075L1013.26 745.075L1028.78 713.648L1029.26 712.943L1029.29 712.902ZM1037.55 701.433L1038.38 699.592L1038.8 698.677L1039.02 698.213L1047.08 683.777L1048.06 682.307L1048.35 681.876L1049.1 680.799L1053.56 674.837L1053.82 674.509L1054.62 673.537L1055.4 672.6L1055.73 672.219L1074.43 655.569L1071.72 659.542L1069.8 667.622L1069.8 668.7L1069.22 669.172L1067.95 670.212L1037.55 701.433L1037.55 701.433ZM1154.32 638.917L1195.92 660.288L1238.49 682.165L1211.07 683.507L1193.33 685.563L1180.59 687.041L1180.62 686.985L1180.41 687.043L1161.02 650.307L1154.33 638.923L1154.32 638.917ZM1239.4 682.51L1239.43 682.725L1239.45 682.712L1241.26 692.911L1239.33 682.464L1239.4 682.51ZM1250.38 744.178L1249.8 758.525L1249.73 759.399L1249.72 759.557L1248.39 771.455L1232.03 731.062L1231.95 730.903L1231.61 730.256L1226.43 720.898L1226.49 720.851L1226.42 720.799L1236.81 694.671L1238.11 688.207L1239.12 683.214L1250.38 744.178ZM1183.66 892.041L1199.42 878.141L1199.53 878.024L1200.43 877.085L1200.75 876.744L1201.48 875.962L1201.95 875.456L1202.55 874.797L1203.12 874.163L1203.62 873.605L1204.25 872.881L1204.68 872.398L1205.35 871.612L1205.72 871.181L1206.41 870.353L1206.74 869.959L1207.45 869.097L1207.74 868.74L1208.47 867.837L1208.72 867.537L1209.49 866.568L1209.64 866.372L1210.48 865.294L1218.01 854.77L1224.61 861.472L1224.63 861.491L1224.99 861.922L1230.94 875.066L1183.66 892.041ZM1217.83 854.469L1210.24 865.079L1209.4 866.156L1209.25 866.352L1208.48 867.322L1208.24 867.619L1207.51 868.52L1207.22 868.877L1206.51 869.739L1206.18 870.134L1205.48 870.959L1205.11 871.39L1204.44 872.176L1204.02 872.657L1203.38 873.383L1202.88 873.941L1202.31 874.572L1201.71 875.219L1201.24 875.725L1200.51 876.51L1200.19 876.85L1199.3 877.789L1199.19 877.902L1183.18 892.026L1184.75 887.624L1184.75 878.789L1184.71 878.574L1184.67 878.41L1184.67 878.397L1180.72 868.535L1176.67 862.26L1177.3 862.107L1181.68 861.047L1195.54 858.08L1208.77 855.783L1209.43 855.684L1209.67 855.645L1217.83 854.469ZM1109.84 847.673L1099.57 808.566L1133.73 793.968L1133.63 794.198L1134.03 793.882L1145.12 807.416L1145.74 808.515L1110.12 847.72L1109.84 847.673ZM1029.42 743.116L1046.82 757.036L1046.73 757.199L1046.54 757.536L1035.88 781.47L1034.58 785.674L1033.96 780.596L1029.42 743.116ZM1029.39 742.657L1033.11 723.37L1037.12 702.544L1037.12 702.523L1044.56 707.778L1055.78 713.693L1056 713.796L1057.07 714.309L1057.31 714.426L1058.39 714.932L1058.45 714.962L1073.11 721.517L1069.99 724.99L1047 756.756L1029.39 742.657ZM1069.78 669.146L1067.6 697.188L1067.64 697.442L1067.82 698.858L1067.88 699.254L1068.08 700.596L1068.14 701.008L1068.37 702.398L1068.42 702.719L1068.7 704.251L1068.73 704.413L1070.86 713.583L1070.88 713.659L1071.33 715.296L1071.55 716.1L1071.71 716.634L1073.09 721.123L1069.05 719.319L1058.56 714.632L1058.5 714.602L1057.42 714.096L1057.18 713.98L1056.11 713.469L1055.9 713.368L1044.72 707.464L1037.24 702.18L1068.18 670.441L1069.44 669.413L1069.78 669.146ZM1112.06 706.037L1156.27 693.971L1180.03 687.487L1148.54 759.923L1134.01 793.341L1073.66 721.528L1104.29 709.17L1112.06 706.037ZM1231.31 730.412L1231.65 731.058L1231.73 731.205L1248.24 771.998L1248.24 772.039L1201.16 777.967L1201.13 777.967L1198.51 778.413L1178.68 782.214L1177.19 782.526L1176.33 782.709L1137.85 792.38L1137.2 792.567L1134.84 793.25L1226.16 721.107L1231.31 730.412ZM1055.29 778.706L1055.42 777.87L1099.09 808.467L1066.6 833.876L1059.91 839.101L1055.28 778.768L1055.29 778.706ZM1055.48 777.499L1055.65 776.372L1055.68 776.228L1073.45 721.803L1113.84 769.854L1133.79 793.586L1099.41 808.275L1055.48 777.499ZM1134.49 793.106L1180.39 687.502L1225.93 720.862L1134.49 793.106ZM1134.35 793.752L1137.29 792.891L1137.94 792.705L1176.41 783.037L1177.26 782.854L1178.75 782.541L1198.59 778.74L1201.21 778.294L1201.23 778.294L1248.09 772.397L1215 813.682L1146.17 808.049L1145.98 808.265L1145.4 807.248L1134.35 793.752ZM1146.31 808.405L1214.75 814.007L1176.41 861.842L1146.15 808.566L1146.31 808.405ZM1176.41 861.842L1214.75 813.985L1176.41 861.842ZM1236.48 694.57L1226.13 720.59L1180.76 687.356L1211.09 683.839L1238.91 682.477L1236.48 694.57ZM1070.24 725.195L1072.97 722.178L1055.34 776.161L1055.31 776.329L1055.22 776.937L1047.23 757.027L1070.24 725.195ZM1099.28 808.762L1060.17 839.34L1099.28 808.762ZM1099.28 808.762L1109.47 847.621L1060.17 839.34L1099.28 808.762ZM1110.52 847.787L1145.91 808.836L1176 861.842L1161.69 856.382L1110.52 847.787ZM1209.6 855.328L1209.35 855.365L1208.7 855.466L1195.47 857.748L1181.6 860.72L1176.84 861.872L1180.34 857.505L1215.16 814.029L1237.12 815.826L1218.07 854.098L1209.6 855.328ZM1215.4 813.727L1248.16 772.832L1237.25 815.513L1215.4 813.727ZM1153.81 638.762L1160.72 650.462L1176.95 681.202L1179.93 686.877L1179.1 686.479L1177.87 685.888L1119.61 662.561L1153.81 638.762ZM1119.25 662.852L1119.27 662.882L1119.33 662.807L1177.72 686.181L1178.95 686.765L1179.84 687.196L1111.94 705.727L1073.81 721.105L1088.04 699.103L1107.79 674.849L1108.95 673.574L1109.09 673.427L1113.97 668.232L1114.2 668.004L1115.33 666.827L1119.25 662.852ZM1115.08 666.597L1113.95 667.775L1113.72 667.991L1108.84 673.188L1108.7 673.337L1107.53 674.63L1087.77 698.901L1073.44 721.051L1087.77 698.901L1073.44 721.049L1072.07 716.572L1071.91 716.035L1071.69 715.234L1071.24 713.596L1071.22 713.525L1069.1 704.361L1069.06 704.199L1068.78 702.667L1068.72 702.346L1068.5 700.956L1068.44 700.545L1068.24 699.2L1068.18 698.804L1067.99 697.386L1067.97 697.17L1070.16 668.898L1103.57 663.841L1118.85 662.785L1115.08 666.597ZM1013.31 745.419C1013.45 745.437 1013.6 745.445 1013.74 745.443C1014.99 745.388 1016.24 745.254 1017.47 745.042C1021.8 744.396 1027.91 743.157 1029.05 742.924L1034.33 786.45L1015.3 808.797C1015.23 806.101 1014.84 791.628 1014.41 777.157C1014.17 769.134 1013.93 761.11 1013.72 755.094C1013.61 752.078 1013.52 749.578 1013.43 747.822C1013.4 746.945 1013.36 746.255 1013.33 745.784C1013.33 745.643 1013.31 745.521 1013.3 745.419L1013.31 745.419ZM1060.09 839.694L1060.13 839.694L1060.11 839.657L1095.37 845.57L1109.56 847.964L1109.62 848.192L1077.77 874.876L1060.09 839.694ZM1112.35 905.465L1078.28 875.891L1077.92 875.187L1109.72 848.554L1118.17 880.759L1116.92 886.018L1112.35 905.465ZM1110 848.308L1110.15 848.185L1110.25 848.08L1161.59 856.699L1175.87 862.146L1118.46 880.548L1110 848.308ZM1176.3 862.355L1176.35 862.456L1180.38 868.705L1184.31 878.511L1184.34 878.662L1184.38 878.841L1184.38 887.589L1182.65 892.409L1119.01 880.733L1176.3 862.355ZM1182.85 892.765L1182.87 892.765L1182.91 892.683L1182.97 892.636L1229.49 875.934L1170.07 910.108L1182.85 892.765ZM1237.57 815.625L1248.31 773.662L1252.49 826.638L1237.57 815.625ZM1269.87 730.78L1263.71 717.906L1240.44 683.186L1240.22 682.919L1260.92 693.363L1261.06 693.449L1284.2 712.088L1280.06 720.989L1269.87 730.78ZM1251.03 666.33L1251.16 666.435L1251.77 666.957L1253.09 668.12L1253.89 668.833L1255.55 670.355L1256.35 671.092L1257.07 671.775L1257.69 672.378L1257.73 672.415L1257.75 672.432L1259.87 674.524L1260.29 674.955L1260.99 675.664L1261.94 676.657L1264.53 679.471L1265.9 680.99L1265.92 681.018L1265.92 681.029L1267.06 682.367L1269.48 685.261L1269.5 685.281L1269.57 685.369L1275.33 693.395L1276.8 695.766L1276.87 695.891L1277.23 696.496L1283.97 711.459L1261.28 693.173L1261.11 693.074L1239.88 682.374L1247.51 676.468L1247.53 676.448L1247.8 676.192L1251.39 671.451L1251.44 671.331L1251.49 671.199L1251.49 671.173L1251.59 667.7L1251.54 667.571L1251.51 667.487L1251.51 667.469L1251.49 667.441L1250.63 665.998L1251.03 666.33ZM1215.61 643.92L1216.39 644.274L1219.41 645.689L1219.82 645.885L1222.11 647.027L1222.16 647.053L1222.36 647.152L1222.45 647.202L1224.36 648.202L1226.3 649.24L1229.09 650.815L1231.87 652.453L1234.52 654.125L1234.89 654.358L1236.09 655.131L1237.16 655.845L1237.83 656.299L1240.42 658.083L1242.17 659.337L1242.24 659.389L1242.26 659.404L1243.64 660.43L1245.02 661.469L1247.06 663.067L1247.13 663.123L1248.69 664.393L1248.76 664.459L1250.1 665.823L1251.2 667.627L1251.23 667.698L1251.25 667.769L1251.15 671.126L1251.11 671.232L1251.08 671.311L1247.54 675.987L1247.29 676.224L1239.7 682.089L1239.34 678.883L1239.34 678.847L1239.3 678.592L1239.3 678.577L1233.38 660.893L1233.3 660.751L1232.96 660.191L1232.83 659.975L1232.52 659.482L1232.38 659.266L1232.07 658.751L1232 658.648L1231.98 658.629L1231.92 658.573L1214.53 643.453L1215.61 643.92ZM1195.43 636.594L1195.69 636.672L1195.99 636.76L1199.64 637.863L1203.3 639.07L1205.73 639.94L1206.84 640.343L1207.45 640.572L1207.61 640.63L1207.83 640.71L1208.31 640.893L1213.28 643.136L1231.71 658.846L1231.76 658.928L1232.09 659.434L1232.23 659.65L1232.54 660.146L1232.67 660.361L1233 660.908L1233.06 661.022L1238.96 678.644L1238.99 678.883L1238.99 678.92L1239.33 681.859L1239.28 681.803L1239.3 681.889L1239.2 681.794L1239.13 681.398L1239.08 681.663L1195.42 636.592L1195.43 636.594ZM1195.07 636.706L1229.24 671.986L1194.41 636.508L1195.07 636.706ZM1176.78 632.563L1177.74 632.718L1182.12 633.474L1182.79 633.599L1185.29 634.097L1185.32 634.097L1185.4 634.114L1187.09 634.487L1188.33 634.763L1188.46 634.793L1188.81 634.875L1188.92 634.903L1193.78 636.346L1237.37 680.762L1173.26 632.084L1176.78 632.563ZM1167.48 631.464L1169.42 631.64L1172.51 631.983L1172.59 631.983L1222.54 669.906L1237.5 681.26L1184.84 654.222L1154.22 638.493L1162.55 633.224L1165.6 631.304L1167.48 631.464ZM1153.59 630.893L1156.4 630.893L1159.58 630.975L1159.93 630.985L1162.71 631.115L1162.75 631.115L1165.03 631.266L1161.86 633.272L1153.96 638.249L1153.27 636.525L1153.16 636.236L1153.13 636.176L1151.6 632.224L1151.59 632.186L1151.55 632.056L1151.52 631.994L1151.47 631.843L1151.31 630.91L1153.59 630.893ZM1140.9 632.013L1141.24 631.931L1141.34 631.908L1142.36 631.677L1142.41 631.666L1142.81 631.582L1142.93 631.561L1143.28 631.492L1143.32 631.492L1146.67 631.078L1146.7 631.078L1146.73 631.078L1148.38 631.009L1150.07 630.947L1150.21 630.947L1150.96 630.934L1151.14 631.942L1151.14 631.968L1151.19 632.121L1151.21 632.183L1151.25 632.313L1151.27 632.354L1152.8 636.308L1152.83 636.368L1152.94 636.655L1153.54 638.146L1153.43 638.087L1153.46 638.143L1139.91 632.265L1140.9 632.013ZM1139.48 632.444L1153.54 638.544L1132.28 653.345L1119.89 661.964L1139.48 632.444ZM1119.31 635.525L1119.46 635.495L1119.68 635.45L1139.07 632.457L1119.24 662.313L1112.58 654.412L1112.07 644.127L1111.73 637.303L1119.31 635.525ZM1112.23 654.541L1117.18 660.408L1118.91 662.455L1103.51 663.52L1070.45 668.525L1087.11 651.57L1087.26 651.449L1088.41 650.525L1088.56 650.406L1099.9 643.978L1111.4 637.454L1112.23 654.541ZM1088.36 650.137L1088.19 650.27L1087.03 651.195L1086.88 651.32L1070.14 668.342L1070.14 667.644L1072.04 659.656L1075.07 655.218L1078.46 651.97L1108.56 638.678L1088.36 650.137ZM1055.71 667.939L1058.01 665.946L1058.38 665.627L1060.35 664L1062.75 662.098L1063.03 661.882L1065.18 660.249L1065.19 660.249L1066.98 658.956L1068.58 657.818L1068.68 657.749L1068.73 657.713L1070.13 656.73L1070.22 656.668L1072.84 654.925L1073.11 654.748L1075.35 653.324L1075.47 653.25L1077.49 652.016L1077.53 651.988L1077.94 652.005L1055.48 671.975L1055.14 672.376L1054.36 673.313L1053.56 674.289L1053.3 674.615L1048.82 680.588L1048.07 681.665L1047.78 682.096L1046.8 683.568L1038.74 698.037L1038.51 698.511L1038.09 699.426L1037.43 700.885L1038.51 694.516L1038.6 694.169L1038.67 693.887L1054.52 668.993L1055.71 667.939ZM1033.08 693.311L1033.69 692.449L1035.33 690.17L1035.41 690.071L1035.66 689.728L1036.89 688.108L1037.81 686.927L1037.9 686.815L1038.03 686.645L1039.22 685.136L1039.24 685.11L1041.11 682.848L1041.32 682.602L1043.01 680.65L1043.04 680.618L1045.01 678.422L1045.4 677.991L1046.85 676.455L1047.04 676.252L1047.04 676.239L1049.12 674.117L1049.37 673.867L1051.26 672.022L1052.87 670.514L1053.51 669.913L1038.32 693.79L1038.32 693.816L1038.25 694.124L1038.15 694.479L1036.89 701.909L1035.17 700.497L1035.16 700.482L1033.08 693.311ZM1008.36 770.313L1008.38 768.628L1008.38 768.253L1008.47 765.68L1008.63 762.737L1008.69 761.819L1008.78 760.656L1008.86 759.794L1009.14 756.936L1009.2 756.381L1009.44 754.346L1009.44 754.314L1009.49 753.959L1009.9 751.056L1009.95 750.696L1010.37 748.16L1010.75 746.158L1010.99 744.93L1010.99 744.917L1011.02 744.756L1011.5 742.429L1011.5 742.414L1012.17 739.556L1012.26 739.237L1012.9 736.731L1012.9 736.716L1013.69 733.889L1013.8 733.514L1014.38 731.575L1014.54 731.08L1015.45 728.278L1015.56 727.923L1016.42 725.484L1017.46 722.715L1017.88 721.599L1018.24 720.711L1018.55 719.963L1019.71 717.227L1019.98 716.58L1020.43 715.568L1020.92 714.49L1022.16 711.885L1022.36 711.471L1023.45 709.317L1024.78 706.774L1024.89 706.576L1026.17 704.251L1027.62 701.756L1027.73 701.579L1029.12 699.295L1030.22 697.571L1031.03 696.33L1031.09 696.24L1031.23 696.013L1032.26 694.475L1032.27 694.451L1032.81 693.673L1034.85 700.668L1034.9 700.709L1034.95 700.749L1036.76 702.241L1036.75 702.251L1036.77 702.264L1029.01 712.702L1028.98 712.747L1028.48 713.473L1012.93 744.986L1012.93 745.006L1012.93 745.016L1012.9 745.109L1012.61 746.053L1008.47 768.094L1008.36 770.313ZM1014.38 812.115L1013.55 809.292L1013.42 808.861L1013.07 807.618L1012.77 806.478L1011.87 802.772L1011.42 800.792L1011.42 800.77L1010.86 798.019L1010.79 797.689L1010.31 795.05L1010.3 794.948L1009.85 792.147L1009.82 791.932L1009.49 789.596L1009.36 788.581L1009.12 786.34L1009.06 785.829L1008.89 784.106L1008.87 783.89L1008.87 783.845L1008.81 783.168L1008.72 779.223L1008.58 773.494L1008.58 773.446L1008.82 768.15L1008.82 768.139L1012.92 746.161L1012.99 745.926C1013.04 746.572 1013.08 747.563 1013.14 748.843C1013.43 755.706 1013.89 770.822 1014.27 784.2C1014.47 790.895 1014.64 797.159 1014.77 801.751C1014.89 805.953 1014.96 808.754 1014.97 809.2L1014.97 809.26L1014.97 809.288L1015.22 814.675L1014.38 812.115ZM1020.71 828.683L1019.88 826.83L1019.27 825.412L1019.2 825.244L1019.2 825.225L1018.36 823.249L1018.36 823.229L1017.28 820.465L1017.22 820.316L1016.26 817.705L1016.06 817.151L1016.05 817.118L1015.99 816.965L1015.64 815.267L1015.33 809.314L1034.4 786.918L1034.46 787.333L1034.52 787.107L1034.52 787.146L1045.43 815.354L1045.51 815.517L1046.27 817.056L1046.49 817.5L1047.1 818.687L1047.46 819.377L1047.83 820.085L1048.42 821.197L1048.6 821.531L1059.41 839.177L1021.13 829.603L1020.71 828.683ZM1031.98 848.769L1030.44 846.425L1030.34 846.283L1028.86 843.938L1028.86 843.926L1028.84 843.898L1027.36 841.441L1027.25 841.258L1025.94 838.967L1025.94 838.952L1024.9 837.05L1024.46 836.25L1023.24 833.9L1023.24 833.88L1022.21 831.792L1021.35 830.015L1035.39 833.527L1059.43 839.543L1059.4 839.564L1059.64 839.605L1059.66 839.793L1059.75 839.726L1077.52 875.107L1067.96 881.216L1034.84 852.82L1034.25 852.008L1031.98 848.769ZM1110.87 905.26L1109.92 905.045L1109.27 904.885L1108.34 904.65L1107.7 904.485L1106.74 904.228L1106.14 904.067L1105.09 903.769L1104.58 903.625L1103.04 903.162L1101.17 902.567L1100.74 902.425L1098.9 901.802L1098.69 901.726L1097.02 901.123L1096.62 900.972L1094.83 900.287L1094.81 900.276L1094.4 900.113L1093.36 899.695L1092.84 899.479L1091.86 899.068L1091.35 898.852L1090.26 898.372L1089.9 898.21L1088.46 897.548L1088.13 897.393L1087.03 896.865L1086.53 896.622L1085.59 896.15L1085.44 896.077L1085.07 895.891L1084.1 895.389L1083.66 895.157L1082.27 894.411L1079.47 892.821L1077.93 891.925L1077.82 891.858L1075.33 890.349L1075.22 890.287L1074.32 889.714L1072.32 888.421L1069.71 886.671L1067.18 884.887L1066.89 884.672L1064.69 883.056L1063.13 881.853L1061.41 880.498L1059.95 879.328L1059.89 879.278L1057.56 877.318L1057.45 877.221L1055.32 875.363L1055.28 875.329L1055.26 875.314L1053.03 873.284L1052.76 873.03L1050.87 871.237L1050.83 871.202L1048.73 869.117L1048.59 868.979L1047.25 867.615L1046.65 866.983L1044.64 864.816L1044.34 864.495L1043.45 863.506L1042.67 862.616L1040.76 860.388L1040.54 860.112L1038.91 858.119L1037.11 855.833L1036.87 855.522L1035.73 854.014L1067.81 881.537L1067.82 881.537L1067.95 881.61L1068.59 881.98L1111.34 905.368L1110.87 905.258L1110.87 905.26ZM1168.17 912.119L1167.49 912.119C1153.92 912.119 1133.75 909.374 1116.28 906.374L1114.66 906.068L1114.23 905.982L1113.08 905.747L1112.66 905.659L1116.84 887.902L1118.48 880.955L1182.43 892.687L1182.12 892.955L1182.35 892.871L1169.33 910.526L1168.25 911.147L1119.41 881.261L1119.22 881.543L1168.26 911.531L1168.85 911.192L1168.17 912.119ZM1194.47 907.307L1193.16 907.656L1192.38 907.861L1190.18 908.421L1188.84 908.749L1188.71 908.779L1187.2 909.124L1187.13 909.139L1182.57 910.074L1178.56 910.783L1178.49 910.783L1174.38 911.401L1174.34 911.401L1172.93 911.58L1171.33 911.765L1171.33 911.748L1170.82 911.811L1169.26 911.99L1168.62 912.061L1169.57 910.768L1230.75 875.598L1218.3 897.477L1194.86 907.193L1194.47 907.307ZM1249.63 878.466L1248.23 879.634L1245.83 881.539L1245.5 881.802L1243.82 883.082L1243.4 883.396L1240.89 885.225L1240.56 885.467L1238.93 886.605L1238.37 886.99L1238.35 886.99L1236.4 888.283L1235.45 888.912L1233.12 890.39L1230.39 892.045L1229.85 892.364L1228.06 893.394L1227.65 893.631L1224.79 895.193L1224.48 895.361L1222.36 896.465L1221.91 896.68L1220.74 897.255L1218.64 898.281L1216.68 899.199L1215.9 899.55L1212.73 900.929L1212.47 901.041L1209.55 902.231L1207.54 902.996L1204.68 904.06L1204.61 904.084L1203.27 904.547L1203.05 904.627L1202.79 904.717L1199.41 905.818L1197.92 906.295L1218.55 897.74L1231.19 875.521L1231.21 875.557L1231.32 875.316L1246.43 876.025L1246.92 876.087L1247.05 876.104L1247.41 876.154L1247.56 876.178L1247.89 876.229L1248.05 876.253L1248.39 876.311L1248.49 876.329L1248.8 876.389L1248.9 876.408L1249.57 876.559L1249.63 876.576L1249.9 876.647L1249.93 876.647L1250.17 876.721L1250.29 876.764L1250.35 876.783L1251.08 877.173L1251.08 877.223L1251.04 877.3L1250.89 877.436L1250.81 877.496L1249.63 878.466ZM1285.73 832.607L1285.3 833.581L1283.83 836.768L1283.11 838.06L1282.39 839.353L1280.94 841.853L1280.76 842.163L1279.44 844.318L1277.88 846.759L1277.76 846.951L1276.28 849.168L1274.62 851.538L1274.47 851.741L1272.91 853.896L1271.49 855.766L1270.66 856.832L1269.35 858.481L1269.33 858.509L1268.02 860.093L1267.25 861.013L1265.57 862.952L1265.54 862.986L1263.55 865.189L1261.7 867.167L1261.6 867.276L1260.98 867.908L1259.44 869.483L1259.03 869.892L1257.44 871.455L1257.31 871.575L1255.11 873.644L1254.85 873.887L1252.87 875.669L1251.47 876.889L1251.4 876.949L1250.48 876.46L1250.4 876.432L1250.27 876.385L1250.02 876.309L1249.98 876.309L1249.72 876.236L1249.65 876.219L1248.98 876.066L1248.88 876.044L1248.57 875.986L1248.48 875.967L1248.13 875.908L1247.98 875.885L1247.65 875.835L1247.49 875.811L1247.13 875.762L1247 875.745L1246.51 875.682L1231.83 874.993L1253.25 862.495L1271.67 848.519L1271.87 848.343L1272.26 847.994L1285.71 832.514L1286.02 832.023L1285.73 832.607ZM1285.38 832.333L1271.95 847.778L1271.58 848.112L1271.4 848.278L1253 862.234L1231.59 874.732L1252.97 828.293L1252.91 827.412L1271.91 846.699L1272.16 846.47L1252.91 826.935L1252.87 826.899L1248.58 772.612L1248.58 772.571L1281.4 800.171L1287.48 827.968L1286.74 830.142L1285.38 832.333ZM1288.33 825.513L1287.7 827.343L1281.72 800.001L1248.67 772.205L1248.84 771.99L1248.67 772.005L1248.69 771.819L1251.1 768.197L1251.47 767.639L1269.84 731.409L1272.52 735.23L1292.36 781.897L1288.33 825.513ZM1295.69 803.681L1295.67 803.772L1295.54 804.347L1288.81 824.117L1292.72 781.822L1272.84 735.049L1270.06 731.073L1280.36 721.183L1284.4 712.486L1294.44 739.324L1294.49 739.518L1294.59 739.897L1298.95 769.848L1295.69 803.681Z" fill="#FFF1F1"/>
</g>
</g>
</g>
</g>
<defs>
<radialGradient id="paint0_radial" cx="0" cy="0" r="1" gradientUnits="userSpaceOnUse" gradientTransform="translate(1152.5 778.545) rotate(10.6293) scale(235.862 228.311)">
<stop stop-color="#FAF6E7" stop-opacity="0.44"/>
<stop offset="0.233807" stop-color="#F4EFDC" stop-opacity="0.53"/>
<stop offset="0.448989" stop-color="#FCF8EA" stop-opacity="0.63"/>
<stop offset="0.593489" stop-color="#F3EFDE" stop-opacity="0.81"/>
<stop offset="0.675803" stop-color="#EEEADB" stop-opacity="0.43"/>
<stop offset="0.776042" stop-color="white" stop-opacity="0.22"/>
<stop offset="0.895833" stop-color="white" stop-opacity="0.06"/>
<stop offset="1" stop-color="white" stop-opacity="0"/>
</radialGradient>
</defs>
</svg>
